<svg width="34" height="23" viewBox="0 0 34 23" fill="none" xmlns="http://www.w3.org/2000/svg">
<path d="M7.625 7.75189V15.2519M13.25 7.75189V15.2519M18.875 7.75189V15.2519M24.5 7.75189V15.2519M5.75 2.12689H26.375C27.3696 2.12689 28.3234 2.52198 29.0266 3.22524C29.7299 3.9285 30.125 4.88233 30.125 5.87689V6.81439C30.125 7.06303 30.2238 7.30149 30.3996 7.47731C30.5754 7.65312 30.8139 7.75189 31.0625 7.75189C31.3111 7.75189 31.5496 7.85066 31.7254 8.02648C31.9012 8.20229 32 8.44075 32 8.68939V14.3144C32 14.563 31.9012 14.8015 31.7254 14.9773C31.5496 15.1531 31.3111 15.2519 31.0625 15.2519C30.8139 15.2519 30.5754 15.3507 30.3996 15.5265C30.2238 15.7023 30.125 15.9408 30.125 16.1894V17.1269C30.125 18.1215 29.7299 19.0753 29.0266 19.7785C28.3234 20.4818 27.3696 20.8769 26.375 20.8769H5.75C4.75544 20.8769 3.80161 20.4818 3.09835 19.7785C2.39509 19.0753 2 18.1215 2 17.1269V5.87689C2 4.88233 2.39509 3.9285 3.09835 3.22524C3.80161 2.52198 4.75544 2.12689 5.75 2.12689Z" stroke="#EA1D25" stroke-width="2.5" stroke-linecap="round" stroke-linejoin="round"/>
</svg>
