<svg width="34" height="23" viewBox="0 0 34 23" fill="none" xmlns="http://www.w3.org/2000/svg">
<path d="M7.625 7.75V15.25M13.25 7.75V15.25M5.75 2.125H26.375C27.3696 2.125 28.3234 2.52009 29.0266 3.22335C29.7299 3.92661 30.125 4.88044 30.125 5.875V6.8125C30.125 7.06114 30.2238 7.2996 30.3996 7.47541C30.5754 7.65123 30.8139 7.75 31.0625 7.75C31.3111 7.75 31.5496 7.84877 31.7254 8.02459C31.9012 8.2004 32 8.43886 32 8.6875V14.3125C32 14.5611 31.9012 14.7996 31.7254 14.9754C31.5496 15.1512 31.3111 15.25 31.0625 15.25C30.8139 15.25 30.5754 15.3488 30.3996 15.5246C30.2238 15.7004 30.125 15.9389 30.125 16.1875V17.125C30.125 18.1196 29.7299 19.0734 29.0266 19.7766C28.3234 20.4799 27.3696 20.875 26.375 20.875H5.75C4.75544 20.875 3.80161 20.4799 3.09835 19.7766C2.39509 19.0734 2 18.1196 2 17.125V5.875C2 4.88044 2.39509 3.92661 3.09835 3.22335C3.80161 2.52009 4.75544 2.125 5.75 2.125Z" stroke="#EA1D25" stroke-width="2.5" stroke-linecap="round" stroke-linejoin="round"/>
</svg>
