<svg width="41" height="40" viewBox="0 0 41 40" fill="none" xmlns="http://www.w3.org/2000/svg">
<g clip-path="url(#clip0_33_418)">
<path d="M1.297 0.440002H40.417V39.5603H1.297V0.440002Z" fill="black"/>
<path d="M37.2155 30.23C36.929 28.4453 35.7652 26.9463 32.318 25.5485C31.1205 24.9981 29.7855 24.6041 29.3877 23.6966C29.2465 23.1685 29.2277 22.871 29.3171 22.5513C29.5737 21.5138 30.8121 21.1903 31.7937 21.4878C32.4259 21.6997 33.0243 22.1869 33.3852 22.9641C35.0734 21.871 35.0699 21.8781 36.2487 21.1269C35.8171 20.4578 35.5868 20.1491 35.3043 19.8628C34.289 18.7288 32.9055 18.1447 30.693 18.1894L29.5405 18.3385C28.4362 18.6175 27.3837 19.1972 26.7665 19.9744C24.9146 22.0756 25.4427 25.7531 27.6962 27.2666C29.9162 28.9328 33.1774 29.3119 33.594 30.87C33.9993 32.7775 32.1921 33.395 30.3959 33.1756C29.0721 32.9003 28.3359 32.2275 27.5399 31.0041C26.0749 31.8519 26.0749 31.8519 24.5687 32.7181C24.9259 33.4991 25.3012 33.8525 25.8999 34.5291C28.7337 37.4035 35.8249 37.2622 37.0968 32.9116C37.1484 32.7622 37.4909 31.766 37.2155 30.23ZM22.564 18.4197H18.9049L18.8899 27.8797C18.8899 29.8916 18.994 31.736 18.6668 32.3013C18.1315 33.4131 16.7443 33.2753 16.1121 33.0597C15.4687 32.7435 15.1415 32.2938 14.7624 31.6581C14.6584 31.4756 14.5802 31.3344 14.554 31.3235L11.579 33.1453C12.0737 34.1606 12.8024 35.0419 13.7359 35.6144C15.1302 36.4513 17.0043 36.7078 18.9643 36.2578C20.2399 35.8863 21.3405 35.1166 21.9168 33.945C22.7499 32.4091 22.5712 30.55 22.5637 28.4938C22.5824 25.1391 22.564 21.785 22.564 18.4197Z" fill="white"/>
</g>
<defs>
<clipPath id="clip0_33_418">
<rect width="40" height="40" fill="white" transform="translate(0.857056)"/>
</clipPath>
</defs>
</svg>
