<svg width="101" height="36" viewBox="0 0 101 36" fill="none" xmlns="http://www.w3.org/2000/svg">
<path d="M76.4219 8.62168C78.7658 8.62168 80.9323 8.86992 83.5602 9.40254L81.6875 13.3475C80.2315 13.0633 81.5709 13.3094 80.4707 13.2029V13.7713L80.5414 16.0791L80.5766 19.0623C80.6121 19.8078 80.6121 20.5537 80.6479 21.2994V22.791C80.6479 27.4787 80.2572 29.6803 79.0854 31.4912C77.3809 34.1549 74.4332 35.4688 70.243 35.4688C68.1121 35.4688 66.2658 35.1492 64.3479 34.4033V29.3607H64.3483C66.2662 30.3549 68.1836 30.8164 70.2076 30.8164C73.7942 30.8164 75.3213 29.3607 75.3213 25.8803V25.7738C74.2561 26.3063 73.1905 26.5195 71.7703 26.5195C66.9762 26.5195 63.9217 23.359 63.9217 18.352C63.9217 12.1369 68.4321 8.62148 76.4217 8.62148M26.816 8.97656V21.6541C26.816 26.0223 26.4963 28.1172 25.5377 29.9285C24.6496 31.6688 23.4776 32.7693 21.0631 33.977L15.9848 31.5621C18.3996 30.4258 19.5713 29.4318 20.317 27.9041C21.0985 26.3416 21.3473 24.5305 21.3473 19.7721V8.97676L26.816 8.97656ZM92.05 8.51484C97.5188 8.51484 100.857 11.9598 100.857 17.535C100.857 23.2527 97.3772 26.8393 91.8369 26.8393C86.3678 26.8393 82.9942 23.3945 82.9942 17.8549C82.9946 12.1014 86.4748 8.51484 92.05 8.51484ZM37.3639 8.58633C40.1694 8.58633 42.0158 9.33184 42.8326 10.7879C43.2942 11.6047 43.4362 12.6699 43.4362 14.943V26.0578C40.9856 26.4129 37.8963 26.6617 35.6237 26.6617C31.0428 26.6617 28.9826 25.0631 28.9826 21.5123C28.9826 17.6768 31.717 15.9014 38.4291 15.333V14.1256C38.4291 13.1314 37.9321 12.7766 36.5469 12.7766C34.5229 12.7766 32.25 13.3445 30.1192 14.4457V10.2195C32.5344 9.08359 34.8424 8.58633 37.3639 8.58633ZM18.1158 0.53125V25.8451C15.3106 26.3777 13.2506 26.5908 11.0137 26.5908C4.33713 26.5908 0.857056 23.5723 0.857056 17.7838C0.857056 12.2084 4.55041 8.58652 10.2678 8.58652C11.1555 8.58652 11.8303 8.65723 12.6471 8.87031V0.53125H18.1158ZM54.6936 8.58633C57.4991 8.58633 59.5233 9.22539 60.7311 10.4684C61.8674 11.64 62.2223 12.9184 62.2223 15.6531V26.3775H56.7533V15.8662C56.7533 13.7711 56.0432 12.9895 54.0901 12.9895C53.3444 12.9895 52.6698 13.0605 51.5686 13.3801V26.3775H46.0998V9.82891C49.3313 8.97676 51.9946 8.58633 54.6936 8.58633ZM38.6778 18.9201C35.0553 19.2752 33.8834 19.8436 33.8834 21.2639C33.8834 22.3291 34.5584 22.8264 36.0498 22.8264C36.8666 22.8264 37.6123 22.7555 38.6778 22.5779V18.9201ZM91.9793 12.9186C89.8127 12.9186 88.5694 14.6588 88.5694 17.677C88.5698 20.6957 89.8127 22.4357 91.943 22.4357C94.0387 22.4357 95.2817 20.6955 95.2817 17.677C95.2817 14.6941 94.074 12.9186 91.9793 12.9186ZM10.8006 12.9895C8.03069 12.9895 6.43245 14.6941 6.43245 17.677C6.43245 20.5891 7.95979 22.1871 10.7651 22.1871C11.3686 22.1871 11.8658 22.1516 12.6471 22.0453V13.2734C12.0078 13.0605 11.4752 12.9895 10.8006 12.9895ZM71.4862 13.8059C70.1727 14.552 69.4975 15.9016 69.4975 17.8189C69.4975 20.5537 70.8473 22.116 73.2619 22.116C74.0076 22.116 74.6115 21.9738 75.3215 21.7609V19.8791C75.3215 19.2398 75.2864 18.5293 75.2864 17.7838L75.251 15.2625L75.2153 13.4514V13.025H74.6469C73.5819 12.9895 72.3389 13.2734 71.4864 13.8061M26.816 0.560547V6.17148H21.3473V0.560352L26.816 0.560547Z" fill="black"/>
</svg>
