<svg width="101" height="20" viewBox="0 0 101 20" fill="none" xmlns="http://www.w3.org/2000/svg">
<path d="M8.68687 19.1137C6.73743 18.8507 4.73909 17.8208 3.33664 16.3551C2.31935 15.2982 1.69314 14.2843 1.2161 12.9315C0.884026 11.9867 0.857056 11.7685 0.857056 9.99853C0.857056 8.22692 0.884026 8.0061 1.2161 7.06129C2.895 2.26732 8.08763 -0.313399 12.8513 1.27363C15.7354 2.23192 18.0692 4.75365 18.8597 7.76252C19.1497 8.86578 19.1522 10.9821 18.8665 12.1646C17.77 16.6821 13.2988 19.7323 8.68687 19.1137ZM11.7354 12.9315C12.9465 10.5084 13.9377 8.47049 13.9377 8.40138C13.9377 8.32216 13.3384 8.27243 12.4071 8.27243H10.8757V5.44476C10.8757 3.88723 10.8335 2.65586 10.783 2.70559C10.5925 2.89691 6.19802 11.5325 6.2469 11.6243C6.27303 11.6774 6.981 11.7196 7.81708 11.7196H9.34175V14.5279C9.34175 16.0719 9.38389 17.3361 9.44036 17.3361C9.49345 17.3361 10.5276 15.3547 11.7354 12.9315ZM39.6867 17.9716C39.0184 17.8005 38.05 17.2906 37.7145 16.9316C36.8649 16.0196 36.5919 13.9952 37.1616 12.8195C37.6589 11.7853 38.7815 11.0976 40.4141 10.8178C41.2468 10.6728 42.8473 10.7158 43.7095 10.9071C44.0551 10.9829 44.0584 10.9728 44.0584 10.3635C44.0584 9.05963 43.6202 8.19405 42.7419 7.73639C42.291 7.50209 42.0171 7.46332 40.9973 7.47933C40.3281 7.49282 39.4558 7.58132 39.0546 7.67655L38.3264 7.85439L38.2446 7.26526C38.0862 6.14262 38.0702 6.18897 38.7613 6.00102C39.1136 5.90579 40.0946 5.79706 40.9408 5.75745C42.1688 5.70182 42.6299 5.73132 43.2291 5.90579C44.7403 6.34658 45.6092 7.28801 45.9346 8.84218C46.0441 9.36894 46.0964 10.8902 46.0997 13.6488L46.1031 17.6884L45.112 17.8401C43.8022 18.0407 40.2927 18.1267 39.6867 17.9716ZM43.4659 16.3618L44.0584 16.2801V14.4528C44.0584 13.1852 44.0129 12.5986 43.9067 12.5363C43.825 12.484 43.176 12.4149 42.4621 12.3846C40.806 12.3087 39.9235 12.5396 39.3504 13.1911C39.0082 13.5797 38.956 13.7415 38.956 14.3475C38.956 15.4895 39.2678 15.9008 40.4208 16.2632C40.9804 16.4402 42.5312 16.4908 43.4659 16.3618ZM49.8857 17.8503C49.4019 17.7213 48.9611 17.5671 48.9047 17.5081C48.8094 17.4086 49.0665 15.9868 49.2047 15.8477C49.2376 15.8157 49.6295 15.921 50.0737 16.0753C51.1601 16.4571 53.5966 16.5034 54.2321 16.1545C54.7783 15.8578 55.0353 15.4566 55.0353 14.913C55.0353 13.9649 54.3341 13.4018 51.9076 12.4149C49.718 11.5224 49.0201 10.7225 49.0201 9.10935C49.0201 7.51895 49.8596 6.45531 51.4989 5.95551C52.2532 5.72795 52.5954 5.69845 53.7441 5.75745C55.2949 5.83667 56.4412 6.07014 56.4412 6.31034C56.4412 6.48481 56.174 7.80551 56.1285 7.85776C56.1116 7.87799 55.6506 7.77601 55.1002 7.63441C53.9186 7.33437 53.1289 7.31161 52.2962 7.5653C51.3944 7.835 51.0775 8.1873 51.0775 8.92477C51.0775 9.93869 51.4862 10.2581 54.1563 11.3378C56.1116 12.125 56.8558 12.8464 57.0699 14.1595C57.3792 16.0525 56.4572 17.396 54.4951 17.9185C53.5039 18.1823 50.9788 18.1461 49.8857 17.8503ZM62.1825 17.9059C61.3759 17.6556 60.7278 17.0698 60.3097 16.2169L59.9507 15.4861V2.60024L60.5238 2.505C60.8546 2.45267 61.1847 2.39648 61.5141 2.33643L61.9288 2.26479V5.9749H66.3966V7.63441H61.917L61.9566 11.2417C61.9895 14.5877 62.0122 14.8835 62.2558 15.3446C62.4008 15.6244 62.7109 15.9472 62.9537 16.0786C63.5436 16.3947 64.9031 16.3947 65.8049 16.0753L66.4834 15.8393L66.6772 16.6551C66.8618 17.4221 66.8618 17.4777 66.6444 17.5932C65.7358 18.0804 63.295 18.2514 62.1825 17.9059ZM26.5732 9.93279V2.02122H36.1477V3.80547H28.7368L28.773 6.26483L28.8059 8.72081L32.0946 8.75368L35.3799 8.78992V10.5708H28.7435V17.8469H26.5741L26.5732 9.93279ZM67.6709 17.7812C67.6709 17.6362 70.0182 11.3546 70.8905 9.16835C71.5239 7.59367 72.1836 6.02974 72.8695 4.4772L73.9626 2.02122H75.0128C75.9045 2.02122 76.0764 2.05409 76.1354 2.24119C76.1716 2.36677 76.6293 3.41272 77.1527 4.57244C78.2947 7.11439 79.655 10.5084 81.1982 14.6661C81.8303 16.3686 82.3512 17.7845 82.3512 17.8073C82.3512 17.8334 81.8244 17.841 81.1797 17.8208L80.0073 17.7812L79.296 15.8056L78.5813 13.8266L74.947 13.7904L71.3086 13.7575L70.5913 15.7693L69.8766 17.7812L68.7733 17.8208C68.1682 17.8401 67.6709 17.8241 67.6709 17.7812ZM77.8834 11.9404C77.8834 11.5291 75.108 4.57244 74.9436 4.57244C74.7363 4.57244 72.0106 11.4035 72.0106 11.921C72.0106 12.0727 72.5003 12.1014 74.947 12.1014C77.2285 12.1014 77.8834 12.0643 77.8834 11.9404ZM84.6487 10.0112V2.17545L85.0643 2.09286C85.9593 1.91839 90.2594 1.85687 91.0592 2.0111C92.8865 2.35329 94.2788 3.0975 94.9607 4.08866C96.1659 5.84342 95.9678 8.81268 94.5519 10.232C93.4562 11.3277 91.731 11.835 88.7642 11.9438L86.819 12.0129V17.8469H84.6487V10.0112ZM91.3028 9.81058C92.8275 9.3327 93.4756 8.45701 93.4756 6.87335C93.4756 4.69044 91.951 3.68326 88.6522 3.67989C88.0832 3.67989 87.4343 3.71361 87.2168 3.75912L86.819 3.83834V10.2252L88.6816 10.1325C89.9071 10.0735 90.8089 9.96145 91.3028 9.81058ZM98.6876 9.93195V2.02122H100.857V17.8469H98.6876V9.93195Z" fill="black"/>
</svg>
