<svg width="32" height="40" viewBox="0 0 32 40" fill="none" xmlns="http://www.w3.org/2000/svg">
<path d="M10.022 24.7366C8.83592 23.8036 7.57044 22.9095 6.70591 21.6496C4.88598 19.4279 3.48512 16.8562 2.5274 14.1532C1.94837 12.3955 1.75009 10.5111 1.00319 8.82152C0.22296 7.594 1.13761 6.25311 2.48203 5.86312C3.08016 5.7478 4.13251 5.18312 2.86217 5.58722C1.72309 6.42244 1.61336 4.82816 2.78116 4.72719C3.57817 4.62148 3.87158 3.96935 3.59873 3.38229C2.74284 2.82394 5.67339 2.21133 4.19869 1.37843C2.66352 -0.278378 6.34694 -0.597332 5.43801 1.28464C5.22075 2.73161 8.01275 1.01884 7.36438 2.69013C8.02309 3.49286 9.83037 2.8732 9.78499 3.99866C10.7443 4.06459 11.0736 4.87122 11.9731 4.93326C12.907 5.35488 14.5982 5.68649 14.9155 6.73811C13.9898 7.47078 11.8468 5.22448 11.7432 7.25291C12.0233 10.25 11.9519 13.3372 13.048 16.1911C13.5665 17.919 14.824 19.2791 15.9591 20.6251C17.0457 21.943 18.5173 22.8714 20.0175 23.6525C21.3331 24.2729 22.7515 24.684 24.1857 24.9427C24.7672 24.4979 25.794 22.8443 26.7007 23.5411C26.7445 24.3256 24.9009 25.1797 26.6142 25.093C27.6212 24.7891 28.3188 25.8708 29.1476 24.8948C29.9113 25.7994 32.3213 24.3174 31.7782 26.166C31.0432 26.6402 29.9718 26.3537 29.236 27.0061C28.023 26.4 27.0571 27.5478 25.7137 27.403C24.2223 27.6702 22.7044 27.7777 21.1925 27.7799C18.7114 27.5842 16.1781 27.5016 13.8179 26.6377C12.4879 26.2513 11.1906 25.494 10.022 24.7366ZM12.1172 25.645C13.4154 26.2058 14.685 26.7976 16.108 26.9766C18.3655 27.29 20.6968 27.7736 22.9622 27.333C21.937 26.8701 20.8766 27.5128 19.8553 27.0021C18.6303 27.2653 17.3156 26.9345 16.0697 26.7713C14.6537 26.1407 13.1251 25.7072 11.7991 24.8877C10.1413 24.2825 12.6558 25.6641 13.1036 25.7764C14.1393 26.364 11.9644 25.4747 11.6572 25.2306C10.7897 24.7438 10.6792 24.8456 11.5716 25.3396C11.7513 25.4447 11.9287 25.5553 12.1172 25.645ZM9.64656 23.8991C10.905 24.3652 9.64096 23.0145 9.0651 23.0926C8.80964 22.6494 8.08914 22.3694 8.59737 22.1316C7.68345 22.4491 7.63966 20.9248 7.21025 21.143C6.24293 20.8375 6.83388 19.7556 5.6813 19.0908C5.57619 18.3906 4.53662 17.7837 4.20574 16.7281C4.0594 16.1873 3.03089 14.6354 3.66247 16.0797C4.20015 17.4701 5.14594 18.6619 5.93347 19.8511C6.54437 20.9836 7.2667 22.1682 8.37951 22.8746C8.75502 23.2349 9.11692 23.7861 9.64656 23.8991ZM6.02251 19.9194C6.06606 19.7293 6.25242 20.3306 6.02251 19.9194V19.9194ZM11.1539 24.4574C10.7529 24.3 11.4322 24.3326 11.1539 24.4574V24.4574ZM11.8363 24.7065C11.5245 24.899 11.7656 24.3628 11.8363 24.7065V24.7065ZM12.6915 25.063C12.0638 24.8185 13.0979 24.6753 12.6915 25.063V25.063ZM14.1567 25.8796C13.3651 25.7421 14.404 25.5145 14.1567 25.8796V25.8796ZM11.3433 23.9183C10.5263 23.9126 11.9746 23.5093 11.3433 23.9183V23.9183ZM11.9843 24.238C11.756 24.3349 11.966 24.0223 11.9843 24.238V24.238ZM15.1891 26.2384C15.7045 26.5638 18.1983 26.9511 16.6369 26.372C16.375 26.427 13.7414 25.6267 15.1891 26.2384ZM10.1016 22.2756C9.30121 22.0362 10.0515 22.0594 10.1016 22.2756V22.2756ZM11.593 23.146C10.7872 22.9367 11.9819 22.8747 11.593 23.146V23.146ZM12.8481 23.9151C11.9447 23.7043 13.4058 23.7052 12.8481 23.9151V23.9151ZM9.4939 21.6146C10.0985 22.0782 11.9329 21.6742 10.4197 21.3378C9.73171 20.9711 8.18062 20.7199 9.23795 21.559L9.4939 21.6146ZM13.6987 24.1807C12.6422 23.9356 13.9507 23.7519 13.6987 24.1807V24.1807ZM12.421 23.1655C13.899 23.5833 11.1778 22.2301 12.0561 23.0113L12.2511 23.0996L12.421 23.1655ZM14.9826 24.646C13.7178 24.4528 16.3825 24.6593 14.9826 24.646V24.646ZM8.95549 20.8047C8.61027 20.8263 8.90051 20.5438 8.95549 20.8047V20.8047ZM17.3506 25.9743C16.8939 26.3252 17.3879 25.5036 17.3506 25.9743V25.9743ZM11.345 22.2676C10.9075 22.2572 11.2598 22.0194 11.345 22.2676V22.2676ZM9.08821 20.6409C7.98732 20.2869 9.8918 20.5925 9.08821 20.6409V20.6409ZM6.41469 18.9131C5.54055 18.2204 6.31458 18.5275 6.41469 18.9131V18.9131ZM13.433 23.367C13.2858 23.199 13.3637 23.4035 13.433 23.367V23.367ZM17.8007 26.0477C17.5629 26.1445 17.7873 25.7906 17.8007 26.0477V26.0477ZM13.0464 22.9676C12.3608 22.8673 13.1252 22.6368 13.0464 22.9676V22.9676ZM9.79217 20.905C8.83361 20.5009 10.3904 20.8413 9.79217 20.905V20.905ZM15.2969 24.3256C14.3884 24.1456 16.229 23.9564 15.2969 24.3256V24.3256ZM12.4339 22.3823C13.5077 22.5205 11.1557 21.6512 12.1977 22.3042L12.4339 22.3823ZM16.166 24.677C17.1692 24.0781 16.8383 26.081 17.8677 24.8464C18.8826 24.1051 16.991 25.7628 18.2415 24.9785C19.1467 24.3731 20.4829 25.2656 21.327 25.556C21.9338 25.5266 22.5242 26.081 23.1469 25.7436C24.3448 25.4206 20.8036 25.2649 21.7318 24.6928C20.6357 25.012 19.8261 24.3127 19.2867 23.6103C18.0569 23.3262 16.6354 22.6979 16.0214 21.609C15.7708 21.201 16.3827 21.6671 15.8051 20.9989C15.0645 20.3402 14.6947 19.5916 14.1974 18.7907C13.6032 18.4741 13.5332 17.541 13.4735 18.7598C13.4784 17.9905 12.7561 17.4727 12.5794 17.6875C12.5763 16.9468 13.3527 17.3183 12.8093 16.7703C12.6926 16.0026 12.3074 15.2025 12.192 14.3355C12.0124 13.9178 12.1664 13.023 11.578 13.9687C11.3639 14.9686 11.5072 12.7406 11.8406 13.4748C12.278 12.7255 11.6829 12.8137 11.6591 12.9172C11.9439 12.2849 11.8397 11.3875 11.5844 11.7296C11.7363 11.0589 11.8246 9.26212 11.3577 9.58107C11.6408 8.87955 11.8947 6.37208 10.6647 7.32845C10.1668 7.33551 9.30389 7.50909 8.89662 7.71188C10.1749 8.41669 8.76767 7.96636 8.24667 7.8542C8.17903 8.50646 7.66362 8.22485 7.01927 8.23118C8.04863 8.35842 6.51809 9.28341 5.92884 8.92407C5.16199 9.28998 6.58986 10.2047 5.94393 10.4878C6.02361 10.9135 4.76981 10.3337 4.86773 11.3184C4.12387 11.0048 4.76592 12.4861 5.13815 11.985C6.40375 12.3278 6.02908 13.1082 6.06083 13.8502C5.85476 14.282 5.04266 12.8345 5.88019 12.9014C5.21917 11.8281 5.14934 12.5131 4.60036 13.0118C4.47312 13.0477 6.00037 13.7213 5.04193 14.0538C5.88505 14.1844 5.90975 14.9225 6.08163 15.3895C6.58828 15.9174 6.48391 14.8062 7.09104 15.4412C6.70664 14.8756 5.05774 13.8477 6.3855 14.1773C6.3782 13.6085 6.14513 13.1494 6.5524 13.1605C6.95577 12.4311 6.13004 14.9599 7.03849 14.0324C7.28969 13.9227 7.3527 13.3022 7.80449 14.0913C8.46064 14.7372 8.04158 15.2047 7.11561 14.613C7.28105 15.1754 8.35408 15.3758 8.15203 16.2549C8.36588 17.0281 8.66513 16.7432 8.92593 16.6987C9.1303 17.4496 9.24671 16.8975 9.2562 16.5395C10.1924 16.7403 9.97281 17.2937 10.2662 17.6803C10.9113 17.9713 9.34281 15.7068 10.4501 16.9994C11.6153 18.0517 10.8876 18.4907 9.84168 18.3222C10.5034 18.2687 10.7164 19.2172 11.5447 19.1837C12.2995 19.5432 12.811 20.9225 11.5097 20.3481C11.0586 19.9409 9.46044 19.4389 10.7659 20.213C11.9702 20.7713 12.9279 21.1046 14.09 21.8056C14.9213 22.3989 15.2807 23.0788 15.5957 23.2135C14.8966 23.5474 13.4896 22.9469 14.5346 22.7633C13.8824 22.6447 13.1491 22.3146 13.7734 23.1267C14.3047 23.5706 15.6546 23.5235 15.8973 23.5737C15.6921 24.0256 15.3398 24.0615 15.9052 24.0964C15.2743 24.4328 16.108 24.4854 16.166 24.677ZM14.876 21.0331C14.4918 20.6314 14.3924 19.8798 14.8076 20.5334C15.0208 20.6194 15.4894 21.7626 14.876 21.0331ZM19.0784 23.7026C19.0855 23.8846 19.3178 23.6868 19.0784 23.7026V23.7026ZM14.27 20.0484C14.2547 19.4414 14.4082 20.5167 14.27 20.0484V20.0484ZM13.8523 19.4868C13.3688 18.5537 14.4608 19.7508 13.8523 19.4868V19.4868ZM8.79006 15.9932C8.93007 16.4782 9.0741 15.9174 8.79006 15.9932V15.9932ZM12.8191 18.1766C12.9933 17.5219 13.0236 18.7256 12.8191 18.1766V18.1766ZM9.97293 16.1975C9.77258 15.8364 10.3922 16.5365 9.97293 16.1975V16.1975ZM12.415 16.9803C11.9576 15.9558 12.7395 16.4202 12.5168 17.1481L12.415 16.9803ZM8.20312 14.1715C7.99876 13.8351 7.66058 12.8487 7.76958 12.5474C7.86738 13.0381 8.81244 14.6584 8.23244 13.2187C7.59222 12.012 8.99856 13.61 9.14331 13.9115C9.21095 14.2106 8.74797 13.8296 9.06133 14.5319C8.48947 13.7325 8.724 14.9735 8.20312 14.1715ZM6.90176 13.2743C6.95504 12.4924 7.19931 13.8104 6.90176 13.2743V13.2743ZM7.48724 13.4763C7.76641 12.8863 7.96044 14.2988 7.48724 13.4763V13.4763ZM6.07847 12.3867C5.59395 11.9045 5.24313 11.4607 6.10146 12.0874C6.4316 12.1002 5.3666 11.0782 6.18114 11.7629C7.03691 11.919 6.60337 13.167 6.07847 12.3867ZM6.81819 12.3676C6.96781 12.642 7.09992 12.0884 6.81819 12.3676V12.3676ZM7.27399 12.5131C6.84678 11.7136 7.79184 12.8488 7.27399 12.5131V12.5131ZM6.36883 11.6486C4.96018 10.3939 8.13865 12.3039 6.59874 11.8807L6.36883 11.6486ZM10.4056 13.9934C9.79558 13.6282 10.2434 11.4202 10.4519 12.93C11.0445 12.7381 10.419 13.7103 10.8606 13.7007C10.7915 14.3138 10.5934 14.5345 10.4056 13.9934ZM11.8987 14.8763C11.9583 14.2106 12.0244 15.3315 11.8987 14.8763V14.8763ZM11.6395 14.6194C11.6458 14.9543 11.7063 14.3355 11.6395 14.6194V14.6194ZM6.64472 11.2364C5.73969 9.98749 9.2753 12.4995 7.22473 11.5531C7.01063 11.4966 6.75226 11.4767 6.64472 11.2364ZM9.52029 12.7606C9.43453 11.709 9.71128 12.9346 9.52029 12.7606V12.7606ZM11.703 14.1611C11.7159 14.5575 11.8716 13.5623 11.703 14.1611V14.1611ZM6.78401 10.7599C7.3218 10.6446 9.01279 11.7041 7.46011 11.0622C7.28762 10.8712 6.91928 10.9581 6.78401 10.7599ZM11.403 13.0618C11.4605 11.9865 11.7246 12.4199 11.4054 13.2162L11.403 13.0618ZM7.18398 10.3854C7.40343 10.0639 6.60154 8.9321 7.29918 9.97958C7.60085 10.219 8.17174 10.3805 7.66752 10.4815C8.46052 11.1808 7.47434 10.6709 7.18398 10.3854ZM11.1745 12.7263C11.3084 13.4438 11.3259 11.5014 11.1745 12.7263V12.7263ZM6.72574 9.25421C6.81478 9.47755 6.89361 9.18244 6.72574 9.25421V9.25421ZM7.76702 9.87387C8.03488 9.31139 8.2609 10.5006 7.76702 9.87387V9.87387ZM10.7029 11.5068C10.7005 11.2913 10.7585 11.821 10.7029 11.5068V11.5068ZM10.5326 11.1307C10.1254 10.1252 10.9122 11.6628 10.5326 11.1307V11.1307ZM10.2828 10.4712C10.2146 10.0559 10.5151 10.993 10.2828 10.4712V10.4712ZM10.69 9.8094C10.4101 9.31686 11.0434 7.63779 11.1142 8.67908C10.819 9.49045 11.0291 9.94394 11.2342 8.85571C11.6145 7.99981 11.1523 10.5461 10.69 9.8094ZM11.1085 7.31252C11.1356 7.49292 11.2304 7.16289 11.1085 7.31252V7.31252ZM10.4095 21.084C10.244 20.9392 10.4308 21.1756 10.4095 21.084V21.084ZM11.8492 21.8119C12.6501 22.0179 12.6462 21.6877 11.9222 21.589C11.5333 21.2273 10.3043 20.843 11.4045 21.5445C11.477 21.7292 11.7069 21.7243 11.8492 21.8119ZM9.00634 19.9233C9.44694 20.2529 10.6679 20.8556 9.63464 20.0492C9.98303 19.6442 8.96802 19.4287 9.30462 19.1576C8.44787 18.6332 8.62827 18.6801 9.22907 18.6969C8.19971 18.2362 9.37772 18.2713 9.32213 18.0352C8.92521 17.9571 7.35014 17.335 8.27684 18.086C7.33506 17.6062 8.0524 18.2649 7.76775 18.1957C6.80432 17.9332 8.62535 18.9293 7.61497 18.6818C8.16711 19.1193 9.10171 19.8034 7.84804 19.1447C7.68345 19.3825 8.74553 19.7429 9.00634 19.9233ZM10.5118 20.7888C9.61372 20.0674 12.3422 21.3783 10.5118 20.7888V20.7888ZM18.2197 25.4581C17.9699 25.7683 18.2436 25.0946 18.2197 25.4581V25.4581ZM19.012 25.7914C19.4344 25.3826 19.0295 26.4436 19.712 25.6913C19.719 25.1526 19.6913 24.8346 18.9277 25.4891C18.7168 25.6061 18.6231 26.1014 19.012 25.7914ZM6.43622 17.8937C5.52693 17.3859 6.30643 17.3838 6.43622 17.8937V17.8937ZM7.28166 18.4479C6.16082 17.9763 6.96745 17.927 7.28166 18.4479V18.4479ZM12.0949 21.3505C12.5652 21.7682 14.253 21.6568 12.6654 21.4023C12.4307 21.0546 11.1731 21.1382 12.0949 21.3505ZM18.7106 25.4369C18.0099 25.7073 19.4336 24.8299 18.7106 25.4369V25.4369ZM20.2148 26.47C19.9031 26.5552 20.2195 26.2752 20.2148 26.47V26.47ZM20.2173 26.1972C19.4417 26.2473 21.0182 25.3493 20.2173 26.1972V26.1972ZM4.35524 16.1515C3.67281 15.1778 3.93131 14.7403 3.27272 13.9448C3.14767 13.3364 2.14325 11.957 2.7533 13.4182C3.31165 14.2734 3.47697 15.5969 4.35524 16.1515ZM19.966 25.9275C19.3615 25.5131 21.4401 24.9753 19.966 25.9275V25.9275ZM21.0908 26.3681C20.6238 26.236 21.829 25.7348 21.0908 26.3681V26.3681ZM6.18564 16.8171C5.64006 16.7766 6.39657 16.5029 6.18564 16.8171V16.8171ZM20.856 26.0674C21.5703 25.607 20.6914 25.6776 20.7265 26.1095L20.856 26.0674ZM11.1612 19.9568C10.7835 19.9831 11.1366 19.645 11.1612 19.9568V19.9568ZM11.7601 20.3013C11.4675 20.3617 11.5693 19.9163 11.7601 20.3013V20.3013ZM22.0023 26.3786C22.9178 25.7181 21.448 26.2519 21.8106 26.5042L22.0023 26.3786ZM21.6516 26.2091C20.8648 26.4858 22.3976 25.5846 21.6516 26.2091V26.2091ZM23.4427 27.4013C22.8343 27.2932 23.9433 27.0665 23.4427 27.4013V27.4013ZM6.64472 16.5905C7.31523 16.7407 9.32603 18.2426 8.14011 16.6948C7.53249 16.515 7.89682 15.0298 7.27716 15.2923C7.69318 15.9875 7.61898 16.2825 6.74557 15.8452C5.64882 15.309 6.12919 16.1101 6.34414 16.3313C6.05122 16.3981 6.73061 16.585 6.6446 16.5904M3.58766 14.1763C3.70773 13.6791 2.48118 11.4431 3.00863 13.0555C3.19864 13.3936 3.17894 14.0338 3.58766 14.1763ZM9.19866 17.6356C8.85271 17.3469 9.182 17.5942 9.19866 17.6356V17.6356ZM10.049 17.8338C9.10889 17.6197 10.049 17.3071 10.049 17.8338V17.8338ZM17.4228 22.4815C16.8669 22.4735 17.2821 22.1218 17.4228 22.4815V22.4815ZM17.7768 22.7399C17.5722 22.779 17.7242 22.5387 17.7768 22.7399V22.7399ZM20.6992 24.5814C20.3484 24.5545 20.9801 24.3738 20.6992 24.5814V24.5814ZM5.11419 14.5662C4.25257 14.3442 5.91826 14.255 5.11419 14.5662V14.5662ZM16.7736 21.9111C16.2606 22.0409 16.7643 21.391 16.7736 21.9111V21.9111ZM4.79669 13.8255C4.31863 13.7112 5.31295 13.6516 4.79669 13.8255V13.8255ZM6.29536 14.5517C6.1371 14.6171 6.28648 14.3808 6.29536 14.5517V14.5517ZM24.5786 25.7635C25.2428 25.6291 26.7565 26.1017 27.0007 25.5879C26.1942 25.5679 24.2111 25.0182 24.1172 25.7181L24.2938 25.7461L24.5786 25.7635ZM6.77172 14.6719C6.36056 14.6521 6.78389 14.1445 6.77172 14.6719V14.6719ZM2.83139 11.9379C2.15043 11.7859 2.65246 10.9332 2.83139 11.9379V11.9379ZM3.77074 12.1742C2.91071 11.8838 3.78278 11.8512 3.77074 12.1742V12.1742ZM4.30768 12.4383C4.15258 12.3125 4.18676 12.5964 4.30768 12.4383V12.4383ZM7.68747 14.6059C7.31049 14.4977 7.8467 14.4594 7.68747 14.6059V14.6059ZM3.95053 11.8433C2.86156 11.7296 3.85917 11.0845 3.95053 11.8433V11.8433ZM2.02306 10.5928C1.83524 10.7248 1.99594 10.2428 2.02306 10.5928V10.5928ZM2.31015 10.3766C2.06357 10.4289 2.26331 9.96122 2.31015 10.3766V10.3766ZM3.89336 11.3215C4.56313 11.0589 2.67374 10.7773 3.75651 11.2722L3.89336 11.3215ZM25.0871 24.4129C24.543 24.2912 25.5158 24.02 25.0871 24.4129V24.4129ZM27.6476 25.7397C27.2148 25.8066 27.8195 25.2323 27.6476 25.7397V25.7397ZM4.05514 10.4918C3.52392 10.5896 4.12606 10.0004 4.05514 10.4918V10.4918ZM1.80191 8.98222C1.681 8.2886 1.69766 7.07069 2.85512 7.48197C1.31022 7.789 3.92498 9.40274 3.59484 8.12851C4.24467 8.1605 4.86603 7.74448 4.52469 8.37509C5.80537 8.23434 6.69241 7.12397 7.92918 7.27992C8.89236 7.15194 9.94556 7.0556 10.9837 6.66743C11.8371 6.60612 12.6587 5.68734 12.1913 5.14249C11.0275 5.04396 9.80871 5.18944 8.52256 5.44563C7.09724 5.74147 5.80233 6.30457 4.364 6.54652C2.96156 6.73507 4.64561 7.06509 4.24382 7.13905C3.51273 7.3928 5.1165 7.56384 4.14918 7.83182C3.5519 7.7182 2.92981 7.51299 3.18514 6.88299C1.84242 7.05791 0.661977 7.61468 1.72321 8.98124L1.80191 8.98222ZM5.03864 7.33393C5.35285 6.17428 6.72489 8.2886 5.55405 7.48829C5.41477 7.38319 5.18401 7.29804 5.03864 7.33393ZM5.09971 6.77144C5.34081 6.96169 5.55405 6.43351 5.09971 6.77144V6.77144ZM5.67643 6.78117C5.71803 6.24739 6.99786 7.06351 5.88736 6.97288L5.67643 6.78117ZM6.46554 6.4638C6.54923 6.7628 6.75433 6.12636 6.46554 6.4638V6.4638ZM6.66772 6.32865C7.14809 5.75193 9.38563 5.96019 7.7478 6.27196C7.30866 5.94109 6.97231 6.46684 6.66772 6.32865ZM9.58841 5.87832C9.51616 4.30241 11.0401 6.43752 9.58841 5.87832V5.87832ZM10.4174 5.87346C10.7203 5.07972 11.5937 5.55462 10.5582 5.71361C10.5803 5.79877 10.5271 6.12417 10.4174 5.87346ZM3.72853 10.0846C2.76753 9.60346 4.63357 9.53011 3.72853 10.0846V10.0846ZM4.39818 10.27C3.70773 10.1331 4.71568 9.93275 4.39818 10.27V10.27ZM2.42559 8.87079C1.8131 8.71971 2.94258 8.47301 2.42559 8.87079V8.87079ZM29.1588 25.5949C28.7634 25.8024 29.1739 25.1335 29.1588 25.5949V25.5949ZM26.4423 23.7407C26.0932 23.7869 26.5195 23.2103 26.4423 23.7407V23.7407ZM29.9057 25.774C30.6289 25.7764 32.097 25.5487 30.5237 25.5495C30.2763 25.5879 29.0848 25.58 29.9057 25.774ZM4.98695 9.94443C5.57242 9.90465 5.90245 9.29922 4.87309 9.33353C3.27832 9.16894 6.28015 9.88008 4.66872 9.67644C4.45244 9.81962 4.97405 9.98421 4.98695 9.94443ZM5.50236 10.2055C5.32086 10.405 5.44105 9.82996 5.50236 10.2055V10.2055ZM6.11399 8.57471C5.76243 8.49041 6.36774 8.25964 6.11399 8.57471V8.57471ZM4.16669 5.3207C5.21199 4.96598 6.64059 4.56662 7.13386 5.49587C6.63183 4.89214 6.93108 4.29706 7.40513 5.18081C8.07564 6.07417 8.41113 4.77439 7.97528 4.47442C8.47256 5.09164 9.03724 5.38371 8.30773 4.51359C9.10086 3.55977 6.72087 4.63839 6.18004 4.6272C5.91996 4.74398 3.4929 5.24601 4.16669 5.3207ZM4.7793 4.14841C5.37524 3.69905 6.84033 4.41639 5.90014 3.70124C5.80793 3.62022 3.84166 4.24378 4.7793 4.14841ZM6.95176 4.23818C7.64854 4.2557 6.65117 3.30115 7.48152 3.73384C7.34552 3.2885 6.51432 3.20493 6.1079 3.02684C5.878 3.43411 6.57539 4.24378 6.95176 4.23818ZM5.16017 2.26619C4.73709 2.43248 5.40127 1.93933 5.16017 2.26619V2.26619ZM6.04818 2.47846C7.17193 2.32981 5.76158 1.99492 5.82119 2.46666L6.04818 2.47846ZM4.39016 1.18197C3.59861 0.148717 5.87848 1.35544 5.07416 0.273525C4.39733 -0.264876 3.7475 0.880534 4.39016 1.18197ZM14.5439 6.65077C14.9069 6.00787 13.0462 5.78368 14.2997 6.42305C14.415 6.46137 14.389 6.69517 14.5439 6.65077ZM7.17631 30.5931C7.09603 30.9101 7.04628 31.442 7.02766 32.1887C7.02766 32.3354 6.96161 32.4089 6.82914 32.4089C6.69667 32.4089 6.60446 32.3448 6.55227 32.2172C6.41044 31.8719 6.27614 31.6312 6.14793 31.4937C5.99684 31.3332 5.79589 31.2361 5.54518 31.203C5.27573 31.1604 4.60449 31.1391 3.53134 31.1391C3.28562 31.1391 3.12468 31.1653 3.04926 31.2175C3.00194 31.2503 2.97834 31.3214 2.97834 31.4302V34.6428C2.97834 34.7515 3.04683 34.8033 3.18368 34.7988C3.60469 34.794 4.2145 34.7652 5.01322 34.7137C5.16941 34.6945 5.27476 34.6437 5.32901 34.5609C5.38375 34.4782 5.43691 34.2646 5.48861 33.9192C5.52145 33.7301 5.63288 33.6567 5.82192 33.6995C5.98249 33.7326 6.05158 33.806 6.02786 33.9192C5.89527 34.5625 5.85245 35.3993 5.89977 36.43C5.90476 36.5526 5.82678 36.619 5.66585 36.6285C5.53325 36.6427 5.45054 36.5717 5.41769 36.4156C5.29507 35.8248 5.0665 35.509 4.73356 35.4686C4.40025 35.4287 3.85735 35.4085 3.10595 35.4085C3.0208 35.4085 2.97834 35.439 2.97834 35.5006V38.692C2.97834 38.9284 3.06556 39.0894 3.24037 39.1742C3.37782 39.2451 3.67318 39.3091 4.12679 39.3657C4.35877 39.3893 4.4601 39.4913 4.43212 39.6706C4.40354 39.8267 4.19577 39.8882 3.80772 39.8551C2.68737 39.7651 1.76286 39.77 1.03506 39.8696C0.83155 39.8976 0.73022 39.8149 0.73022 39.6213C0.73022 39.4981 0.83155 39.4273 1.03506 39.4084C1.49841 39.3563 1.7299 38.9496 1.7299 38.1887V32.1176C1.7299 31.806 1.67419 31.5661 1.56337 31.3981C1.45206 31.2302 1.24514 31.0776 0.942977 30.9406C0.753697 30.8555 0.6829 30.7398 0.730098 30.5931C0.753697 30.5034 0.79165 30.4535 0.84335 30.4443C0.890669 30.4299 1.01621 30.4394 1.21911 30.4728C1.51714 30.52 2.2194 30.5437 3.32552 30.5437C4.63065 30.5437 5.75793 30.5151 6.70847 30.4585C7.02511 30.4393 7.18373 30.4655 7.18373 30.5364C7.18373 30.5556 7.1813 30.5742 7.17631 30.5931ZM11.7753 39.5957C11.7753 39.7848 11.6689 39.8675 11.4563 39.8438C10.8043 39.7823 9.99556 39.7915 9.03116 39.8719C8.83713 39.8911 8.71804 39.8861 8.67279 39.8582C8.62778 39.8296 8.60564 39.7517 8.60564 39.6236C8.60564 39.5105 8.73422 39.4149 8.99187 39.3366C9.24988 39.2588 9.37833 39.0259 9.37833 38.6383V32.2201C9.37833 31.8369 9.32274 31.5556 9.21192 31.3759C9.10062 31.1962 8.90562 31.0568 8.62681 30.9578C8.48011 30.9055 8.40663 30.8322 8.40663 30.7376C8.40663 30.5957 8.51307 30.4894 8.72583 30.4185C9.04746 30.3145 9.38089 30.1541 9.72612 29.9363C10.0098 29.766 10.1896 29.6812 10.2649 29.6812C10.4397 29.6812 10.5275 29.8014 10.5275 30.0426C10.5275 30.024 10.518 30.2604 10.4988 30.7518C10.4851 31.2198 10.4802 31.6807 10.4851 32.1349L10.513 38.4678C10.513 38.7563 10.5841 38.9657 10.7259 39.0957C10.8678 39.2256 11.1115 39.3119 11.4563 39.3543C11.6689 39.3778 11.7753 39.4582 11.7753 39.5955M18.1896 39.1774C18.1896 39.2769 18.0088 39.4268 17.6473 39.6275C17.2854 39.8286 16.9957 39.9291 16.7785 39.9291C16.5938 39.9291 16.4309 39.8394 16.2891 39.6596C16.1473 39.48 16.0476 39.3903 15.9911 39.3903C15.9486 39.3903 15.7241 39.4873 15.3172 39.6808C14.911 39.8748 14.5018 39.9719 14.0905 39.9719C13.7029 39.9719 13.3789 39.8582 13.1189 39.6317C12.8352 39.3808 12.6934 39.0405 12.6934 38.6101C12.6934 37.7921 13.6296 37.2061 15.5019 36.8515C15.8231 36.7899 15.9866 36.6599 15.991 36.4613L16.0054 36.0074C16.0339 35.2321 15.6911 34.8446 14.977 34.8446C14.7737 34.8446 14.5811 35.0263 14.3987 35.3903C14.2171 35.7547 13.9556 35.9507 13.6152 35.9793C13.2277 36.0167 13.0336 35.8537 13.0336 35.4898C13.0336 35.2627 13.3222 34.9983 13.8989 34.6954C14.5042 34.3788 15.0859 34.2202 15.6438 34.2202C16.6033 34.2202 17.0785 34.6767 17.0691 35.5892L17.0405 38.5107C17.0361 38.8181 17.1662 38.9716 17.4306 38.9716C17.4828 38.9716 17.5822 38.9599 17.7285 38.9362C17.8754 38.9126 17.9605 38.9007 17.9842 38.9007C18.1211 38.9007 18.1896 38.9933 18.1896 39.1774ZM16.0054 37.5608C16.0103 37.4424 15.9827 37.3641 15.9236 37.3267C15.8644 37.2889 15.7715 37.2814 15.6438 37.3051C14.5042 37.5085 13.9344 37.8797 13.9344 38.4186C13.9344 38.9624 14.2299 39.2341 14.8209 39.2341C15.0573 39.2341 15.3011 39.1894 15.5512 39.0997C15.8447 38.9953 15.9911 38.8703 15.9911 38.7235L16.0054 37.5608ZM23.4622 38.3616C23.4622 38.8627 23.269 39.2614 22.884 39.5567C22.4987 39.8523 21.9729 40 21.306 40C20.8617 40 20.417 39.9528 19.9728 39.8582C19.5896 39.773 19.3675 39.6952 19.306 39.6242C19.2681 39.5577 19.2493 39.2342 19.2493 38.6525C19.2493 38.402 19.306 38.2718 19.4196 38.2625C19.533 38.2482 19.6301 38.3099 19.7104 38.4467C20.0649 39.0663 20.6371 39.3761 21.4267 39.3761C22.0929 39.3761 22.4263 39.1441 22.4263 38.6806C22.4263 38.4777 22.3509 38.3073 22.1994 38.1703C22.0338 38.0143 21.7128 37.8322 21.2351 37.6242C20.5446 37.317 20.0836 37.0476 19.8521 36.8156C19.6014 36.5699 19.4762 36.239 19.4762 35.8227C19.4762 35.3119 19.6724 34.9151 20.0649 34.6314C20.4288 34.357 20.9159 34.2202 21.5256 34.2202C21.9087 34.2202 22.2585 34.2506 22.5756 34.3122C22.916 34.3738 23.0932 34.4492 23.1074 34.5392C23.1449 34.8037 23.2232 35.1869 23.3415 35.6883C23.3557 35.7494 23.2892 35.7991 23.143 35.8369C22.9868 35.87 22.8829 35.8439 22.8307 35.7591C22.4574 35.1489 21.9847 34.8441 21.4123 34.8441C20.7647 34.8441 20.4407 35.0521 20.4407 35.4681C20.4407 35.7 20.5283 35.8841 20.7031 36.0211C20.8593 36.1394 21.2256 36.324 21.8024 36.5747C22.4076 36.8347 22.8189 37.0687 23.0366 37.2766C23.3203 37.5459 23.4622 37.9079 23.4622 38.3616ZM31.8054 39.6027C31.8054 39.7681 31.6941 39.8557 31.472 39.8651C31.141 39.87 30.7081 39.8936 30.1743 39.936C29.9093 39.9882 29.7202 39.9552 29.6069 39.837C28.8598 39.0333 28.226 38.1916 27.7059 37.312C27.6635 37.2366 27.6093 37.1988 27.5429 37.1988C27.4626 37.1988 27.3233 37.2697 27.1248 37.4116C26.9022 37.5343 26.7913 37.7094 26.7913 37.9359C26.7913 38.097 26.7957 38.3285 26.8056 38.6315C26.8151 38.9338 26.8904 39.1322 27.0322 39.2268C27.1316 39.2934 27.3612 39.3451 27.7201 39.383C27.9423 39.4115 28.0536 39.4942 28.0536 39.6312C28.0536 39.74 28.0359 39.8076 28.0004 39.8331C27.9651 39.8591 27.8714 39.8651 27.7201 39.8509C27.2474 39.8085 26.4485 39.8321 25.3233 39.9218C25.0396 39.9454 24.8859 39.9099 24.8623 39.8153C24.8529 39.7825 24.8479 39.7351 24.8479 39.6735C24.8479 39.5273 24.9923 39.4159 25.281 39.3407C25.541 39.274 25.6709 38.9692 25.6709 38.4255V32.2271C25.6709 31.8396 25.6332 31.5701 25.5571 31.4189C25.4532 31.2249 25.2355 31.0736 24.9046 30.9648C24.7489 30.9131 24.6707 30.8398 24.6707 30.7451C24.6707 30.6077 24.782 30.5013 25.004 30.4261C25.3614 30.3065 25.7021 30.142 26.018 29.9366C26.2782 29.7666 26.4392 29.6813 26.5002 29.6813C26.6944 29.6813 26.7913 29.804 26.7913 30.0503C26.7913 30.0168 26.7889 30.2512 26.7839 30.7522C26.7788 31.2155 26.7765 31.6789 26.7771 32.1423L26.7913 36.5817C26.7913 36.7048 26.8243 36.7658 26.8904 36.7658C26.9613 36.7658 27.0702 36.7048 27.2169 36.5817C27.6093 36.2743 28.0915 35.8725 28.6633 35.376C28.7771 35.2579 28.8336 35.1633 28.8336 35.0924C28.8336 34.9649 28.6422 34.8746 28.2595 34.823C28.094 34.8037 28.0157 34.7117 28.0249 34.5462C28.0393 34.3807 28.1221 34.3098 28.2732 34.3334C28.6141 34.3809 29.1105 34.4069 29.7625 34.4117C30.2166 34.4161 30.6682 34.4187 31.1174 34.4187C31.2636 34.4235 31.3371 34.5108 31.3371 34.6812C31.3371 34.8418 31.2213 34.9294 30.9898 34.9437C30.6253 34.9575 30.2826 35.0402 29.9615 35.1919C29.5123 35.3948 29.0322 35.7518 28.5215 36.2626C28.484 36.291 28.4648 36.3264 28.4648 36.3689C28.4648 36.435 28.5451 36.5936 28.7062 36.8442C29.2971 37.7425 29.8551 38.4207 30.3796 38.8795C30.7155 39.1678 31.0297 39.312 31.3227 39.312C31.5405 39.312 31.6753 39.3273 31.727 39.3582C31.7793 39.389 31.8054 39.4706 31.8054 39.6027Z" fill="black"/>
</svg>
