<svg width="30" height="18" viewBox="0 0 30 18" fill="none" xmlns="http://www.w3.org/2000/svg">
<path d="M21.8174 11.7275H15.8973C15.2538 13.5474 13.9878 15.0812 12.3229 16.0578C10.658 17.0345 8.70137 17.3912 6.79892 17.0648C4.89647 16.7384 3.17067 15.7499 1.92652 14.2741C0.682375 12.7983 0 10.9302 0 8.99999C0 7.06974 0.682375 5.20164 1.92652 3.72585C3.17067 2.25007 4.89647 1.26162 6.79892 0.935211C8.70137 0.608803 10.658 0.965451 12.3229 1.94212C13.9878 2.91879 15.2538 4.4526 15.8973 6.27245H30V11.7275H27.2725V17.1826H21.8174V11.7275ZM8.17969 11.7275C8.90308 11.7275 9.59684 11.4402 10.1084 10.9286C10.6199 10.4171 10.9072 9.72337 10.9072 8.99999C10.9072 8.2766 10.6199 7.58284 10.1084 7.07132C9.59684 6.55981 8.90308 6.27245 8.17969 6.27245C7.4563 6.27245 6.76254 6.55981 6.25103 7.07132C5.73952 7.58284 5.45215 8.2766 5.45215 8.99999C5.45215 9.72337 5.73952 10.4171 6.25103 10.9286C6.76254 11.4402 7.4563 11.7275 8.17969 11.7275Z" fill="#EA1D25"/>
</svg>
