<svg width="30" height="30" viewBox="0 0 30 30" fill="none" xmlns="http://www.w3.org/2000/svg">
<path d="M15 0C16.9891 0 18.8968 0.790176 20.3033 2.1967C21.7098 3.60322 22.5 5.51088 22.5 7.5C22.5 9.48912 21.7098 11.3968 20.3033 12.8033C18.8968 14.2098 16.9891 15 15 15C13.0109 15 11.1032 14.2098 9.6967 12.8033C8.29018 11.3968 7.5 9.48912 7.5 7.5C7.5 5.51088 8.29018 3.60322 9.6967 2.1967C11.1032 0.790176 13.0109 0 15 0ZM15 30C15 30 30 30 30 26.25C30 21.75 22.6875 16.875 15 16.875C7.3125 16.875 0 21.75 0 26.25C0 30 15 30 15 30Z" fill="#EA1D25"/>
</svg>
