<svg width="30" height="31" viewBox="0 0 30 31" fill="none" xmlns="http://www.w3.org/2000/svg">
<path d="M29.6634 13.7826C29.4687 13.3931 29.1824 13.0567 28.8292 12.8021L26.8828 11.3386C26.7816 11.2688 26.7089 11.1649 26.678 11.046C26.6343 10.9279 26.6343 10.7981 26.678 10.6801L27.4828 8.2947C27.612 7.86808 27.6421 7.4176 27.5707 6.97761C27.5031 6.52951 27.3217 6.10624 27.0438 5.74833C26.7761 5.39033 26.4242 5.10383 26.0194 4.91417C25.6322 4.72824 25.2044 4.64269 24.7755 4.66539H22.5803C22.4505 4.66381 22.3247 4.62017 22.2218 4.541C22.1189 4.46184 22.0444 4.35143 22.0096 4.22636L21.3803 2.03121C21.2589 1.58587 21.0274 1.17823 20.7072 0.845828C20.3876 0.521242 19.9968 0.275703 19.5657 0.128747C19.1299 -0.00497435 18.6688 -0.0350417 18.2193 0.0409406C17.7735 0.128006 17.3562 0.324085 17.0047 0.611679L15.3364 1.92877C15.2439 2.01211 15.1242 2.05893 14.9998 2.06048C14.8874 2.07121 14.7745 2.04556 14.6778 1.98731L13.0241 0.670217C12.6847 0.392792 12.2829 0.201955 11.8534 0.114112C11.4302 0.0116686 10.9887 0.0116686 10.5656 0.114112C10.1412 0.232005 9.75032 0.447501 9.42409 0.743388C9.09032 1.06673 8.83501 1.46221 8.67774 1.8995L8.04847 4.10928C8.01652 4.23956 7.93856 4.35391 7.82895 4.43124C7.71326 4.51051 7.57346 4.54676 7.43382 4.53368H5.35575C4.90678 4.51608 4.46014 4.60642 4.0533 4.7971C3.64049 4.98037 3.28243 5.26782 3.01426 5.63125C2.74489 5.98868 2.56432 6.405 2.48742 6.8459C2.41425 7.27469 2.44352 7.71664 2.57523 8.13372L3.29231 10.6055C3.33004 10.723 3.33061 10.8493 3.29394 10.9671C3.25728 11.085 3.18516 11.1886 3.08743 11.264L1.14106 12.7274C0.786914 12.9909 0.497155 13.3304 0.292274 13.7226C0.100012 14.1117 0 14.5398 0 14.9738C0 15.4078 0.100012 15.836 0.292274 16.225C0.496516 16.6165 0.786691 16.9567 1.14106 17.2202L3.08743 18.6836C3.18516 18.759 3.25728 18.8627 3.29394 18.9805C3.33061 19.0983 3.33004 19.2246 3.29231 19.3422L2.48742 21.7275C2.35109 22.1576 2.31603 22.6134 2.38498 23.0593C2.45815 23.4954 2.63962 23.9081 2.91182 24.2593C3.17963 24.6251 3.53817 24.9178 3.95085 25.1081C4.33866 25.2925 4.76599 25.3773 5.19477 25.3569H7.37529C7.50727 25.3512 7.63697 25.3927 7.74114 25.4739C7.84634 25.5463 7.91969 25.6563 7.94602 25.7813L8.5753 27.991C8.70536 28.4284 8.93589 28.8293 9.24848 29.1618C9.72573 29.6588 10.3713 29.9598 11.0589 30.0058C11.7464 30.0519 12.4264 29.8396 12.9656 29.4106L14.6485 28.0788C14.7501 27.9969 14.8766 27.9522 15.0071 27.9522C15.1376 27.9522 15.2641 27.9969 15.3656 28.0788L17.0193 29.3959C17.3705 29.6915 17.7949 29.8891 18.2486 29.9667C18.414 29.9813 18.5808 29.9813 18.7462 29.9667C19.0342 29.967 19.3205 29.9226 19.5949 29.835C20.0293 29.6983 20.4228 29.4554 20.7396 29.1283C21.0565 28.8012 21.2868 28.4003 21.4096 27.9618L22.0535 25.7374C22.0798 25.6124 22.1532 25.5024 22.2584 25.43C22.3716 25.3444 22.512 25.3028 22.6535 25.313H24.7462C25.1937 25.3308 25.6393 25.2456 26.0487 25.0642C26.4522 24.8715 26.8037 24.585 27.0736 24.2285C27.3435 23.872 27.524 23.456 27.5999 23.0154C27.6757 22.5649 27.6406 22.1028 27.4975 21.669L26.7072 19.2982C26.6635 19.1802 26.6635 19.0504 26.7072 18.9324C26.7382 18.8134 26.8109 18.7095 26.9121 18.6397L28.8585 17.1763C29.2123 16.9163 29.4984 16.575 29.6926 16.1811C29.8971 15.7933 30.0027 15.361 29.9999 14.9226C29.9723 14.5221 29.8574 14.134 29.6634 13.7826ZM21.7023 12.6689L15.2339 19.1373C14.9833 19.3823 14.6909 19.5805 14.3705 19.7226C14.0456 19.8544 13.6973 19.9246 13.3461 19.9275C12.988 19.9295 12.6337 19.8546 12.3071 19.708C11.979 19.5719 11.6808 19.3731 11.429 19.1226L8.23871 15.9177C7.99896 15.6378 7.87368 15.2776 7.88791 14.9093C7.90214 14.541 8.05482 14.1916 8.31545 13.931C8.57608 13.6704 8.92546 13.5177 9.29377 13.5035C9.66208 13.4893 10.0222 13.6145 10.3022 13.8543L13.3461 16.8982L19.6388 10.5908C19.913 10.3183 20.284 10.1653 20.6706 10.1653C21.0572 10.1653 21.4281 10.3183 21.7023 10.5908C21.8489 10.7275 21.9658 10.8929 22.0457 11.0766C22.1257 11.2604 22.1669 11.4587 22.1669 11.6591C22.1669 11.8596 22.1257 12.0578 22.0457 12.2416C21.9658 12.4254 21.8489 12.5908 21.7023 12.7274V12.6689Z" fill="#EA1D25"/>
</svg>
