<svg width="151" height="40" viewBox="0 0 151 40" fill="none" xmlns="http://www.w3.org/2000/svg">
<g clip-path="url(#clip0_33_428)">
<path d="M102.186 25.9471C101.6 26.3279 100.984 26.533 100.398 26.533C99.9591 26.533 99.6075 26.3572 99.3145 26.0057C99.0509 25.6541 98.9044 25.2147 98.9044 24.6581C98.9044 23.8378 99.1095 22.7538 99.5196 21.3769L100.691 17.3926L103.445 17.1875L104.031 14.463L101.541 14.6095L103.387 8.45729L98.6407 9.42406L96.9708 14.961L95.2717 15.0196L94.715 17.8028L96.0627 17.7442L95.301 20.4394C94.9494 21.6406 94.6857 22.6952 94.5393 23.6327C93.1331 25.0682 92.0784 25.9764 91.3753 26.3865C90.6722 26.7967 89.9105 27.0018 89.1488 27.0018C87.1566 27.0018 85.9262 25.8592 85.4575 23.5448C90.6429 22.0214 93.2502 20.0293 93.2502 17.5977C93.2502 16.6895 92.928 15.9278 92.2542 15.3712C91.5804 14.8146 90.7015 14.5216 89.6175 14.5216C87.5082 14.5216 85.5746 15.547 83.8462 17.5684C82.2642 19.414 81.4146 21.4355 81.2681 23.6913C79.8326 25.0975 78.7486 26.035 78.0455 26.4744C77.3131 26.9432 76.6393 27.1775 75.9948 27.1775C75.3796 27.1775 74.8523 26.8846 74.5007 26.2693C74.1199 25.6541 73.9441 24.8631 73.9441 23.8378C73.9441 23.369 74.0027 22.5194 74.0906 21.3183C76.4636 18.7695 78.192 16.338 79.3053 14.0822C80.4185 11.8263 80.9752 9.48266 80.9752 7.08037C80.9752 6.23079 80.858 5.55697 80.6529 5.05894C80.4478 4.56091 80.1549 4.29724 79.8033 4.29724C79.7447 4.29724 79.6275 4.32654 79.4811 4.35583L74.9695 5.93782C73.4461 8.86744 72.1277 12.0607 71.0438 15.547C70.077 18.6816 69.5497 21.4355 69.4618 23.7499C67.5868 26.0057 65.8583 27.1189 64.2764 27.1189C63.1338 27.1189 62.2549 26.5037 61.669 25.2733L63.1631 17.8614C65.5947 15.6056 67.2353 13.7306 68.1142 12.2072C68.993 10.6838 69.4325 9.07251 69.4325 7.43193C69.4325 6.46515 69.286 5.70345 68.993 5.11753C68.7001 4.53161 68.3485 4.23865 67.9091 4.23865C67.8505 4.23865 67.411 4.35583 66.5908 4.56091C65.7705 4.76598 64.9795 5.00035 64.2471 5.20542C63.5147 5.43979 63.0752 5.67416 62.8701 5.93782C62.6944 6.20149 62.2256 7.16826 61.4932 8.89673C60.7608 10.6252 60.2042 12.1779 59.8233 13.6134C59.4132 15.0196 58.8859 17.334 58.2706 20.498L55.3117 23.5741V23.5448C54.3157 24.5409 53.5247 25.3026 52.968 25.7713C52.4114 26.2693 51.9134 26.5037 51.4446 26.5037C50.7122 26.5037 50.3607 26.0057 50.3607 24.9803C50.3607 24.0135 50.7708 22.2265 51.5618 19.6191L53.1145 14.4337H52.1185L48.4857 16.4258C47.8998 15.0782 46.8744 14.3751 45.3803 14.3751C44.2085 14.3751 42.8609 14.8731 41.3375 15.8692C39.8141 16.8653 38.5543 18.1543 37.5876 19.7656C36.8259 21.0253 36.3571 22.3144 36.2107 23.662C34.863 25.0096 33.8377 25.9178 33.1346 26.3279C32.4314 26.7381 31.6698 26.9432 30.9081 26.9432C28.9159 26.9432 27.6855 25.8006 27.2167 23.4862C32.4022 21.9628 35.0095 19.9707 35.0095 17.5391C35.0095 16.6309 34.6873 15.8692 34.0134 15.3126C33.3396 14.756 32.4607 14.463 31.3768 14.463C29.2675 14.463 27.3339 15.4884 25.6054 17.5098C24.0235 19.3555 23.1739 21.4062 23.0274 23.662C21.2989 25.5662 19.4826 26.533 17.5783 26.533C16.5822 26.533 15.4104 26.2693 14.0335 25.742C12.6566 25.2147 11.6019 24.8631 10.8695 24.6581C10.1371 24.4823 9.2582 24.4237 8.26213 24.4823C9.81483 22.871 10.8402 21.2304 11.4261 19.5605C11.9827 17.8906 12.3929 15.9864 12.6273 13.8185C12.8616 11.6506 13.096 10.0979 13.3011 9.1311C13.5061 8.16433 13.887 7.34404 14.4143 6.64093C14.9417 5.93782 15.7034 5.58627 16.6701 5.58627C17.4611 5.58627 18.1056 5.87923 18.5744 6.46515C19.0431 7.05108 19.2775 7.84207 19.2775 8.86744C19.2775 10.1858 18.9845 11.3283 18.3693 12.2951C17.7541 13.2619 17.051 13.7306 16.26 13.7306C15.7619 13.7306 15.3811 13.5548 15.0588 13.174C14.9124 13.672 14.8538 14.0822 14.8538 14.463C14.8538 15.1661 15.0588 15.7227 15.4983 16.1329C15.9377 16.543 16.4943 16.7481 17.256 16.7481C18.6916 16.7481 19.9513 16.045 21.0352 14.6681C22.1192 13.2619 22.6758 11.6506 22.6758 9.80491C22.6758 8.19363 22.1485 6.8753 21.0938 5.84994C20.0392 4.82457 18.7209 4.29724 17.0803 4.29724C14.7073 4.29724 12.5101 5.46909 10.4886 7.84207C8.46721 10.1858 7.35395 13.4669 7.14888 17.627C7.03169 19.6484 6.88521 21.0839 6.70944 21.9628C6.53366 22.8417 6.09422 23.7499 5.42041 24.6581C3.80912 24.9217 2.57868 25.3905 1.6998 26.0643C0.820912 26.7381 0.38147 27.5291 0.38147 28.4373C0.38147 28.8767 0.52795 29.2283 0.820912 29.5212C1.11387 29.8142 1.49472 29.9607 1.93417 29.9607C3.2232 29.9607 4.65871 29.0818 6.26999 27.3533C7.11958 27.5877 8.11565 27.9685 9.2582 28.4959C10.3715 29.0232 11.3382 29.3747 12.1292 29.6091C12.9202 29.8142 13.7405 29.9314 14.5901 29.9314C17.5197 29.9314 20.3614 28.5252 23.1739 25.6834C23.3789 26.7674 23.8184 27.7049 24.5508 28.4373C25.5469 29.4626 26.8359 29.99 28.4472 29.99C29.8827 29.99 31.201 29.6384 32.4022 28.9353C33.5447 28.2615 34.8337 27.2068 36.2692 25.8299C36.3864 26.8553 36.738 27.7635 37.2946 28.5252C38.027 29.4919 38.9059 29.99 39.9313 29.99C40.9859 29.99 42.0113 29.5798 43.0367 28.7888C44.0327 27.9978 45.1167 26.7381 46.3178 25.0389C46.2006 28.3201 47.0795 29.99 48.9545 29.99C49.6869 29.99 50.4779 29.7263 51.2982 29.1697C52.1185 28.613 53.4661 27.4705 55.341 25.6541L56.5422 24.3358C56.8644 25.244 57.0988 25.8006 57.2453 26.035C56.3078 31.1911 55.6633 35.3804 55.2824 38.6323C57.0109 38.2808 58.4757 38.0464 59.7062 37.8706C60.087 34.8531 60.5264 32.07 61.0245 29.4626C61.8155 29.8142 62.4307 29.9607 62.8701 29.9607C63.8076 29.9607 64.8916 29.5798 66.0927 28.8474C67.2646 28.115 68.4364 27.0896 69.6376 25.7713C69.784 26.8553 70.1356 27.7635 70.7215 28.4959C71.4832 29.4626 72.5086 29.9607 73.7683 29.9607C74.8523 29.9607 76.0241 29.6091 77.2252 28.906C78.4264 28.2029 79.8326 27.1189 81.4439 25.6248C81.649 26.7381 82.0884 27.6463 82.8208 28.408C83.8169 29.4333 85.1059 29.9607 86.7172 29.9607C88.1527 29.9607 89.471 29.6091 90.6722 28.906C91.8147 28.2322 93.1038 27.1775 94.5393 25.8006C94.5979 26.9725 94.9201 27.9392 95.4767 28.6716C96.1213 29.5212 96.9416 29.9607 97.9376 29.9607C98.9044 29.9607 99.959 29.6091 101.043 28.906C102.127 28.2029 103.416 27.1189 104.91 25.6248V23.5741C103.65 24.7459 102.771 25.5662 102.186 25.9471ZM77.0202 9.51195C77.8405 7.34404 78.485 6.26008 78.9244 6.26008C79.1295 6.26008 79.276 6.40656 79.4225 6.67023C79.5396 6.93389 79.6275 7.28545 79.6275 7.72489C79.6275 9.21899 79.1588 11.0061 78.2213 13.0568C77.2838 15.1368 76.0827 16.9825 74.5593 18.6523C75.3503 14.7267 76.1706 11.6799 77.0202 9.51195ZM65.5654 8.10574C66.0927 6.75812 66.62 6.05501 67.1474 6.05501C67.411 6.05501 67.6454 6.20149 67.8212 6.52375C67.997 6.846 68.0849 7.25615 68.0849 7.75418C68.0849 8.92603 67.704 10.2151 66.913 11.592C66.122 12.9689 65.0381 14.2872 63.6611 15.4884C64.3935 11.9142 65.0381 9.45336 65.5654 8.10574ZM30.3514 15.8985C31.1717 15.8985 31.5819 16.4551 31.5819 17.5977C31.5819 19.8828 30.0585 21.4648 27.041 22.3144C27.041 20.4101 27.3925 18.8574 28.0956 17.6856C28.7987 16.5137 29.5604 15.8985 30.3514 15.8985ZM45.644 23.5448C44.5893 25.5662 43.4761 26.5623 42.3042 26.5623C41.8062 26.5623 41.4254 26.3572 41.1031 25.9764C40.7808 25.5955 40.6344 25.0682 40.6344 24.4237C40.6344 22.7245 41.1617 20.8789 42.2164 18.8867C43.271 16.8653 44.3843 15.8692 45.5854 15.8692C46.0835 15.8692 46.4643 16.045 46.7866 16.4258C47.0795 16.8067 47.226 17.3047 47.226 17.9785C47.1967 19.6777 46.6694 21.5234 45.644 23.5448ZM88.5921 15.8985C89.4124 15.8985 89.8226 16.4551 89.8226 17.5977C89.8226 19.8828 88.2992 21.4648 85.2817 22.3144C85.2817 20.4101 85.6332 18.8574 86.3363 17.6856C87.0687 16.4844 87.8304 15.8985 88.5921 15.8985Z" fill="black"/>
<path d="M110.887 15.9865C111.267 16.4259 118.504 18.8282 120.994 21.7578C123.513 24.6874 124.597 27.2948 124.246 29.8142C123.894 32.3337 122.341 32.2751 121.697 33.2126C121.023 34.1208 120.086 35.2633 118.328 35.1461C115.984 34.9996 113.582 33.8278 111.853 29.7849C110.125 25.7421 110.242 21.9336 110.389 19.8242C110.506 17.6856 110.887 15.9865 110.887 15.9865Z" fill="url(#paint0_linear_33_428)"/>
<path d="M111.092 16.6602L121.931 32.8317L121.433 33.3883L111.092 16.6602Z" fill="url(#paint1_linear_33_428)"/>
<path d="M69.5791 39.1303L69.667 38.4272C72.5673 36.8745 76.1414 36.2886 79.071 34.7945C79.9499 35.1754 80.3308 34.6187 81.2683 34.6773C81.6198 34.9703 80.8288 35.3804 81.7663 35.3218C83.8463 35.5855 85.8971 35.2047 87.9478 35.0289C90.1157 34.8531 92.2543 35.0582 94.3929 34.9117C95.0667 34.8824 96.1214 33.9449 96.9417 34.4137C97.3225 35.0875 95.7113 35.1461 96.1507 35.9078C100.399 36.9038 111.033 41.1225 112.85 36.523C112.879 36.816 112.527 37.3433 113.025 37.2847C116.599 35.6734 122.693 32.2165 123.777 31.3083C124.949 30.3122 126.531 30.3415 128.054 29.99C130.837 29.3454 133.796 28.7009 136.199 27.2947C137.693 28.3201 140.798 28.8474 142.439 28.4666C144.167 28.0857 146.862 25.2147 148.298 24.1893C148.854 23.7792 149.704 23.0175 150.29 23.4569C149.88 23.7499 150.349 24.5702 149.851 24.4237C149.587 23.9256 149.06 24.5116 148.679 24.3944C147.243 25.5955 145.72 26.7088 144.255 27.8513C143.552 28.2615 144.929 28.7009 144.108 28.8474C140.3 29.6091 134.47 27.7049 132.068 30.3415C128.259 31.6598 124.656 31.9821 120.906 34.0035C118.738 35.1754 116.101 37.2847 113.846 38.3979C113.465 38.5737 112.908 38.6616 112.469 38.9253C111.912 39.2475 111.795 39.687 111.326 39.7749C110.184 40.0092 107.811 39.4233 106.287 39.2182C101.307 38.4858 95.9749 36.4644 91.2582 36.2007C89.3833 36.1128 87.1861 36.4058 85.0768 36.4937C80.5944 36.6988 77.8113 36.816 74.2079 38.0171C72.8017 38.5151 70.5166 39.8335 69.5791 39.1303Z" fill="black"/>
<path d="M138.777 0.0786133C138.279 0.898905 126.794 6.81673 123.367 12.3537C119.91 17.92 118.943 22.2851 120.203 26.3866C121.463 30.488 123.836 30.3122 125.183 31.6599C126.531 33.0075 128.376 34.6481 131.335 34.0036C135.202 33.1247 138.923 30.5466 140.769 23.3398C142.614 16.1329 141.413 9.80493 140.622 6.31869C139.831 2.83245 138.777 0.0786133 138.777 0.0786133Z" fill="black"/>
<path d="M138.571 1.30908L124.656 31.1326L125.476 31.9528L138.571 1.30908Z" fill="black"/>
</g>
<defs>
<linearGradient id="paint0_linear_33_428" x1="23.0476" y1="885.716" x2="1564.04" y2="1025.75" gradientUnits="userSpaceOnUse">
<stop/>
<stop offset="1" stop-color="#75B843"/>
</linearGradient>
<linearGradient id="paint1_linear_33_428" x1="-5.98667" y1="744.968" x2="1323.53" y2="840.09" gradientUnits="userSpaceOnUse">
<stop/>
<stop offset="1" stop-color="#4B9744"/>
</linearGradient>
<clipPath id="clip0_33_428">
<rect width="150" height="39.8428" fill="white" transform="translate(0.321045 0.0786133)"/>
</clipPath>
</defs>
</svg>
