<svg width="49" height="48" viewBox="0 0 49 48" fill="none" xmlns="http://www.w3.org/2000/svg">
<path d="M47 26C47 13.8501 37.1499 4 25 4C13.1647 4 3.51553 13.3471 3.02273 25.0613C3.01687 25.2051 3.0154 25.351 3.01247 25.4955C3.0088 25.6641 3 25.8313 3 26V26.0741C3 38.1836 12.8501 48 25 48C37.1499 48 47 38.1836 47 26.0741L46.9985 26.0381L47 26ZM29.3927 46.0574C29.0077 45.8484 28.6381 45.5059 28.4877 45.0395C28.2157 44.1947 28.4261 43.5391 28.7385 42.7765C28.9879 42.1656 28.6527 41.4601 28.8185 40.8207C29.1419 39.5762 29.532 38.2276 29.4117 36.8907C29.3369 36.0701 29.1551 36.0327 28.5479 35.559C27.9077 35.0567 27.9077 34.3461 27.4794 33.711C27.0915 33.1339 28.1357 30.9412 27.8446 30.8077C27.5183 30.6574 26.7761 30.8539 26.5415 30.5423C26.2892 30.2064 26.1132 29.8097 25.7663 29.5493C25.5427 29.3814 24.5534 28.8197 24.2894 28.8593C22.9599 29.058 21.5196 27.7615 20.6711 26.9159C20.0867 26.3359 19.8432 25.6854 19.4149 25.0144C19.0527 24.4461 18.5041 24.3969 18.235 23.6922C17.9527 22.9559 18.1206 22.0129 18.0348 21.2385C17.9417 20.4061 17.5281 20.1407 17.0111 19.5041C15.9052 18.1379 15.4982 16.0993 13.4001 16.0993C12.273 16.0993 12.3529 18.5545 11.4451 18.2252C10.4184 17.8534 8.83 19.6119 8.85273 19.3751C8.973 18.1475 10.2336 17.5505 10.3568 17.1846C10.7594 15.9834 8.55793 16.2709 8.84027 15.2691C8.97813 14.7763 10.3788 14.4177 10.0891 14.1237C10.0019 14.0342 8.93047 13.2825 8.98327 13.2451C9.182 13.1058 10.0459 13.5473 9.85813 12.9738C9.79507 12.7831 9.69313 12.6079 9.59633 12.4311C10.0416 11.9255 10.5115 11.4421 11.0043 10.9828C11.7479 10.9219 12.5194 10.9681 12.7988 11.0224C14.5705 11.3715 15.1865 12.2683 16.9583 11.6047C17.8104 11.2864 20.9513 11.8386 21.4015 12.7318C21.6465 13.2202 22.5587 12.4363 22.9144 12.3835C23.2957 12.3263 24.1574 12.9137 24.4199 12.5536C25.1115 11.6069 23.977 11.2138 25.3168 11.9427C26.2151 12.4319 27.9707 10.281 27.4149 12.8088C27.0137 14.6311 25.5397 14.6715 24.4588 15.8587C23.3947 17.0277 26.5642 17.3459 26.6456 18.4019C26.8803 21.4423 28.5017 18.1541 28.0675 17.0731C27.2279 14.9795 29.0231 15.5544 29.7461 16.8847C30.1473 17.6231 30.4523 17.0013 30.9437 16.7439C31.3419 16.5363 31.4482 17.6605 31.534 17.8563C31.8163 18.5068 32.744 18.7011 32.5871 19.5386C32.4125 20.4619 31.7562 20.1847 31.1145 20.3409C30.3981 20.5147 31.2304 21.1175 31.1263 21.3375C31.0133 21.578 30.1495 21.6777 29.9192 21.8141C29.2416 22.2131 29.6559 22.9911 29.1257 23.4091C28.762 23.6966 28.3953 23.5096 28.3249 24.0479C28.2421 24.6822 27.0731 24.8861 27.2249 25.4925C27.2667 25.659 27.6033 26.9027 27.3914 26.9687C27.2939 27.0003 26.5231 25.8871 26.3127 25.7756C25.8961 25.5549 24.0027 25.7353 23.7592 26.9885C23.6015 27.7989 24.9054 29.0785 25.2376 27.9624C25.649 26.5889 25.8448 28.7625 25.7458 28.8475C25.9423 29.0191 27.0922 28.5652 26.7512 29.3609C26.6067 29.6975 26.8927 30.5753 27.4031 30.3047C27.6165 30.1917 28.1665 30.532 28.2626 30.3494C28.4007 30.1391 28.5873 29.965 28.8067 29.8419C29.3208 29.5413 30.0901 29.8236 30.6533 29.8566C30.9972 29.8764 33.8161 31.4142 33.8315 31.7229C33.8931 32.8779 36.0242 32.7276 36.3513 33.1405C37.2305 34.2595 36.9599 33.6912 36.3183 35.1249C35.9949 35.8465 36.2765 36.7316 35.4933 37.2545C35.1163 37.5053 34.6565 37.3799 34.3214 37.7348C34.0193 38.0553 34.1381 38.4381 33.9547 38.8084C33.734 39.2491 30.7677 41.9148 30.5719 42.5594C30.4743 42.8828 29.5892 43.1644 30.3357 43.4746C30.7699 43.6022 29.3743 44.9215 30.0453 45.4678C30.2089 45.6005 30.3159 45.7127 30.3966 45.8132C30.0615 45.9027 29.7293 45.9841 29.3927 46.0574ZM27.6356 5.64047C27.607 5.7468 27.6503 5.8722 27.8343 5.99467C28.2494 6.26967 27.7155 6.88053 27.1428 6.48673C26.5715 6.09293 25.2867 6.66347 25.3755 6.959C25.4627 7.25453 25.8595 7.37187 26.4725 7.13647C27.0841 6.90033 27.3364 7.17167 27.4391 7.4518C27.5095 7.64173 27.4391 7.74733 27.4193 8.00327C27.4009 8.2592 26.6889 8.08173 26.0971 8.12207C25.5038 8.16167 24.8724 8.00327 24.8907 7.66813C24.9105 7.33373 24.2593 6.72287 23.8707 6.46767C23.4827 6.21247 24.0408 5.661 24.5556 6.07387C25.0682 6.48747 25.0887 5.9954 25.6813 5.83847C26.0179 5.749 25.8829 5.6148 25.7685 5.4872C26.3992 5.5092 27.0211 5.562 27.6356 5.64047ZM30.2147 12.1444C30.6584 12.2647 31.4291 12.8257 31.4291 13.0911C31.4291 13.3573 31.0793 13.6903 30.9246 13.6521C29.8077 13.3801 28.8661 12.2779 28.3477 11.6743C27.4427 10.622 27.4999 11.524 26.0663 11.0686C25.6996 10.9513 25.1181 9.81387 25.5031 9.25287C25.8881 8.69187 26.3325 8.60313 26.6874 8.752C27.0423 8.89867 28.0793 8.279 28.3176 9.01747C28.5537 9.75593 29.2057 10.6983 29.7989 10.9505C30.3929 11.2013 29.7696 12.0241 30.2147 12.1444ZM30.5704 15.5713C30.7479 15.9255 29.5034 15.1577 29.2071 14.8035C28.9123 14.45 28.4665 13.6514 28.8236 13.2972C29.1785 12.9437 29.9749 14.0342 30.3937 14.2725C31.2216 14.7455 30.3929 15.2178 30.5704 15.5713ZM24.2681 10.2069C24.3539 10.0889 24.5358 10.3844 24.6979 10.6799C24.8599 10.9755 24.6363 11.392 24.2681 11.3289C23.9 11.2673 24.0621 10.4959 24.2681 10.2069ZM24.2681 7.23547C24.2681 7.23547 24.615 8.08173 24.2681 7.94387C23.9213 7.806 23.9044 7.4518 24.2681 7.23547ZM24.3385 9.91213C24.2395 9.67673 24.2168 8.70947 24.4573 8.41613C24.8123 7.98347 25.3857 8.82973 25 9.16413C24.615 9.49927 24.4368 10.149 24.3385 9.91213ZM19.8821 10.9498C19.2375 10.9036 19.2235 10.3463 19.1341 10.0507C19.0446 9.7552 18.5107 10.6117 17.971 10.0507C17.4313 9.48973 18.0971 8.752 17.9783 8.30833C17.8595 7.8654 19.2514 8.30833 19.4597 8.30833C19.6679 8.30833 20.2304 9.22353 20.3778 9.20813C20.5267 9.19347 21.326 9.93193 21.326 9.6364C21.326 9.3416 21.4477 8.83853 22.008 8.77987C22.8675 8.69113 22.0967 9.72513 22.0667 10.1277C22.0381 10.5303 22.7201 11.2307 22.9701 11.5262C23.2224 11.8217 22.3343 12.0293 22.1855 11.8511C22.0381 11.6736 21.6523 11.8511 21.326 12.0872C21.0011 12.3233 20.1116 11.7623 19.6973 11.5849C19.2822 11.4081 20.5267 10.9953 19.8821 10.9498ZM22.1855 6.2902C22.7582 6.48747 23.0838 6.6642 23.3654 6.2902C23.6375 5.9294 23.845 7.07707 23.6477 7.39167C23.4497 7.70773 23.075 7.62927 23.0149 7.39167C22.9562 7.157 21.6127 6.09293 22.1855 6.2902ZM23.0149 9.85347C22.8183 9.5968 22.7985 9.302 23.0149 9.08567C23.2327 8.86933 23.1623 8.6134 23.5495 8.53493C23.7401 8.49533 23.7658 8.79013 23.7658 9.06587C23.7658 9.3416 24.0034 9.6958 23.7658 10.1277C23.5289 10.5597 23.2129 10.1087 23.0149 9.85347ZM24.6319 5.4762C24.6231 5.53047 24.5871 5.56273 24.4969 5.55393C24.4349 5.54342 24.3759 5.51965 24.3239 5.48427C24.4273 5.4806 24.5285 5.47767 24.6319 5.4762ZM20.1519 6.31C20.6059 6.31 20.5472 6.61653 20.9227 6.83727C21.2981 7.05727 21.1001 5.69913 21.3568 6.211C21.6135 6.72213 22.3754 7.43127 22.0087 7.5684C21.6934 7.68793 20.3705 8.19833 20.2517 8.11033C20.1329 8.02233 19.9752 7.64833 19.6584 7.5684C19.3416 7.48993 19.0065 6.74193 18.7887 6.76173C18.7058 6.76907 18.6985 6.6268 18.7527 6.4376C19.1336 6.31498 19.518 6.20371 19.9055 6.10393C19.9481 6.2198 20.0126 6.31 20.1519 6.31ZM30.0659 28.3283C29.5929 28.8167 28.7781 27.9881 28.2157 28.0174C27.6532 28.0467 27.3709 27.4564 26.8825 27.5158C26.3926 27.5737 27.0159 26.8947 27.6972 27.2503C28.377 27.6045 30.4516 27.9287 30.0659 28.3283ZM39.5479 11.5101C39.41 11.6861 39.2531 11.8093 39.1027 11.9391C38.6591 12.3233 37.8297 12.294 37.7109 12.5595C37.5921 12.8249 37.2958 13.6514 36.2589 13.6551C35.2219 13.658 35.5182 15.2178 35.4295 15.6629C35.3407 16.1081 35.1046 16.6346 34.8076 16.2503C34.5113 15.8668 34.3925 16.0135 33.4759 14.8915C32.5592 13.7695 32.9112 13.1498 33.2082 12.8249C33.5045 12.5008 33.6233 11.7323 33.2082 11.8503C32.7931 11.9684 32.5563 11.7022 32.645 11.3348C32.7337 10.9674 33.1781 10.699 32.645 10.3067C32.1119 9.91507 32.4074 8.51367 31.9931 7.23473C31.578 5.95507 31.0148 6.86073 30.0967 6.90987C29.1785 6.959 29.0297 6.26967 29.4447 5.95433C33.2747 6.80129 36.7812 8.72951 39.5479 11.5101Z" fill="#B0B0B0"/>
<path d="M45.7881 22.2014C46.2042 22.2159 46.6191 22.1521 47.0081 22.0139C47.397 21.8757 47.752 21.666 48.0519 21.3972C48.3517 21.1284 48.5902 20.8061 48.7531 20.4495C48.916 20.093 49 19.7096 49 19.3221C49 18.9347 48.916 18.5513 48.7531 18.1947C48.5902 17.8382 48.3517 17.5159 48.0519 17.2471C47.752 16.9783 47.397 16.7685 47.0081 16.6303C46.6191 16.4922 46.2042 16.4284 45.7881 16.4428C45.7213 16.4428 45.6588 16.4549 45.5898 16.4589L44.5505 12.6466C44.8941 12.4066 45.18 12.1024 45.3899 11.7535C45.5998 11.4047 45.729 11.0188 45.7693 10.6208C45.8096 10.2227 45.76 9.82121 45.6237 9.44203C45.4875 9.06284 45.2676 8.71434 44.9781 8.41887C44.6887 8.1234 44.3361 7.88748 43.9429 7.72624C43.5497 7.56501 43.1247 7.48202 42.695 7.48259C42.2654 7.48317 41.8406 7.56729 41.4479 7.72958C41.0553 7.89186 40.7034 8.12872 40.4148 8.42497L29.8709 3.86425C29.981 3.57269 30.0393 3.26636 30.0434 2.95732C30.0543 2.57268 29.9823 2.1899 29.8317 1.83157C29.681 1.47324 29.4548 1.14662 29.1663 0.870972C28.8778 0.595328 28.5328 0.376248 28.1519 0.226658C27.7709 0.0770684 27.3616 0 26.9481 0C26.5346 0 26.1253 0.0770684 25.7444 0.226658C25.3634 0.376248 25.0185 0.595328 24.73 0.870972C24.4415 1.14662 24.2152 1.47324 24.0646 1.83157C23.9139 2.1899 23.8419 2.57268 23.8529 2.95732C23.8581 3.05543 23.8689 3.15321 23.8852 3.25027L17.1707 5.16645C16.707 4.63034 16.0517 4.26716 15.3243 4.14315C14.5969 4.01913 13.8458 4.14254 13.208 4.49086C12.5702 4.83918 12.0881 5.38922 11.8498 6.04068C11.6114 6.69213 11.6326 7.4016 11.9095 8.03972L5.59179 13.2887C5.11524 13.0171 4.56792 12.8721 4.00912 12.8693C3.26946 12.866 2.55313 13.11 1.99063 13.557C1.42812 14.004 1.05688 14.6241 0.944525 15.3044C0.832171 15.9847 0.986182 16.6799 1.3785 17.2635C1.77082 17.847 2.37535 18.2799 3.08195 18.4834L2.66364 22.2275C2.19212 22.2883 1.7421 22.4498 1.34874 22.6993C0.955381 22.9488 0.629338 23.2795 0.396083 23.6656C0.162827 24.0518 0.0286773 24.4829 0.00411379 24.9253C-0.0204498 25.3677 0.0652383 25.8093 0.254483 26.2158C0.443728 26.6223 0.731405 26.9825 1.09504 27.2684C1.45867 27.5543 1.88841 27.758 2.35068 27.8638C2.81295 27.9695 3.29524 27.9743 3.75986 27.8779C4.22447 27.7815 4.65884 27.5864 5.02902 27.3079L7.11193 28.1606L7.10546 28.2208C7.10855 28.9383 7.39961 29.6289 7.92157 30.157C8.44352 30.6852 9.15869 31.0128 9.9268 31.0756C10.6949 31.1384 11.4605 30.9319 12.0734 30.4965C12.6864 30.0612 13.1024 29.4285 13.2399 28.7225H15.6204C15.8072 29.3485 16.2169 29.897 16.7823 30.2782C17.3477 30.6594 18.0354 30.8508 18.7329 30.8209C19.4304 30.7911 20.0964 30.5419 20.6218 30.114C21.1473 29.6861 21.5011 29.105 21.6255 28.4656L28.3249 28.6703C28.8153 29.064 29.4285 29.3009 30.0744 29.346C30.7203 29.3912 31.3647 29.2422 31.9128 28.9211C35.6948 30.8413 38.8847 33.6314 41.1781 37.0252C41.027 37.3671 40.9486 37.7331 40.9474 38.1027C40.9445 38.5951 41.0772 39.08 41.3329 39.5111C41.5886 39.9422 41.9588 40.3051 42.4081 40.5652C42.8574 40.8253 43.3708 40.9739 43.8994 40.9969C44.428 41.0198 44.9541 40.9163 45.4275 40.6963C45.9008 40.4762 46.3057 40.1469 46.6034 39.7399C46.9012 39.3328 47.0818 38.8615 47.1281 38.371C47.1745 37.8805 47.0849 37.3871 46.8681 36.938C46.6513 36.4888 46.3143 36.0988 45.8895 35.8053C44.8062 34.3387 44.0456 32.687 43.6513 30.9456C44.1822 30.7888 44.6571 30.5003 45.025 30.1112C45.393 29.7222 45.6401 29.2472 45.7399 28.7372C45.8396 28.2273 45.7882 27.7018 45.5912 27.217C45.3942 26.7322 45.059 26.3065 44.6216 25.9856L45.7881 22.2014ZM47.0064 19.3221C47.006 19.5458 46.9343 19.7643 46.8005 19.9501C46.6668 20.1359 46.4768 20.2806 46.2547 20.366C46.0326 20.4514 45.7882 20.4737 45.5525 20.4299C45.3168 20.3862 45.1003 20.2785 44.9304 20.1203C44.7604 19.9622 44.6446 19.7607 44.5976 19.5414C44.5507 19.3221 44.5746 19.0947 44.6663 18.888C44.7581 18.6813 44.9137 18.5045 45.1133 18.38C45.313 18.2555 45.5478 18.1889 45.7881 18.1885C46.1112 18.1885 46.4211 18.3079 46.6496 18.5205C46.878 18.7331 47.0064 19.0215 47.0064 19.3221ZM44.5397 16.6896C44.0345 16.8997 43.5992 17.2321 43.2791 17.652C42.959 18.072 42.7658 18.5642 42.7198 19.0773H40.3027C40.2673 18.6853 40.1454 18.3043 39.9447 17.958C39.744 17.6118 39.4688 17.3077 39.1362 17.0648L42.17 13.1863C42.6346 13.2735 43.1156 13.2459 43.5651 13.1061L44.5397 16.6896ZM39.6364 27.8597L33.3877 26.3709C33.3624 25.722 33.0999 25.1005 32.6438 24.6092L35.1666 21.449C35.5538 21.7883 36.0319 22.0244 36.5508 22.1328C37.0697 22.2412 37.6104 22.2177 38.1163 22.065L40.8159 25.9455C40.4931 26.1762 40.2226 26.4641 40.0202 26.7927C39.8177 27.1213 39.6873 27.4839 39.6364 27.8597ZM17.0823 8.87442L25.8819 13.1602C25.6939 13.6689 25.6811 14.2195 25.8452 14.7353L20.1959 17.438C19.9083 17.1266 19.5521 16.8763 19.1514 16.7043C18.7507 16.5322 18.3149 16.4424 17.8736 16.4408C17.8478 16.4408 17.8241 16.4468 17.7982 16.4489L15.7649 9.68704C16.2724 9.52729 16.7265 9.24721 17.0823 8.87442ZM41.1221 12.8252L38.1745 16.5893C37.6773 16.4295 37.1434 16.3958 36.6276 16.4917C36.1118 16.5877 35.6328 16.8097 35.2399 17.1351L31.8093 14.7273C31.9273 14.3839 31.9532 14.0188 31.8848 13.6639L39.8779 11.537C40.1421 12.0732 40.5762 12.5213 41.1221 12.8212M37.2322 20.4498C36.9918 20.4494 36.7569 20.3827 36.5572 20.2581C36.3575 20.1335 36.2019 19.9566 36.1102 19.7498C36.0185 19.543 35.9947 19.3155 36.0419 19.0961C36.0891 18.8767 36.2051 18.6753 36.3752 18.5172C36.5454 18.3591 36.7621 18.2516 36.9979 18.2081C37.2338 18.1646 37.4782 18.1871 37.7003 18.2728C37.9224 18.3585 38.1122 18.5036 38.2457 18.6896C38.3792 18.8757 38.4505 19.0944 38.4505 19.3181C38.4499 19.6184 38.3213 19.9063 38.0929 20.1184C37.8645 20.3306 37.555 20.4498 37.2322 20.4498ZM28.8251 15.1326C28.5848 15.1322 28.3499 15.0656 28.1503 14.9411C27.9506 14.8166 27.7951 14.6398 27.7033 14.4331C27.6115 14.2264 27.5876 13.999 27.6346 13.7797C27.6816 13.5604 27.7974 13.3589 27.9673 13.2008C28.1373 13.0426 28.3538 12.9349 28.5895 12.8912C28.8252 12.8474 29.0695 12.8697 29.2917 12.9551C29.5138 13.0405 29.7037 13.1852 29.8375 13.371C29.9713 13.5568 30.043 13.7753 30.0434 13.999C30.0428 14.2993 29.9142 14.5871 29.6858 14.7993C29.4574 15.0114 29.1478 15.1326 28.8251 15.1326ZM17.8715 18.1824C18.1119 18.1825 18.347 18.2488 18.5469 18.373C18.7468 18.4973 18.9027 18.6739 18.9948 18.8806C19.0869 19.0872 19.1111 19.3147 19.0644 19.5341C19.0176 19.7536 18.902 19.9552 18.7322 20.1136C18.5623 20.2719 18.3458 20.3799 18.1101 20.4238C17.8743 20.4677 17.6299 20.4455 17.4076 20.3602C17.1853 20.2748 16.9953 20.1301 16.8614 19.9443C16.7275 19.7584 16.6558 19.5398 16.6554 19.3161C16.6554 19.0154 16.7837 18.7271 17.0122 18.5145C17.2407 18.3019 17.5505 18.1824 17.8736 18.1824M20.97 19.3161C20.968 18.9651 20.8964 18.6175 20.7587 18.2908L26.2959 15.6423C26.5802 16.0226 26.959 16.3333 27.4001 16.5482C27.8412 16.763 28.3316 16.8756 28.8294 16.8762L28.8812 16.8722L27.9454 24.2159L19.5232 25.2071C19.3544 25.1571 19.1812 25.1209 19.0057 25.0988L18.3653 22.1493C19.09 22.0412 19.7498 21.697 20.227 21.178C20.7041 20.659 20.9675 19.9991 20.97 19.3161ZM18.5895 26.8123C18.8299 26.8127 19.0647 26.8793 19.2643 27.0038C19.464 27.1283 19.6195 27.3051 19.7113 27.5118C19.8031 27.7185 19.827 27.9459 19.78 28.1652C19.733 28.3845 19.6172 28.586 19.4473 28.7441C19.2773 28.9023 19.0608 29.01 18.8251 29.0538C18.5894 29.0975 18.3451 29.0752 18.123 28.9898C17.9008 28.9044 17.7109 28.7597 17.5771 28.5739C17.4433 28.3881 17.3717 28.1696 17.3712 27.946C17.3712 27.6453 17.4996 27.3569 17.7281 27.1443C17.9565 26.9317 18.2664 26.8123 18.5895 26.8123ZM20.9096 26.0599L27.4926 25.2874C27.3082 25.6557 27.2118 26.0568 27.2099 26.4631C27.2081 26.8694 27.3008 27.2712 27.4818 27.641L21.6319 27.4644C21.5357 26.943 21.2856 26.4567 20.9096 26.0599ZM29.9938 16.6656C30.5389 16.4576 31.0093 16.1096 31.35 15.6623L34.5542 17.9096C34.2945 18.3183 34.1522 18.7824 34.1409 19.2571C34.1296 19.7318 34.2496 20.2012 34.4895 20.6203L31.8093 23.9711C31.3986 23.7498 30.9375 23.6218 30.4636 23.5974C29.9896 23.573 29.5162 23.6529 29.0817 23.8307L29.9938 16.6656ZM42.6939 9.22555C42.9345 9.22555 43.1696 9.29192 43.3696 9.41627C43.5696 9.54062 43.7254 9.71735 43.8175 9.92414C43.9095 10.1309 43.9336 10.3585 43.8867 10.578C43.8398 10.7975 43.7239 10.9991 43.5539 11.1574C43.3838 11.3157 43.1671 11.4234 42.9312 11.4671C42.6953 11.5108 42.4508 11.4884 42.2286 11.4027C42.0063 11.3171 41.8164 11.172 41.6828 10.9859C41.5492 10.7998 41.4778 10.581 41.4778 10.3572C41.4784 10.0569 41.607 9.76905 41.8354 9.55688C42.0638 9.34471 42.3712 9.22555 42.6939 9.22555ZM39.8326 9.27772C39.6812 9.62022 39.6029 9.98685 39.6019 10.3572C39.6019 10.4274 39.6192 10.4936 39.6235 10.5639L31.5765 12.7028C31.3199 12.2291 30.9275 11.8306 30.4426 11.5516C29.9578 11.2726 29.3995 11.1238 28.8294 11.1217C28.7367 11.1217 28.6461 11.1417 28.5556 11.1478L27.4322 5.79047C28.1915 5.67855 28.8783 5.30637 29.3577 4.7471L39.8326 9.27772ZM26.947 1.82166C27.1875 1.82166 27.4225 1.88798 27.6224 2.01224C27.8224 2.1365 27.9783 2.31312 28.0704 2.51979C28.1625 2.72645 28.1867 2.95389 28.1399 3.17335C28.0932 3.39281 27.9776 3.59446 27.8077 3.7528C27.6379 3.91114 27.4214 4.01908 27.1856 4.06297C26.9499 4.10686 26.7054 4.08474 26.4831 3.9994C26.2609 3.91405 26.0708 3.76932 25.9369 3.58348C25.803 3.39765 25.7314 3.17905 25.7309 2.95532C25.7309 2.655 25.859 2.36695 26.087 2.15441C26.315 1.94187 26.6243 1.82219 26.947 1.82166ZM24.1784 4.21338C24.3848 4.60897 24.6855 4.95545 25.0577 5.22634C25.4299 5.49724 25.8638 5.68539 26.326 5.77642L27.5077 11.4046C27.0613 11.6033 26.6724 11.8984 26.3735 12.2654L17.6516 8.01966C17.9282 7.39585 17.9459 6.69861 17.7011 6.06335L24.1784 4.21338ZM14.7773 5.83461C15.0177 5.83461 15.2528 5.90093 15.4527 6.02519C15.6527 6.14945 15.8085 6.32607 15.9006 6.53273C15.9927 6.7394 16.017 6.96683 15.9702 7.1863C15.9235 7.40576 15.8078 7.60741 15.638 7.76575C15.4681 7.92409 15.2516 8.03203 15.0159 8.07592C14.7801 8.11981 14.5357 8.09769 14.3134 8.01234C14.0912 7.927 13.9011 7.78227 13.7672 7.59643C13.6333 7.4106 13.5616 7.192 13.5612 6.96827C13.5612 6.66795 13.6893 6.3799 13.9173 6.16736C14.1453 5.95481 14.4546 5.83514 14.7773 5.83461ZM14.6911 9.83953L16.7395 16.6455C16.1476 16.8634 15.6418 17.2451 15.2905 17.739L7.09899 15.7947L7.10546 15.7486C7.10186 15.0924 6.85511 14.4574 6.40684 13.9508L12.496 8.89649C12.7742 9.1833 13.1119 9.41473 13.4888 9.5768C13.8656 9.73888 14.2739 9.82825 14.6889 9.83953M4.32609 25.0626C4.32609 25.2865 4.25476 25.5053 4.12114 25.6914C3.98751 25.8775 3.79758 26.0225 3.57536 26.1082C3.35315 26.1938 3.10863 26.2162 2.87273 26.1726C2.63682 26.1289 2.42013 26.0211 2.25006 25.8628C2.07998 25.7046 1.96416 25.5029 1.91723 25.2834C1.87031 25.0639 1.89439 24.8364 1.98644 24.6296C2.07848 24.4228 2.23435 24.2461 2.43434 24.1217C2.63433 23.9974 2.86945 23.931 3.10998 23.931C3.43233 23.9315 3.74133 24.0509 3.96927 24.263C4.19721 24.4751 4.32552 24.7627 4.32609 25.0626ZM3.74391 22.2436L4.15143 18.6158C4.74941 18.5897 5.32635 18.4024 5.8121 18.0769C6.29786 17.7513 6.67153 17.3014 6.88768 16.7819L14.8614 18.674C14.7589 19.0524 14.7485 19.4472 14.8312 19.8298L5.46673 23.2207C5.02547 22.7249 4.41796 22.3815 3.74175 22.2456M4.00481 14.6169C4.24524 14.6169 4.48028 14.6833 4.68022 14.8075C4.88016 14.9318 5.03603 15.1084 5.12814 15.3151C5.22025 15.5217 5.24446 15.7492 5.19771 15.9686C5.15096 16.1881 5.03535 16.3897 4.86549 16.5481C4.69563 16.7064 4.47914 16.8144 4.24338 16.8583C4.00762 16.9021 3.76317 16.88 3.54092 16.7947C3.31866 16.7093 3.12859 16.5646 2.9947 16.3788C2.86081 16.1929 2.78913 15.9743 2.7887 15.7506C2.7887 15.4503 2.91676 15.1622 3.14476 14.9497C3.37276 14.7372 3.68208 14.6175 4.00481 14.6169ZM5.76645 26.5153C6.00252 26.1575 6.14741 25.754 6.19002 25.336C6.23263 24.9179 6.17182 24.4964 6.01226 24.1036L15.2107 20.7728C15.4189 21.1038 15.6962 21.3927 16.0261 21.6225C16.356 21.8523 16.732 22.0185 17.1319 22.1111L13.1105 27.2938C12.9091 26.737 12.5286 26.2512 12.0207 25.9022C11.5128 25.5531 10.9019 25.3577 10.2707 25.3424C9.63953 25.3271 9.01851 25.4926 8.49172 25.8165C7.96493 26.1404 7.55779 26.6071 7.3254 27.1534L5.76645 26.5153ZM10.1953 29.3545C9.95499 29.3541 9.72017 29.2874 9.52051 29.1629C9.32085 29.0384 9.16531 28.8617 9.07354 28.655C8.98176 28.4483 8.95786 28.2209 9.00485 28.0016C9.05184 27.7822 9.16762 27.5808 9.33757 27.4226C9.50751 27.2645 9.72401 27.1568 9.95971 27.113C10.1954 27.0693 10.4397 27.0916 10.6619 27.177C10.884 27.2624 11.074 27.4071 11.2077 27.5929C11.3415 27.7787 11.4132 27.9972 11.4136 28.2208C11.4136 28.5215 11.2852 28.8099 11.0568 29.0225C10.8283 29.2351 10.5184 29.3545 10.1953 29.3545ZM17.5416 22.7211L17.9276 25.1329C17.2799 25.2662 16.6955 25.5898 16.2607 26.0559C15.8258 26.522 15.5635 27.1058 15.5126 27.7212H14.0032L17.5416 22.7211ZM30.2978 27.6069C30.0575 27.6065 29.8226 27.5398 29.623 27.4153C29.4233 27.2908 29.2678 27.114 29.176 26.9073C29.0842 26.7006 29.0603 26.4733 29.1073 26.2539C29.1543 26.0346 29.2701 25.8332 29.4401 25.675C29.61 25.5169 29.8265 25.4091 30.0622 25.3654C30.2979 25.3217 30.5422 25.3439 30.7644 25.4293C30.9865 25.5147 31.1764 25.6595 31.3102 25.8452C31.444 26.031 31.5157 26.2496 31.5161 26.4732C31.5161 26.7739 31.3877 27.0622 31.1593 27.2748C30.9308 27.4874 30.6209 27.6069 30.2978 27.6069ZM44.0394 39.2344C43.7989 39.2344 43.5638 39.168 43.3638 39.0437C43.1638 38.9193 43.0079 38.7426 42.9159 38.5358C42.8238 38.329 42.7998 38.1015 42.8467 37.8819C42.8936 37.6624 43.0094 37.4608 43.1795 37.3025C43.3496 37.1443 43.5663 37.0365 43.8022 36.9928C44.0381 36.9492 44.2826 36.9716 44.5048 37.0572C44.727 37.1429 44.917 37.2879 45.0506 37.474C45.1842 37.6601 45.2555 37.8789 45.2555 38.1027C45.255 38.4027 45.1267 38.6902 44.8987 38.9023C44.6708 39.1144 44.3618 39.2338 44.0394 39.2344ZM44.0394 35.2214C43.6284 35.2215 43.2215 35.298 42.8427 35.4465C42.4639 35.595 42.1208 35.8125 41.8336 36.0862C39.538 32.8145 36.4228 30.1105 32.7559 28.2068C32.9354 27.9878 33.0799 27.7459 33.185 27.4885L39.7033 28.9392C39.8705 29.5419 40.2435 30.0778 40.7661 30.4663C41.2886 30.8549 41.9326 31.0752 42.6012 31.0941C42.8692 32.5637 43.4364 33.972 44.2723 35.2435C44.1925 35.2375 44.1192 35.2214 44.0394 35.2214ZM42.6896 29.3565C42.4492 29.3565 42.2142 29.2902 42.0142 29.1659C41.8143 29.0417 41.6584 28.865 41.5663 28.6584C41.4742 28.4517 41.45 28.2243 41.4967 28.0048C41.5435 27.7854 41.6591 27.5837 41.829 27.4254C41.9988 27.267 42.2153 27.1591 42.4511 27.1152C42.6868 27.0713 42.9313 27.0934 43.1535 27.1788C43.3758 27.2641 43.5659 27.4088 43.6997 27.5947C43.8336 27.7805 43.9053 27.9991 43.9057 28.2228C43.9057 28.5232 43.7777 28.8112 43.5497 29.0238C43.3217 29.2363 43.0124 29.356 42.6896 29.3565ZM43.647 25.4981C43.0416 25.2942 42.3794 25.2899 41.7711 25.486L39.078 21.6175C39.623 21.2363 40.0172 20.698 40.1992 20.0866H42.8147C42.9454 20.5255 43.1861 20.9294 43.5171 21.2649C43.848 21.6005 44.2598 21.8581 44.7186 22.0168L43.647 25.4981Z" fill="#EA1D25"/>
</svg>
