<svg width="51" height="30" viewBox="0 0 51 30" fill="none" xmlns="http://www.w3.org/2000/svg">
<g clip-path="url(#clip0_33_440)">
<path d="M14.6853 10.8868C14.6853 11.4994 14.7517 11.9961 14.8675 12.3603C15.0145 12.77 15.1915 13.1684 15.3971 13.5521C15.4799 13.6845 15.5129 13.8169 15.5129 13.9329C15.5129 14.0984 15.4137 14.264 15.1985 14.4296L14.1556 15.1248C14.0066 15.2242 13.8576 15.2738 13.725 15.2738C13.5596 15.2738 13.394 15.191 13.2284 15.042C13.0054 14.8023 12.8059 14.5418 12.6326 14.264C12.467 13.9827 12.3014 13.6679 12.1194 13.2873C10.8281 14.8102 9.20563 15.5718 7.25235 15.5718C5.86189 15.5718 4.75264 15.1744 3.94141 14.38C3.13037 13.5851 2.71655 12.5257 2.71655 11.2014C2.71655 9.79437 3.21317 8.65213 4.22302 7.79129C5.23266 6.93045 6.57372 6.50004 8.27879 6.50004C8.84161 6.50004 9.42104 6.54964 10.0335 6.63244C10.6461 6.71524 11.2751 6.84765 11.9373 6.99666V5.78821C11.9373 4.52996 11.6723 3.65272 11.1591 3.13949C10.6295 2.62627 9.73545 2.37787 8.4608 2.37787C7.88137 2.37787 7.28555 2.44426 6.67292 2.59327C6.06049 2.74208 5.46447 2.92429 4.88505 3.15609C4.62023 3.2719 4.42163 3.3381 4.30562 3.3713C4.18982 3.4045 4.10701 3.42091 4.04081 3.42091C3.809 3.42091 3.6932 3.2553 3.6932 2.90769V2.09645C3.6932 1.83164 3.72639 1.63303 3.809 1.51723C3.8918 1.40122 4.04081 1.28542 4.27262 1.16961C4.85204 0.871598 5.54727 0.62319 6.35831 0.424581C7.16974 0.209372 8.03057 0.110165 8.94101 0.110165C10.9111 0.110165 12.3514 0.556987 13.2784 1.45102C14.1888 2.34486 14.6525 3.70232 14.6525 5.52339V10.8868H14.6853ZM7.96418 13.4031C8.5106 13.4031 9.07342 13.3039 9.66925 13.1051C10.2653 12.9065 10.7951 12.5423 11.2419 12.0457C11.5069 11.7313 11.7055 11.3836 11.8047 10.9862C11.9041 10.589 11.9703 10.1088 11.9703 9.54597V8.85074C11.4683 8.72854 10.9598 8.63459 10.4473 8.56932C9.93117 8.50377 9.41147 8.47057 8.89122 8.46992C7.78197 8.46992 6.97093 8.68513 6.42471 9.13215C5.87829 9.57916 5.61348 10.2082 5.61348 11.0358C5.61348 11.8139 5.81209 12.3933 6.2259 12.7907C6.62332 13.2045 7.20274 13.4031 7.96418 13.4031ZM21.2573 15.191C20.9593 15.191 20.7607 15.1414 20.6283 15.0254C20.4959 14.9262 20.3799 14.6944 20.2807 14.38L16.3905 1.58343C16.2909 1.25222 16.2413 1.03701 16.2413 0.921202C16.2413 0.656389 16.3737 0.507188 16.6387 0.507188H18.261C18.5754 0.507188 18.7908 0.556987 18.9066 0.672793C19.039 0.772196 19.1384 1.004 19.2377 1.31842L22.0188 12.2775L24.6013 1.31842C24.6841 0.987405 24.7835 0.772196 24.9157 0.672793C25.0483 0.573586 25.2801 0.507383 25.5781 0.507383H26.9024C27.2168 0.507383 27.4322 0.556987 27.5644 0.672793C27.697 0.772196 27.8128 1.004 27.879 1.31842L30.4947 12.4099L33.3584 1.31842C33.4577 0.987405 33.5737 0.772196 33.6895 0.672793C33.8219 0.573586 34.0371 0.507383 34.3351 0.507383H35.8746C36.1396 0.507383 36.2886 0.63979 36.2886 0.921202C36.2886 1.004 36.272 1.08681 36.2554 1.18601C36.2388 1.28542 36.2058 1.41782 36.1396 1.60003L32.1498 14.3964C32.0506 14.7276 31.9348 14.9428 31.8022 15.042C31.6698 15.1414 31.4546 15.2076 31.1734 15.2076H29.7497C29.4351 15.2076 29.2199 15.158 29.0873 15.042C28.9549 14.9262 28.8391 14.711 28.7729 14.38L26.2068 3.70232L23.6574 14.3632C23.5748 14.6944 23.4754 14.9096 23.343 15.0254C23.2106 15.1414 22.9788 15.191 22.681 15.191H21.2573ZM42.5296 15.638C41.6688 15.638 40.808 15.5386 39.9803 15.34C39.1525 15.1414 38.5071 14.926 38.0766 14.678C37.8116 14.5288 37.6294 14.3634 37.5634 14.2144C37.499 14.0682 37.4651 13.9105 37.464 13.7507V12.9065C37.464 12.5589 37.5964 12.3933 37.8448 12.3933C37.9462 12.3937 38.0469 12.4105 38.1428 12.4431C38.2421 12.4763 38.3911 12.5423 38.5567 12.6085C39.1414 12.8657 39.7518 13.0599 40.3775 13.1879C41.026 13.3195 41.686 13.386 42.3476 13.3865C43.3905 13.3865 44.2017 13.2045 44.7645 12.8403C45.3274 12.4761 45.6254 11.9465 45.6254 11.2676C45.6254 10.8042 45.4764 10.4234 45.1783 10.1088C44.8803 9.79437 44.3175 9.51296 43.5065 9.24795L41.106 8.50312C39.8975 8.1223 39.0037 7.55948 38.4573 6.81445C37.911 6.08602 37.6296 5.27499 37.6296 4.41415C37.6296 3.71892 37.7786 3.1063 38.0766 2.57648C38.3745 2.04685 38.7719 1.58343 39.2685 1.21921C39.7651 0.838399 40.3279 0.556987 40.9902 0.358377C41.6522 0.159768 42.3474 0.0769653 43.0759 0.0769653C43.4401 0.0769653 43.8209 0.0935649 44.1851 0.143168C44.5659 0.192772 44.9135 0.258975 45.2611 0.325178C45.5922 0.407981 45.9068 0.490784 46.2048 0.590186C46.5028 0.689393 46.7344 0.788795 46.9 0.888002C47.1318 1.0206 47.2972 1.15301 47.3966 1.30202C47.496 1.43442 47.5456 1.61643 47.5456 1.84824V2.62627C47.5456 2.97389 47.4132 3.15609 47.1648 3.15609C47.0324 3.15609 46.8172 3.0897 46.536 2.95729C45.5922 2.52687 44.5327 2.31166 43.3575 2.31166C42.4138 2.31166 41.6688 2.46067 41.1556 2.77528C40.6426 3.0897 40.3775 3.56991 40.3775 4.24854C40.3775 4.71216 40.5431 5.10938 40.8742 5.42399C41.2054 5.73841 41.8178 6.05302 42.6952 6.33443L45.0459 7.07946C46.2378 7.46027 47.0986 7.9899 47.6118 8.66853C48.1251 9.34736 48.3735 10.1254 48.3735 10.9862C48.3735 11.6981 48.2243 12.3437 47.9429 12.9065C47.645 13.4693 47.2476 13.966 46.7344 14.3634C46.2212 14.7772 45.6088 15.0752 44.8969 15.2904C44.1519 15.5222 43.3739 15.638 42.5296 15.638Z" fill="black"/>
<path d="M45.6583 23.6834C40.2121 27.7061 32.2989 29.8416 25.4952 29.8416C15.9598 29.8416 7.36828 26.3155 0.879002 20.4552C0.365781 19.9918 0.829203 19.3628 1.44163 19.7268C8.46072 23.7994 17.1187 26.2659 26.0747 26.2659C32.1169 26.2659 38.7552 25.0078 44.8638 22.4253C45.7743 22.0113 46.5523 23.0213 45.6583 23.6834ZM47.9264 21.1009C47.2311 20.207 43.3242 20.6705 41.5529 20.8857C41.0231 20.9521 40.9403 20.4884 41.4205 20.1408C44.5326 17.9555 49.6481 18.5848 50.2439 19.313C50.8399 20.058 50.0783 25.1732 47.1648 27.6233C46.7179 28.0042 46.2875 27.8055 46.4861 27.3089C47.1482 25.6699 48.6216 21.9783 47.9264 21.1009Z" fill="black"/>
</g>
<defs>
<clipPath id="clip0_33_440">
<rect width="50" height="29.8793" fill="white" transform="translate(0.544922 0.0603638)"/>
</clipPath>
</defs>
</svg>
