<svg width="46" height="40" viewBox="0 0 46 40" fill="none" xmlns="http://www.w3.org/2000/svg">
<g clip-path="url(#clip0_33_421)">
<path d="M37.7878 12.9515C37.3098 12.7876 36.8278 12.6356 36.3422 12.4959C36.4238 12.1626 36.4989 11.8333 36.5655 11.5098C37.6599 6.19734 36.9445 1.91751 34.5008 0.50839C32.1578 -0.842487 28.326 0.56611 24.4562 3.934C24.0748 4.26652 23.7019 4.60862 23.3378 4.95997C23.0941 4.72633 22.846 4.49723 22.5938 4.27278C18.538 0.671724 14.4727 -0.845995 12.0317 0.567162C9.69079 1.92225 8.99763 5.94558 9.98289 10.9803C10.0809 11.479 10.1916 11.975 10.3148 12.468C9.73938 12.6315 9.18412 12.8056 8.65272 12.9908C3.89763 14.6487 0.860962 17.2468 0.860962 19.9417C0.860962 22.7251 4.12096 25.5168 9.07359 27.2096C9.47511 27.3463 9.87998 27.4729 10.2878 27.5894C10.1554 28.1204 10.0378 28.655 9.93517 29.1926C8.99587 34.14 9.72938 38.0682 12.0639 39.4147C14.4752 40.8052 18.5222 39.3761 22.4627 35.9314C22.7822 35.6513 23.0947 35.3633 23.3999 35.0677C23.7942 35.4481 24.1991 35.8175 24.6139 36.1754C28.4311 39.46 32.201 40.7863 34.5332 39.4361C36.9422 38.0415 37.7252 33.8215 36.7087 28.6873C36.6286 28.2851 36.5388 27.8849 36.4394 27.487C36.7236 27.4028 37.0025 27.3161 37.2745 27.2259C42.4232 25.5201 45.7732 22.7622 45.7732 19.9417C45.7732 17.237 42.6385 14.6214 37.7878 12.9515ZM36.6711 25.4049C36.4255 25.4861 36.1736 25.5645 35.9168 25.6408C35.3483 23.8414 34.5813 21.928 33.6425 19.951C34.5383 18.0212 35.2759 16.1322 35.8283 14.3445C36.2878 14.4775 36.7336 14.6177 37.1634 14.7656C41.3196 16.1965 43.8546 18.3117 43.8546 19.9417C43.8546 21.6779 41.1168 23.9317 36.6711 25.4049ZM34.8266 29.06C35.2761 31.3301 35.3401 33.3828 35.0424 34.9875C34.775 36.4294 34.2371 37.3907 33.5718 37.7758C32.1566 38.5951 29.1297 37.5301 25.8653 34.721C25.4794 34.3883 25.1029 34.0449 24.736 33.6912C26.0017 32.3072 27.2664 30.6982 28.5008 28.9112C30.672 28.7186 32.7232 28.4035 34.5834 27.9735C34.673 28.3337 34.7541 28.6959 34.8266 29.06ZM16.1725 37.6342C14.7897 38.1224 13.6883 38.1365 13.0225 37.7526C11.6059 36.9356 11.0169 33.7814 11.8203 29.5505C11.9158 29.0505 12.0251 28.5533 12.1482 28.0594C13.9878 28.4665 16.0241 28.7591 18.2004 28.9356C19.4432 30.6842 20.7445 32.2914 22.0559 33.6987C21.7772 33.9684 21.4919 34.2312 21.2003 34.4868C19.4576 36.01 17.7115 37.0907 16.1725 37.6342ZM9.69429 25.3942C7.50429 24.6456 5.6957 23.6728 4.45605 22.6112C3.34201 21.6573 2.77973 20.7101 2.77973 19.9417C2.77973 18.3063 5.2178 16.2203 9.2843 14.8026C9.7778 14.6307 10.2943 14.4684 10.8303 14.3161C11.3924 16.1442 12.1296 18.0556 13.0192 19.9884C12.118 21.9498 11.3703 23.8917 10.8027 25.7414C10.4305 25.6347 10.0609 25.519 9.69429 25.3942ZM11.8659 10.6117C11.0218 6.29821 11.5824 3.04436 12.9931 2.22769C14.4955 1.35786 17.818 2.59804 21.3199 5.70751C21.5483 5.91074 21.7729 6.11808 21.9938 6.32944C20.6889 7.73067 19.3996 9.32593 18.1678 11.0642C16.0555 11.26 14.0336 11.5744 12.1746 11.9956C12.0601 11.537 11.9572 11.0755 11.8659 10.6117ZM31.239 15.3958C30.8 14.6373 30.3446 13.8884 29.8732 13.1496C31.3062 13.3308 32.6792 13.5714 33.9685 13.8654C33.5815 15.1061 33.099 16.4031 32.5311 17.733C32.116 16.9454 31.6852 16.1661 31.239 15.3958ZM23.3387 7.70085C24.2236 8.65962 25.1099 9.72997 25.9817 10.8914C24.2132 10.8079 22.4419 10.8075 20.6734 10.8903C21.546 9.73962 22.4399 8.67067 23.3387 7.70085ZM15.3876 15.4087C14.947 16.1729 14.5242 16.9473 14.1197 17.7312C13.5611 16.4061 13.0831 15.1031 12.6927 13.8449C13.9741 13.5582 15.3406 13.3238 16.7645 13.1459C16.2879 13.8893 15.8288 14.6439 15.3876 15.4087ZM16.8053 26.874C15.3343 26.7098 13.9473 26.4875 12.6662 26.2086C13.0627 24.9279 13.5513 23.5972 14.122 22.2437C14.5281 23.0281 14.9526 23.803 15.3952 24.5675C15.8503 25.3535 16.3215 26.1233 16.8053 26.874ZM23.3917 32.3179C22.4822 31.3368 21.5752 30.2514 20.6894 29.084C21.5494 29.1177 22.4261 29.1349 23.3171 29.1349C24.2325 29.1349 25.1375 29.1144 26.0282 29.0747C25.1536 30.2631 24.2706 31.3501 23.3917 32.3179ZM32.5492 22.1745C33.1496 23.5429 33.6555 24.8666 34.0573 26.1254C32.7552 26.4226 31.3492 26.6619 29.8678 26.8396C30.3425 26.0871 30.8022 25.3252 31.2466 24.5544C31.6984 23.7708 32.1327 22.9774 32.5492 22.1745ZM29.5846 23.5958C28.9043 24.7776 28.1858 25.937 27.4301 27.0721C26.0612 27.169 24.6894 27.2172 23.3171 27.2165C21.9194 27.2165 20.5599 27.1729 19.2508 27.088C18.4754 25.9555 17.7431 24.7941 17.0555 23.6063C16.3712 22.4247 15.7321 21.2176 15.1394 19.9875C15.7306 18.7571 16.3679 17.5494 17.0499 16.367L17.0497 16.3672C17.7315 15.1844 18.4579 14.0279 19.2275 12.9003C20.5631 12.7993 21.9327 12.7466 23.3169 12.7466C24.7075 12.7466 26.079 12.7998 27.4143 12.9015C28.1761 14.0275 28.8979 15.18 29.5783 16.3568C30.2626 17.5367 30.9083 18.7385 31.5145 19.9603C30.9146 21.1947 30.2709 22.4072 29.5846 23.5958ZM33.5425 2.1705C35.0464 3.03786 35.6313 6.53558 34.6864 11.1224C34.626 11.4151 34.5583 11.7131 34.4846 12.0154C32.6211 11.5852 30.5978 11.2654 28.4794 11.0666C27.2453 9.30927 25.9666 7.71155 24.6829 6.32839C25.0193 6.00409 25.3638 5.68821 25.7159 5.38102C29.0317 2.49558 32.1306 1.35629 33.5425 2.1705ZM23.3171 15.9312C25.532 15.9312 27.3276 17.7268 27.3276 19.9417C27.3276 22.1566 25.532 23.9522 23.3171 23.9522C21.1022 23.9522 19.3066 22.1566 19.3066 19.9417C19.3066 17.7268 21.1022 15.9312 23.3171 15.9312Z" fill="black"/>
</g>
<defs>
<clipPath id="clip0_33_421">
<rect width="44.92" height="40" fill="white" transform="translate(0.857056)"/>
</clipPath>
</defs>
</svg>
