<svg width="41" height="40" viewBox="0 0 41 40" fill="none" xmlns="http://www.w3.org/2000/svg">
<g clip-path="url(#clip0_33_423)">
<path d="M15.3026 8.836C18.1878 6.43307 22.9103 6.43261 25.796 8.836L38.1537 19.1267C41.0386 21.5299 41.0391 25.461 38.1532 27.8644L25.796 38.1548C22.9095 40.5585 18.1873 40.5579 15.3026 38.1548L2.94487 27.8644C0.0594682 25.4613 0.0594683 21.5299 2.94441 19.1267L15.3026 8.836Z" fill="black"/>
<path d="M15.3026 5.49207C18.1878 3.08914 22.9103 3.08867 25.796 5.49207L38.1537 15.7829C41.0386 18.1863 41.0391 22.1176 38.1532 24.5208L25.796 34.8111C22.9095 37.2149 18.1873 37.2142 15.3026 34.8111L2.94487 24.5208C0.0594682 22.1177 0.0594683 18.1863 2.94441 15.7829L15.3026 5.49207Z" fill="black"/>
<path d="M25.796 1.90253L38.1537 12.193C41.0386 14.5964 41.0391 18.5277 38.1532 20.9309L25.796 31.2213C22.9095 33.6252 18.1873 33.6244 15.3026 31.2213L2.94487 20.9309C0.0594682 18.5282 0.0594683 14.5966 2.94441 12.1932L15.3026 1.90253C18.1878 -0.500562 22.9103 -0.501025 25.796 1.90253Z" fill="black"/>
<path opacity="0.15" d="M38.5121 12.5251C38.3976 12.4139 38.2791 12.3069 38.1568 12.2043L25.7985 1.90427C22.9124 -0.501444 18.1897 -0.50098 15.304 1.90427L2.94465 12.2043C0.0595518 14.6105 0.0595518 18.5454 2.94511 20.9509L4.27515 22.0592C7.75252 17.8826 19.4795 6.30937 38.5121 12.5251Z" fill="white"/>
</g>
<defs>
<clipPath id="clip0_33_423">
<rect width="39.544" height="40" fill="white" transform="translate(0.7771)"/>
</clipPath>
</defs>
</svg>
