<svg width="143" height="40" viewBox="0 0 143 40" fill="none" xmlns="http://www.w3.org/2000/svg">
<g clip-path="url(#clip0_33_438)">
<path d="M32.6817 0C34.6387 0 36.2306 1.56306 36.2762 3.50944L36.2773 3.59556V36.3544C36.2773 38.3114 34.7137 39.9033 32.7678 39.9489L32.6817 39.95H3.91782C1.96115 39.95 0.368932 38.3864 0.323377 36.4406L0.322266 36.3544V3.59556C0.322266 1.63833 1.88615 0.0466667 3.83171 0.00111111L3.91782 0H32.6817ZM32.6817 1.9975H3.91782C3.50473 1.99804 3.10784 2.1583 2.8102 2.44476C2.51256 2.73121 2.33723 3.12167 2.32088 3.53444L2.31977 3.59556V36.3544C2.3203 36.7675 2.48056 37.1644 2.76702 37.4621C3.05348 37.7597 3.44394 37.935 3.85671 37.9514L3.91782 37.9525H32.6817C33.0948 37.952 33.4917 37.7918 33.7893 37.5054C34.087 37.219 34.2623 36.8286 34.2787 36.4158L34.2798 36.3547V3.59528C34.2793 3.1716 34.1107 2.76543 33.8111 2.46585C33.5116 2.16627 33.1054 1.99801 32.6817 1.9975ZM9.31115 25.9675L13.8056 29.9625L9.31115 33.9575V25.9675ZM13.3062 5.9925V17.3339C15.3006 16.6847 18.0887 15.98 20.7967 15.98C23.2662 15.98 24.7442 16.9508 25.5495 17.7653C27.2414 19.4772 27.29 21.6508 27.2884 21.9597L27.2881 21.9725L27.2887 33.9575H23.2937V22.0278C23.2742 21.0953 22.8248 19.9753 20.7964 19.9753C16.7753 19.9753 12.2695 21.9775 12.1356 22.0375L12.1328 22.0386L9.31115 23.3172V5.9925H13.3062ZM27.2887 5.9925C27.0189 8.26167 26.0989 10.4369 24.2923 12.4842H20.2973C21.8673 10.4244 22.8531 8.25667 23.2937 5.9925H27.2887ZM101.738 12.7281C105.282 12.7281 108.966 14.9792 108.966 20.3744C108.966 25.7708 105.282 28.0211 101.738 28.0211C98.1728 28.0211 94.4895 25.7708 94.4895 20.3744C94.4895 14.9792 98.1728 12.7281 101.738 12.7281ZM134.161 13.0072V21.8092C134.161 23.8392 134.818 24.7556 136.412 24.7556C138.004 24.7556 138.641 23.8392 138.641 21.8092V13.0072H142.544V21.8286C142.544 25.7322 140.673 27.9617 136.372 27.9617C132.07 27.9617 130.178 25.7322 130.178 21.8286V13.0072H134.161ZM49.2486 13.0072V18.4828H54.147V13.0072H58.13V27.7428H54.147V21.7889H49.2486V27.7428H45.2662V13.0072H49.2486ZM73.7736 13.0072V16.3131H67.2417V18.7025H71.9014V21.8092H67.2417V24.5369H74.1123V27.7428H63.2595V13.0072H73.7736ZM84.2414 13.0072C88.0248 13.0072 90.3348 14.2622 90.3348 17.8061C90.3348 20.1158 89.3584 21.4506 87.4273 22.1069L90.5534 27.7431H86.3323L83.4842 22.6258H82.3892V27.7428H78.4864V13.0072H84.2414ZM117.381 13.0072V18.3444L121.444 13.0072H126.064L121.105 18.8219L126.501 27.7428H122.001L118.517 21.8483L117.381 23.1625V27.7431H113.399V13.0069L117.381 13.0072ZM101.738 16.0139C99.6467 16.0139 98.472 17.6667 98.472 20.3744C98.472 23.0836 99.6467 24.8356 101.738 24.8356C103.808 24.8356 104.983 23.0836 104.983 20.3744C104.983 17.6664 103.808 16.0139 101.738 16.0139ZM84.1014 16.2328H82.3892V19.5981H84.1014C85.7345 19.5981 86.4511 19.14 86.4511 17.9056C86.4511 16.6717 85.7345 16.2328 84.1014 16.2328Z" fill="black"/>
</g>
<defs>
<clipPath id="clip0_33_438">
<rect width="142.224" height="40" fill="white" transform="translate(0.321045)"/>
</clipPath>
</defs>
</svg>
