<svg width="44" height="45" viewBox="0 0 44 45" fill="none" xmlns="http://www.w3.org/2000/svg">
<path d="M44 22.5C44 10.3501 34.1499 0.5 22 0.5C10.1647 0.5 0.515533 9.84707 0.0227333 21.5613C0.0168666 21.7051 0.0154 21.851 0.0124666 21.9955C0.00879997 22.1641 0 22.3313 0 22.5V22.5741C0 34.6836 9.85013 44.5 22 44.5C34.1499 44.5 44 34.6836 44 22.5741L43.9985 22.5381L44 22.5ZM26.3927 42.5574C26.0077 42.3484 25.6381 42.0059 25.4877 41.5395C25.2157 40.6947 25.4261 40.0391 25.7385 39.2765C25.9879 38.6656 25.6527 37.9601 25.8185 37.3207C26.1419 36.0762 26.532 34.7276 26.4117 33.3907C26.3369 32.5701 26.1551 32.5327 25.5479 32.059C24.9077 31.5567 24.9077 30.8461 24.4794 30.211C24.0915 29.6339 25.1357 27.4412 24.8446 27.3077C24.5183 27.1574 23.7761 27.3539 23.5415 27.0423C23.2892 26.7064 23.1132 26.3097 22.7663 26.0493C22.5427 25.8814 21.5534 25.3197 21.2894 25.3593C19.9599 25.558 18.5196 24.2615 17.6711 23.4159C17.0867 22.8359 16.8432 22.1854 16.4149 21.5144C16.0527 20.9461 15.5041 20.8969 15.235 20.1922C14.9527 19.4559 15.1206 18.5129 15.0348 17.7385C14.9417 16.9061 14.5281 16.6407 14.0111 16.0041C12.9052 14.6379 12.4982 12.5993 10.4001 12.5993C9.273 12.5993 9.35293 15.0545 8.44507 14.7252C7.4184 14.3534 5.83 16.1119 5.85273 15.8751C5.973 14.6475 7.2336 14.0505 7.3568 13.6846C7.7594 12.4834 5.55793 12.7709 5.84027 11.7691C5.97813 11.2763 7.3788 10.9177 7.08913 10.6237C7.00187 10.5342 5.93047 9.78253 5.98327 9.74513C6.182 9.6058 7.04587 10.0473 6.85813 9.4738C6.79507 9.28313 6.69313 9.10787 6.59633 8.93113C7.04158 8.42551 7.51149 7.94215 8.00433 7.4828C8.74793 7.42193 9.5194 7.46813 9.7988 7.5224C11.5705 7.87147 12.1865 8.76833 13.9583 8.10467C14.8104 7.7864 17.9513 8.3386 18.4015 9.2318C18.6465 9.7202 19.5587 8.93627 19.9144 8.88347C20.2957 8.82627 21.1574 9.41367 21.4199 9.0536C22.1115 8.10687 20.977 7.7138 22.3168 8.44273C23.2151 8.93187 24.9707 6.781 24.4149 9.3088C24.0137 11.1311 22.5397 11.1715 21.4588 12.3587C20.3947 13.5277 23.5642 13.8459 23.6456 14.9019C23.8803 17.9423 25.5017 14.6541 25.0675 13.5731C24.2279 11.4795 26.0231 12.0544 26.7461 13.3847C27.1473 14.1231 27.4523 13.5013 27.9437 13.2439C28.3419 13.0363 28.4482 14.1605 28.534 14.3563C28.8163 15.0068 29.744 15.2011 29.5871 16.0386C29.4125 16.9619 28.7562 16.6847 28.1145 16.8409C27.3981 17.0147 28.2304 17.6175 28.1263 17.8375C28.0133 18.078 27.1495 18.1777 26.9192 18.3141C26.2416 18.7131 26.6559 19.4911 26.1257 19.9091C25.762 20.1966 25.3953 20.0096 25.3249 20.5479C25.2421 21.1822 24.0731 21.3861 24.2249 21.9925C24.2667 22.159 24.6033 23.4027 24.3914 23.4687C24.2939 23.5003 23.5231 22.3871 23.3127 22.2756C22.8961 22.0549 21.0027 22.2353 20.7592 23.4885C20.6015 24.2989 21.9054 25.5785 22.2376 24.4624C22.649 23.0889 22.8448 25.2625 22.7458 25.3475C22.9423 25.5191 24.0922 25.0652 23.7512 25.8609C23.6067 26.1975 23.8927 27.0753 24.4031 26.8047C24.6165 26.6917 25.1665 27.032 25.2626 26.8494C25.4007 26.6391 25.5873 26.465 25.8067 26.3419C26.3208 26.0413 27.0901 26.3236 27.6533 26.3566C27.9972 26.3764 30.8161 27.9142 30.8315 28.2229C30.8931 29.3779 33.0242 29.2276 33.3513 29.6405C34.2305 30.7595 33.9599 30.1912 33.3183 31.6249C32.9949 32.3465 33.2765 33.2316 32.4933 33.7545C32.1163 34.0053 31.6565 33.8799 31.3214 34.2348C31.0193 34.5553 31.1381 34.9381 30.9547 35.3084C30.734 35.7491 27.7677 38.4148 27.5719 39.0594C27.4743 39.3828 26.5892 39.6644 27.3357 39.9746C27.7699 40.1022 26.3743 41.4215 27.0453 41.9678C27.2089 42.1005 27.3159 42.2127 27.3966 42.3132C27.0615 42.4027 26.7293 42.4841 26.3927 42.5574ZM24.6356 2.14047C24.607 2.2468 24.6503 2.3722 24.8343 2.49467C25.2494 2.76967 24.7155 3.38053 24.1428 2.98673C23.5715 2.59293 22.2867 3.16347 22.3755 3.459C22.4627 3.75453 22.8595 3.87187 23.4725 3.63647C24.0841 3.40033 24.3364 3.67167 24.4391 3.9518C24.5095 4.14173 24.4391 4.24733 24.4193 4.50327C24.4009 4.7592 23.6889 4.58173 23.0971 4.62207C22.5038 4.66167 21.8724 4.50327 21.8907 4.16813C21.9105 3.83373 21.2593 3.22287 20.8707 2.96767C20.4827 2.71247 21.0408 2.161 21.5556 2.57387C22.0682 2.98747 22.0887 2.4954 22.6813 2.33847C23.0179 2.249 22.8829 2.1148 22.7685 1.9872C23.3992 2.0092 24.0211 2.062 24.6356 2.14047ZM27.2147 8.6444C27.6584 8.76467 28.4291 9.32567 28.4291 9.59113C28.4291 9.85733 28.0793 10.1903 27.9246 10.1521C26.8077 9.88007 25.8661 8.77787 25.3477 8.17433C24.4427 7.122 24.4999 8.024 23.0663 7.5686C22.6996 7.45127 22.1181 6.31387 22.5031 5.75287C22.8881 5.19187 23.3325 5.10313 23.6874 5.252C24.0423 5.39867 25.0793 4.779 25.3176 5.51747C25.5537 6.25593 26.2057 7.19827 26.7989 7.45053C27.3929 7.70133 26.7696 8.52413 27.2147 8.6444ZM27.5704 12.0713C27.7479 12.4255 26.5034 11.6577 26.2071 11.3035C25.9123 10.95 25.4665 10.1514 25.8236 9.7972C26.1785 9.44373 26.9749 10.5342 27.3937 10.7725C28.2216 11.2455 27.3929 11.7178 27.5704 12.0713ZM21.2681 6.70693C21.3539 6.58887 21.5358 6.8844 21.6979 7.17993C21.8599 7.47547 21.6363 7.892 21.2681 7.82893C20.9 7.76733 21.0621 6.99587 21.2681 6.70693ZM21.2681 3.73547C21.2681 3.73547 21.615 4.58173 21.2681 4.44387C20.9213 4.306 20.9044 3.9518 21.2681 3.73547ZM21.3385 6.41213C21.2395 6.17673 21.2168 5.20947 21.4573 4.91613C21.8123 4.48347 22.3857 5.32973 22 5.66413C21.615 5.99927 21.4368 6.649 21.3385 6.41213ZM16.8821 7.4498C16.2375 7.4036 16.2235 6.84627 16.1341 6.55073C16.0446 6.2552 15.5107 7.11173 14.971 6.55073C14.4313 5.98973 15.0971 5.252 14.9783 4.80833C14.8595 4.3654 16.2514 4.80833 16.4597 4.80833C16.6679 4.80833 17.2304 5.72353 17.3778 5.70813C17.5267 5.69347 18.326 6.43193 18.326 6.1364C18.326 5.8416 18.4477 5.33853 19.008 5.27987C19.8675 5.19113 19.0967 6.22513 19.0667 6.62773C19.0381 7.03033 19.7201 7.73067 19.9701 8.0262C20.2224 8.32173 19.3343 8.52927 19.1855 8.35107C19.0381 8.1736 18.6523 8.35107 18.326 8.5872C18.0011 8.82333 17.1116 8.26233 16.6973 8.08487C16.2822 7.90813 17.5267 7.49527 16.8821 7.4498ZM19.1855 2.7902C19.7582 2.98747 20.0838 3.1642 20.3654 2.7902C20.6375 2.4294 20.845 3.57707 20.6477 3.89167C20.4497 4.20773 20.075 4.12927 20.0149 3.89167C19.9562 3.657 18.6127 2.59293 19.1855 2.7902ZM20.0149 6.35347C19.8183 6.0968 19.7985 5.802 20.0149 5.58567C20.2327 5.36933 20.1623 5.1134 20.5495 5.03493C20.7401 4.99533 20.7658 5.29013 20.7658 5.56587C20.7658 5.8416 21.0034 6.1958 20.7658 6.62773C20.5289 7.05967 20.2129 6.60867 20.0149 6.35347ZM21.6319 1.9762C21.6231 2.03047 21.5871 2.06273 21.4969 2.05393C21.4349 2.04342 21.3759 2.01965 21.3239 1.98427C21.4273 1.9806 21.5285 1.97767 21.6319 1.9762ZM17.1519 2.81C17.6059 2.81 17.5472 3.11653 17.9227 3.33727C18.2981 3.55727 18.1001 2.19913 18.3568 2.711C18.6135 3.22213 19.3754 3.93127 19.0087 4.0684C18.6934 4.18793 17.3705 4.69833 17.2517 4.61033C17.1329 4.52233 16.9752 4.14833 16.6584 4.0684C16.3416 3.98993 16.0065 3.24193 15.7887 3.26173C15.7058 3.26907 15.6985 3.1268 15.7527 2.9376C16.1336 2.81498 16.518 2.70371 16.9055 2.60393C16.9481 2.7198 17.0126 2.81 17.1519 2.81ZM27.0659 24.8283C26.5929 25.3167 25.7781 24.4881 25.2157 24.5174C24.6532 24.5467 24.3709 23.9564 23.8825 24.0158C23.3926 24.0737 24.0159 23.3947 24.6972 23.7503C25.377 24.1045 27.4516 24.4287 27.0659 24.8283ZM36.5479 8.01007C36.41 8.18607 36.2531 8.30927 36.1027 8.43907C35.6591 8.82333 34.8297 8.794 34.7109 9.05947C34.5921 9.32493 34.2958 10.1514 33.2589 10.1551C32.2219 10.158 32.5182 11.7178 32.4295 12.1629C32.3407 12.6081 32.1046 13.1346 31.8076 12.7503C31.5113 12.3668 31.3925 12.5135 30.4759 11.3915C29.5592 10.2695 29.9112 9.6498 30.2082 9.32493C30.5045 9.0008 30.6233 8.23227 30.2082 8.35033C29.7931 8.4684 29.5563 8.2022 29.645 7.8348C29.7337 7.4674 30.1781 7.199 29.645 6.80667C29.1119 6.41507 29.4074 5.01367 28.9931 3.73473C28.578 2.45507 28.0148 3.36073 27.0967 3.40987C26.1785 3.459 26.0297 2.76967 26.4447 2.45433C30.2747 3.30129 33.7812 5.22951 36.5479 8.01007Z" fill="#B0B0B0"/>
</svg>
