<svg width="400" height="297" viewBox="0 0 400 297" fill="none" xmlns="http://www.w3.org/2000/svg">
<path d="M105.297 84.6548C105.17 83.6515 104.913 82.6691 104.533 81.7319C104.484 81.5547 104.399 81.3895 104.283 81.2469C104.167 81.1043 104.023 80.9873 103.859 80.9035C103.641 80.8467 103.411 80.8441 103.192 80.8961L99.7623 81.4204C99.4752 81.4335 99.2004 81.5401 98.9798 81.7241C98.5332 82.1935 98.973 82.9492 98.9593 83.5967C98.9439 84.3248 98.2965 84.9158 97.5944 85.1113C96.8777 85.256 96.1384 85.2469 95.4255 85.0845L90.6304 84.3399C92.0426 83.8894 93.2996 83.0513 94.258 81.9211C94.889 81.1742 95.2247 79.7797 94.3127 79.426C94.0418 79.3517 93.7592 79.329 93.4799 79.3592C91.3073 79.3761 89.5977 77.5636 87.5639 76.8003C86.2621 76.3433 84.8491 76.3093 83.5269 76.7031C82.2047 77.097 81.041 77.8985 80.2021 78.9931L82.7566 79.1161C82.9969 79.1029 83.2352 79.1664 83.437 79.2974C83.9968 79.757 83.3008 80.6398 83.3797 81.3594C83.4821 82.2944 84.7246 82.494 85.6612 82.5885C86.5977 82.6831 87.7859 83.4434 87.3354 84.2693C82.6281 85.8893 77.8379 81.1023 72.8942 81.6916C71.643 81.8407 70.4615 82.3319 69.2399 82.6407C61.7775 84.5272 54.0627 79.4938 46.4394 80.5598C44.7447 80.8484 43.0791 81.2874 41.4623 81.8713C40.4247 82.2117 39.3425 82.5796 38.5887 83.369C37.8348 84.1584 37.5479 85.5085 38.2621 86.3339C36.2936 86.4959 34.312 86.3077 32.4094 85.7781C32.9239 86.0638 33.3519 86.4827 33.6485 86.9908C33.9451 87.4988 34.0994 88.0773 34.0951 88.6655C31.0216 89.1662 28.0295 90.0778 25.1993 91.3757C25.7275 92.2534 26.3445 93.0746 27.0405 93.8264L23.1495 96.3241C24.4641 96.655 25.1437 98.4461 24.3793 99.5647C25.7423 98.9588 26.5871 97.3914 28.0446 97.0737C28.9995 96.8655 29.9711 97.2558 30.877 97.6224C31.7828 97.9891 32.7785 98.3446 33.7162 98.0694C34.654 97.7943 35.3457 96.5793 34.7498 95.8053C38.758 94.6367 42.9004 93.9901 47.0743 93.8813C47.3963 93.8409 47.7229 93.9029 48.0077 94.0583C48.551 94.435 48.4081 95.2485 48.3788 95.9086C48.3495 96.5687 48.8644 97.4363 49.4549 97.1387C48.7602 97.7406 49.3541 98.8737 50.0205 99.5066C50.687 100.14 51.4903 101.013 51.0823 101.836C50.9758 102.051 50.7952 102.223 50.6927 102.44C50.3902 103.08 50.8705 103.826 51.4369 104.251C52.0033 104.676 52.6971 104.973 53.0905 105.562C53.484 106.15 53.3053 107.18 52.6017 107.263L50.602 104.726C49.9187 105.433 49.4503 106.32 49.2511 107.283C51.3717 109.016 51.6907 112.541 49.9153 114.625C49.0081 115.69 47.7179 116.337 46.5919 117.168C45.4658 117.999 44.4239 119.182 44.4267 120.58C44.4316 122.996 44.234 125.241 45.1402 127.481C46.8111 131.612 48.7403 135.633 50.9162 139.522C51.4877 140.543 52.2262 141.662 53.3837 141.838C51.9208 138.28 50.6038 134.666 49.4329 130.996C50.1956 130.999 51.0769 131.06 51.524 131.677C51.8942 132.189 51.8147 132.884 51.9297 133.504C52.076 134.105 52.32 134.678 52.652 135.201L59.638 147.635C60.2171 148.665 60.8814 149.772 61.9882 150.189C62.6959 150.456 63.5146 150.406 64.166 150.79C64.6765 151.091 65.0204 151.626 65.5408 151.909C67.0125 152.712 69.0589 151.173 70.4342 152.131C70.8275 152.405 71.0776 152.84 71.44 153.153C72.7102 154.252 74.7938 153.517 76.2601 154.337C77.2051 154.865 77.6949 155.922 78.1989 156.88C79.4615 159.279 81.5045 161.629 84.2103 161.82C85.0603 161.88 85.9285 161.719 86.7593 161.908C87.5901 162.097 88.408 162.821 88.2746 163.662C88.046 165.104 88.7589 166.682 88.5674 168.129C88.2187 170.765 84.477 171.923 84.1556 174.563C84.0852 175.14 84.1953 175.737 84.0576 176.302C83.8888 176.996 83.3678 177.56 83.1826 178.249C82.8318 179.555 83.7681 180.855 84.7967 181.733C85.8253 182.612 87.0522 183.369 87.6145 184.599C88.2089 185.899 87.917 187.414 88.1103 188.83C88.5323 191.922 91.2044 194.213 93.9545 195.691C94.7923 196.141 95.692 196.577 96.2343 197.358C96.9421 198.377 96.8716 199.721 97.108 200.939C97.6868 203.922 100.2 206.38 100.271 209.417C100.322 211.576 99.1209 213.535 98.4034 215.572C97.7307 217.524 97.4873 219.598 97.6897 221.652C97.8922 223.707 98.5357 225.693 99.5765 227.477C100.113 228.382 100.755 229.236 101.135 230.218C101.812 231.97 101.593 233.961 102.217 235.733C103.043 238.075 105.313 240.009 105.096 242.483C106.126 244.621 108.401 245.671 110.689 246.308L114.79 247.448C115.575 247.666 116.395 247.887 117.195 247.728C117.994 247.57 118.757 246.907 118.737 246.093C116.726 245.64 114.651 245.158 112.993 243.934C111.335 242.709 110.2 240.529 110.829 238.568C111.12 237.658 111.741 236.608 111.151 235.856C110.813 235.426 110.196 235.314 109.815 234.921C109.221 234.309 109.425 233.28 109.852 232.542C110.279 231.803 110.896 231.143 111.069 230.308C111.156 229.841 111.098 229.358 110.902 228.925C110.707 228.491 110.383 228.128 109.975 227.884C110.736 227.597 111.427 227.153 112.005 226.582C112.539 225.973 112.785 225.034 112.365 224.342C113.612 224.5 115.084 224.577 115.903 223.624C116.556 222.863 116.511 221.726 116.253 220.757C115.995 219.788 115.558 218.846 115.545 217.844C118.421 217.98 121.304 217.882 124.164 217.552C123.75 216.16 122.81 214.984 121.543 214.273C122.839 214.054 124.019 212.504 124.428 211.257C124.838 210.009 124.733 208.65 124.48 207.362C124.383 207.03 124.37 206.68 124.441 206.342C124.587 205.877 125.044 205.594 125.467 205.351L131.897 201.661C132.28 201.469 132.628 201.213 132.925 200.903C133.599 200.112 133.499 198.919 133.154 197.939C132.809 196.96 132.256 196.039 132.124 195.009C131.726 191.929 135.026 189.719 136.14 186.819C136.577 185.681 136.666 184.445 136.75 183.229C136.841 181.923 136.848 180.406 135.844 179.565C134.883 178.758 133.38 178.938 132.373 178.188C131.45 177.5 131.132 176.164 130.124 175.608C129.208 175.103 128.06 175.424 127.042 175.187C125.249 174.769 124.121 172.705 122.29 172.513C121.257 172.406 120.088 172.91 119.241 172.309C118.495 171.779 118.465 170.715 118.323 169.811C118.074 168.407 117.401 167.113 116.393 166.103C115.386 165.093 114.093 164.416 112.688 164.163C111.623 163.992 110.464 164.057 109.558 163.472C108.64 162.88 108.219 161.771 107.499 160.951C106.337 159.629 104.507 159.16 102.794 158.757L95.8225 157.12C94.585 156.829 92.9899 156.675 92.3258 157.758C92.1292 158.17 91.9901 158.608 91.9122 159.058C91.6634 159.872 91.1626 160.586 90.4818 161.098C89.8011 161.61 88.9754 161.893 88.1235 161.907C87.5393 160.911 86.5928 160.179 85.4815 159.864C84.7746 159.668 84.018 159.646 83.3438 159.356C82.9767 159.177 82.6499 158.925 82.3836 158.615C82.1174 158.306 81.9171 157.945 81.7951 157.555C81.6732 157.166 81.632 156.755 81.6743 156.349C81.7166 155.943 81.8413 155.55 82.0409 155.194C82.4428 154.479 82.598 153.652 82.4826 152.84C82.3672 152.028 81.9875 151.277 81.4022 150.702C80.2167 149.638 78.5018 149.381 76.9122 149.488C76.4959 148.58 77.192 147.556 77.9421 146.896C78.6923 146.237 79.6032 145.588 79.7665 144.603C80.0235 143.054 78.0449 141.877 76.5426 142.339C75.0402 142.801 74.0814 144.259 73.4475 145.696C73.0839 146.521 72.7747 147.389 72.201 148.084C71.6274 148.78 70.7036 149.278 69.8298 149.055C68.5927 148.739 68.115 147.27 67.8412 146.024C67.4739 144.352 67.1044 142.657 67.1814 140.947C67.2583 139.237 67.8352 137.482 69.0972 136.324C71.1535 134.438 74.3081 134.623 77.0833 134.924C76.4276 134.185 76.5897 132.941 77.2912 132.247C77.6615 131.918 78.1065 131.684 78.5876 131.566C79.0687 131.448 79.5713 131.449 80.052 131.569C80.8882 131.743 81.6416 132.193 82.1907 132.847C82.9794 133.807 83.2036 135.105 83.7997 136.195C84.3958 137.286 85.7362 138.216 86.8333 137.631C87.7809 137.125 87.9313 135.812 87.6955 134.765C87.4596 133.718 86.9587 132.7 87.0441 131.63C87.2071 129.589 89.325 128.36 91.1938 127.52C93.0627 126.679 95.2026 125.548 95.4987 123.522C95.5088 123.125 95.5838 122.733 95.7205 122.36C95.9277 122.031 96.2158 121.76 96.5573 121.574C102.012 117.972 107.557 114.327 113.791 112.359C114.115 112.256 114.153 112.37 114.484 112.29C114.946 112.023 114.64 111.284 114.196 110.986C113.753 110.688 113.16 110.46 113.047 109.938C112.965 109.554 113.191 109.178 113.25 108.79C113.394 107.836 112.252 106.956 111.366 107.337C110.865 106.674 111.856 105.904 112.657 105.684C115.063 105.022 117.533 104.619 120.024 104.482C120.312 104.436 120.606 104.486 120.862 104.624C121.281 104.914 121.227 105.578 120.931 105.991C120.634 106.405 120.173 106.664 119.803 107.014C119.4 107.407 119.112 107.903 118.971 108.449C118.83 108.994 118.842 109.568 119.005 110.107C120.306 110.768 121.72 111.449 123.161 111.216C124.601 110.983 125.88 109.365 125.203 108.074C124.572 106.871 122.678 106.6 122.352 105.281C121.971 103.738 124.158 102.365 123.665 100.854C123.449 100.191 122.789 99.8018 122.282 99.3237C121.683 98.7376 121.276 97.9843 121.114 97.1627C120.952 96.3412 121.042 95.4899 121.373 94.7205C120.547 94.8656 119.699 94.8108 118.899 94.5607C118.099 94.3106 117.371 93.8724 116.776 93.2831C115.676 92.1742 114.799 90.4251 113.237 90.4747C111.804 90.5203 110.57 92.1906 109.23 91.681C108.901 91.5556 108.553 91.3005 108.234 91.45C108.129 91.5179 108.041 91.6086 107.977 91.7155C107.913 91.8223 107.873 91.9423 107.862 92.0665C107.522 93.693 108.107 95.5462 107.22 96.9518C106.255 98.4812 104.022 98.6933 102.851 100.073C102.216 100.821 101.97 101.83 101.386 102.619C100.802 103.409 99.5621 103.911 98.8613 103.223C99.2057 102.515 99.2998 101.712 99.1281 100.944C98.9564 100.176 98.5291 99.4891 97.916 98.9953C97.2653 98.5711 96.5639 98.2302 95.8283 97.9806C95.0062 97.6329 94.2242 97.1975 93.4959 96.6818C93.131 96.4619 92.8346 96.1449 92.6396 95.7663C92.4854 95.2923 92.5062 94.7788 92.6982 94.3187C93.0536 93.3007 93.6805 92.3989 94.5113 91.7108C95.3422 91.0228 96.3453 90.5746 97.4125 90.4145C98.3456 90.2877 99.4317 90.3324 100.049 89.622C100.376 89.2461 100.547 88.6777 101.022 88.5251C101.325 88.4642 101.64 88.5029 101.92 88.6356L105.403 89.8605C105.791 90.0358 106.219 90.1065 106.643 90.0656C106.854 90.0372 107.046 89.9304 107.181 89.7666C107.316 89.6028 107.383 89.394 107.371 89.1822C107.259 88.6043 106.369 88.327 106.45 87.744C106.496 87.5551 106.597 87.3844 106.742 87.2544C107.999 85.9176 109.536 84.8751 111.244 84.2014C112.951 83.5277 114.786 83.2395 116.618 83.3575C117.058 84.0789 116.363 84.9332 115.784 85.5491C115.206 86.1649 114.741 87.2653 115.44 87.7393C115.727 87.8855 116.046 87.9573 116.368 87.948C117.225 88.064 118.059 88.3166 118.836 88.6961C120.04 89.2195 121.22 89.7921 122.378 90.414C122.275 89.6515 122.178 88.8482 122.467 88.1353C122.756 87.4223 123.578 86.8631 124.296 87.1408C124.988 87.4083 125.343 88.3239 126.08 88.4077C127.064 88.5196 127.452 87.068 127.041 86.1682C126.63 85.2684 125.817 84.515 125.749 83.5283C125.703 82.8627 125.957 82.0371 125.425 81.6341C125.235 81.5131 125.02 81.4377 124.797 81.4141L111.51 78.9711C110.721 78.826 109.581 78.9372 109.546 79.738C109.526 80.185 109.926 80.6273 109.749 81.0383C109.56 81.4769 108.94 81.4368 108.488 81.592C107.786 81.8327 107.434 82.6648 107.502 83.4028C107.625 84.136 107.909 84.8329 108.334 85.4434C107.47 85.0823 106.161 85.0159 105.297 84.6548Z" fill="#EA1D25"/>
<path d="M94.695 73.385C93.8572 73.1079 92.9543 73.095 92.1089 73.348C91.2634 73.601 90.5163 74.1076 89.9687 74.7992C89.75 75.0871 89.5662 75.4838 89.7494 75.7955C90.012 76.2423 90.6811 76.0658 91.1743 75.906C91.8994 75.6472 92.6886 75.6284 93.4251 75.8524C93.8883 76.0113 94.3027 76.2921 94.7679 76.445C94.9944 76.5396 95.2424 76.5709 95.4853 76.5354C95.7282 76.5 95.9568 76.3991 96.1467 76.2437C96.466 75.9183 96.486 75.4125 96.4866 74.9568C96.5088 74.8043 96.4965 74.6488 96.4509 74.5017C96.4052 74.3545 96.3272 74.2194 96.2227 74.1062C96.0364 73.9984 95.8272 73.9366 95.6123 73.9258C95.1309 73.8367 94.6957 73.5827 94.3818 73.2074" fill="#EA1D25"/>
<path d="M99.486 72.0521C99.2985 72.0419 99.1115 72.0801 98.9431 72.163C98.7746 72.2458 98.6303 72.3706 98.524 72.5253C98.4178 72.68 98.3532 72.8594 98.3364 73.0463C98.3196 73.2332 98.3512 73.4212 98.4281 73.5924C99.004 73.7493 99.6056 73.7885 100.197 73.7076C100.492 73.6619 100.767 73.5299 100.987 73.3283C101.207 73.1268 101.362 72.8647 101.433 72.575C100.737 72.7016 100.019 72.5645 99.418 72.1905" fill="#EA1D25"/>
<path d="M115.56 69.8262C113.993 70.1591 112.471 70.6759 111.025 71.3657C111.706 71.6275 112.286 72.1012 112.678 72.7169C113.07 73.3327 113.253 74.0579 113.201 74.7858C113.14 75.0652 113.147 75.3553 113.222 75.6314C113.388 76.0349 113.871 76.1863 114.296 76.2899C115.058 76.5217 115.854 76.6233 116.65 76.5902C117.049 76.5694 117.436 76.4496 117.776 76.2418C118.116 76.034 118.399 75.7447 118.6 75.4C118.715 75.0729 118.851 74.7531 119.005 74.4426C120.022 72.8946 123.044 74.7663 124.136 73.2702C124.521 72.7432 124.486 71.9499 124.987 71.5323C125.247 71.3503 125.548 71.2357 125.862 71.1986C128.059 70.7626 130.277 70.4469 132.508 70.2529C133.565 70.161 134.943 69.7818 134.952 68.7217C130.97 67.9404 126.842 68.4953 123.209 70.3001C121.9 70.9552 120.169 72.3332 118.908 71.4647C118.436 71.1395 118.459 70.2639 117.809 69.8983C117.145 69.5244 116.266 69.6765 115.56 69.8262Z" fill="#EA1D25"/>
<path d="M128.581 72.259L130.45 72.6178C130.106 72.6026 129.762 72.6608 129.443 72.7887C129.123 72.9165 128.834 73.111 128.596 73.3592C128.357 73.6074 128.174 73.9035 128.059 74.2279C127.944 74.5522 127.9 74.8973 127.929 75.2402C129.679 75.8244 131.588 75.2559 133.431 75.3335C135.275 75.4112 137.42 76.727 137.105 78.5437C137.01 79.093 136.692 79.642 136.857 80.1745C136.973 80.5477 137.303 80.8125 137.489 81.1563C137.876 81.8725 137.566 82.7785 137.077 83.4297C136.588 84.0808 135.93 84.6003 135.501 85.2923C134.433 87.0133 135.039 89.2382 135.676 91.1609C135.86 91.8874 136.199 92.5653 136.671 93.1477C137.614 94.1492 139.15 94.2362 140.526 94.2563C141.527 94.2709 142.674 94.2215 143.308 93.4463C144.134 92.4342 143.556 90.8552 144.101 89.6674C144.595 88.5887 145.854 88.1259 146.995 87.7977C149.086 87.1964 151.216 86.6851 153.193 85.7769C155.647 84.649 157.94 82.8914 160.637 82.7462C161.394 82.7054 162.17 82.7947 162.899 82.5875C163.628 82.3804 164.32 81.7507 164.265 80.9955C164.218 80.3502 163.671 79.8764 163.244 79.39C162.817 78.9036 162.482 78.1556 162.875 77.6409L169.945 76.3215C169.443 74.9568 169.053 73.1595 170.205 72.2712C170.62 71.9508 171.176 71.8227 171.53 71.4352C172.133 70.7748 171.83 69.6373 171.134 69.0756C170.438 68.514 169.497 68.3837 168.605 68.3097C165.505 68.0524 162.387 68.2224 159.281 68.3925C153.21 68.7251 147.138 69.0576 141.066 69.3901C139.844 69.4571 138.433 69.3548 137.312 69.7715C136.363 70.1242 135.688 70.7717 134.603 70.9992C132.599 71.4191 130.394 71.135 128.581 72.259Z" fill="#EA1D25"/>
<path d="M162.062 87.0193C161.871 86.9892 161.676 87.0333 161.517 87.1426C161.412 87.2581 161.35 87.4059 161.34 87.5617C161.22 88.2491 161.363 88.9568 161.743 89.5428C161.936 89.8303 162.203 90.0609 162.515 90.2106C162.828 90.3604 163.175 90.4238 163.52 90.3942C164.362 90.287 164.982 89.5697 165.755 89.2196C166.948 88.6806 172.012 87.8404 168.509 85.9494C167.302 85.2978 166.522 85.873 165.57 86.3022C164.488 86.8555 163.275 87.1035 162.062 87.0193Z" fill="#EA1D25"/>
<path d="M192.743 71.1915C192.334 71.3585 191.992 71.6561 191.77 72.0379C191.668 72.2317 191.644 72.4574 191.704 72.6683C191.763 72.8791 191.902 73.059 192.09 73.1707C192.243 73.226 192.405 73.2517 192.567 73.2463L194.231 73.296C194.937 73.3171 195.82 73.4674 196.01 74.1477C196.151 74.6529 195.835 75.302 196.216 75.663C196.379 75.7894 196.576 75.866 196.782 75.8835C197.329 76.0241 197.901 76.0426 198.457 75.9375C199.667 75.6132 199.032 74.8752 199.413 74.2181C199.996 73.2127 199.895 73.8214 200.922 73.2451C201.681 72.8196 202.662 72.0476 202.028 70.9631C200.927 69.077 194.368 70.3812 192.743 71.1915Z" fill="#EA1D25"/>
<path d="M225.569 70.2433L224.603 70.372C222.426 70.6624 220.236 70.9554 218.138 71.6089C219.046 71.9676 219.999 72.2011 220.97 72.3031C221.504 72.3293 222.035 72.4047 222.556 72.5284C223.482 72.8039 224.416 73.5155 225.311 73.151C225.866 72.925 226.047 72.3477 226.506 72.0417C226.824 71.8304 228.028 71.4884 228.162 71.2752C229.25 69.5512 226.406 70.1317 225.569 70.2433Z" fill="#EA1D25"/>
<path d="M229.81 74.6289C228.52 75.3496 227.323 76.2254 226.246 77.2367C225.792 77.6629 225.329 78.193 225.37 78.8138C225.425 79.6391 226.304 80.1177 227.067 80.4402L230.154 81.7462C230.528 81.2188 230.186 80.4907 229.798 79.9723C229.411 79.454 228.951 78.8543 229.122 78.2306C229.318 77.5188 230.186 77.2763 230.915 77.1536C232.101 76.9538 235.303 76.9699 234.918 75.0589C234.465 72.8072 231.001 73.9636 229.81 74.6289Z" fill="#EA1D25"/>
<path d="M229.189 202.053C228.895 202.903 228.867 203.905 229.376 204.647C229.946 205.48 231.088 205.79 232.076 205.579C233.059 205.318 233.936 204.754 234.582 203.969C235.173 203.311 235.66 202.565 236.024 201.759C236.533 200.504 236.891 199.192 237.093 197.852L238.051 192.824C238.266 191.7 238.257 188.254 236.19 189.377C235.625 189.684 234.318 192.105 233.726 192.792C232.659 194.029 232.518 195.23 231.956 196.729C231.253 198.607 229.839 200.172 229.189 202.053Z" fill="#EA1D25"/>
<path d="M338.378 227.786C337.702 227.523 337.045 227.21 336.414 226.852C335.781 228.591 335.444 230.424 335.418 232.275L340.047 229.658C340.743 229.264 341.532 228.717 341.517 227.918C341.524 227.819 341.503 227.72 341.458 227.632C341.413 227.544 341.345 227.47 341.262 227.417C341.159 227.376 341.047 227.363 340.937 227.379C340.251 227.436 339.625 227.774 338.977 228.008C338.33 228.243 337.573 228.367 336.979 228.019" fill="#EA1D25"/>
<path d="M362.797 229.34C362.288 229.478 361.792 229.656 361.312 229.872C360.25 230.412 359.527 231.438 358.571 232.149C357.657 232.83 356.555 233.204 355.474 233.567C355.157 233.848 355.303 234.414 355.648 234.66C356.019 234.871 356.445 234.967 356.87 234.935C357.993 234.96 359.177 234.971 360.16 234.429C360.714 234.069 361.233 233.658 361.709 233.2C362.859 232.241 364.24 231.609 365.608 230.997C366.105 230.81 366.565 230.535 366.966 230.186C367.825 229.34 367.886 228.035 366.647 227.747C365.646 227.515 363.75 229.032 362.797 229.34Z" fill="#EA1D25"/>
<path d="M373.586 222.298C373.641 221.716 373.564 221.13 373.359 220.582C373.154 220.034 372.828 219.54 372.404 219.137C372.391 220.301 372.356 221.542 371.701 222.505C371.234 223.191 370.502 223.654 369.99 224.307C369.478 224.961 369.251 225.997 369.851 226.57C370.235 226.862 370.702 227.022 371.184 227.029C372.379 227.169 373.761 227.247 374.599 226.385C375.056 225.915 375.279 225.217 375.837 224.871C376.044 224.784 376.23 224.652 376.379 224.483C376.61 224.117 376.244 223.635 375.832 223.504C375.42 223.372 374.966 223.434 374.552 223.309C374.138 223.183 373.759 222.718 373.971 222.342" fill="#EA1D25"/>
<path d="M354.41 179.61C353.783 179.762 353.134 179.801 352.494 179.723C351.431 179.528 350.603 178.727 349.744 178.07C347.703 176.517 345.222 175.651 342.658 175.596C340.325 175.552 337.97 176.184 335.679 175.743C335.828 176.575 336.541 177.199 337.301 177.57C338.061 177.941 338.9 178.127 339.664 178.491C340.888 179.078 341.858 180.087 342.397 181.332C342.643 181.906 342.798 182.53 343.171 183.031C343.932 184.055 345.376 184.28 346.65 184.196C348.312 184.087 350.047 183.61 351.592 184.228C352.775 184.701 353.621 185.735 354.608 186.539C355.595 187.343 356.986 187.94 358.12 187.36C356.942 186.979 355.917 186.232 355.195 185.228C354.472 184.224 354.09 183.015 354.103 181.779C355.215 181.881 358.417 181.841 358.245 179.954C358.099 178.354 355.365 179.437 354.41 179.61Z" fill="#EA1D25"/>
<path d="M339.866 192.626C340.063 191.544 341.143 190.589 340.806 189.542C340.574 188.817 339.733 188.46 338.973 188.442C338.212 188.424 337.464 188.651 336.703 188.672C336.208 188.646 335.712 188.653 335.217 188.693C333.707 188.941 332.776 190.523 331.353 191.085C330.488 191.427 329.515 191.362 328.615 191.598C326.572 192.135 325.279 194.064 323.851 195.619C321.544 198.121 318.537 199.873 315.222 200.648C314.06 200.917 312.811 201.088 311.888 201.842C310.665 202.841 310.364 204.552 310.092 206.106C309.34 210.398 308.192 214.612 306.661 218.692L311.512 219.311C312.434 219.428 313.39 219.543 314.279 219.27C314.925 219.027 315.536 218.701 316.099 218.302C318.26 216.961 320.678 216.089 323.197 215.742C324.468 215.567 325.799 215.536 326.992 216.007C328.184 216.479 329.207 217.549 329.307 218.827C329.822 218.666 330.372 218.649 330.896 218.777C331.421 218.904 331.901 219.172 332.285 219.55C333.045 220.324 333.543 221.316 333.708 222.387C333.835 223.05 333.963 223.845 334.579 224.123C335.082 224.35 335.658 224.106 336.208 224.062C338.073 223.913 339.621 226.086 341.454 225.711C343.42 225.31 343.903 222.368 345.821 221.779C346.923 221.44 348.468 221.852 348.995 220.828C349.46 219.925 348.533 218.884 348.628 217.873C348.746 216.629 350.215 216.101 351.347 215.57C355.252 213.74 357.104 208.489 355.212 204.617C354.091 202.323 351.886 200.517 351.479 197.996C351.165 196.057 351.93 193.796 350.693 192.269C350.063 191.493 348.998 191.064 348.623 190.138C348.387 189.555 348.482 188.893 348.355 188.277C348.228 187.661 347.69 187.016 347.082 187.176C345.314 187.64 344.75 193.095 343.804 194.421C342.365 196.435 339.413 195.108 339.866 192.626Z" fill="#EA1D25"/>
<path d="M307.197 181.671C306.593 181.502 305.934 181.335 305.355 181.577C304.776 181.819 304.438 182.668 304.903 183.089C308.536 182.948 312.192 182.807 315.795 183.301C319.946 183.869 324.054 185.276 328.223 184.862C325.842 184.16 323.421 183.598 320.973 183.181L316.892 182.402C315.797 182.173 314.691 182.002 313.577 181.89C311.249 181.698 309.487 182.313 307.197 181.671Z" fill="#EA1D25"/>
<path d="M310.835 169.026C310.533 169.001 310.16 168.98 310.004 169.239C309.855 169.486 310.025 169.813 309.945 170.091C309.835 170.47 309.338 170.567 308.947 170.516C308.555 170.464 308.131 170.34 307.784 170.529C307.608 170.649 307.476 170.823 307.407 171.025C307.339 171.226 307.337 171.445 307.403 171.647C307.545 172.049 307.775 172.415 308.075 172.717C308.588 173.364 309.173 173.95 309.818 174.464C311.067 175.386 312.759 175.829 313.546 177.167C313.657 177.426 313.827 177.655 314.044 177.836C314.421 178.075 314.914 177.893 315.32 177.708L316.745 177.057C317.002 176.965 317.231 176.809 317.411 176.604C317.737 176.163 317.537 175.535 317.264 175.06C316.991 174.584 316.641 174.092 316.699 173.547C316.804 172.575 318.055 172.203 318.569 171.371C319.088 170.533 318.75 169.453 318.81 168.469C318.88 167.319 319.603 165.822 318.439 164.963C317.45 164.232 316.504 164.907 315.794 165.714C314.296 167.414 313.588 169.256 310.835 169.026Z" fill="#EA1D25"/>
<path d="M319.485 151.837C319.972 152.768 320.986 153.324 321.517 154.23C322.092 155.213 322.026 156.482 322.65 157.435C323.29 158.412 324.578 158.931 324.937 160.042C325.329 161.255 324.44 162.73 325.149 163.79C325.281 163.963 325.448 164.107 325.639 164.213C325.829 164.318 326.04 164.383 326.257 164.403C326.474 164.423 326.693 164.398 326.9 164.329C327.107 164.26 327.297 164.148 327.459 164.002C327.758 163.677 327.918 163.248 327.905 162.807C327.891 162.366 327.706 161.947 327.389 161.64C326.969 161.258 326.367 161.093 326.016 160.646C325.834 160.388 325.712 160.093 325.661 159.781C325.47 158.883 325.5 157.951 325.75 157.067C325.844 156.843 325.867 156.596 325.818 156.357C325.66 155.899 325.04 155.867 324.604 155.654C323.614 155.172 323.638 153.776 323.811 152.689C323.696 153.413 321.117 152.182 320.846 151.772C320.31 150.958 320.602 149.388 320.496 148.488C319.337 149.046 318.891 150.699 319.485 151.837Z" fill="#EA1D25"/>
<path d="M293.5 166.159C293.024 165.627 292.307 165.069 291.668 165.391C291.182 165.636 291.048 166.309 291.238 166.819C291.471 167.315 291.829 167.741 292.277 168.056C293.607 169.152 295.039 170.142 296.2 171.416C298.276 173.696 299.376 176.773 301.635 178.873C302.089 179.36 302.69 179.685 303.346 179.799C304.004 179.86 304.743 179.439 304.819 178.783C304.881 178.243 304.504 177.759 304.136 177.359C303.258 176.405 302.298 175.528 301.47 174.531C301.087 174.149 300.847 173.647 300.788 173.109C300.784 172.573 301.274 172.012 301.794 172.144C301.161 171.983 300.692 170.93 299.763 170.732C298.988 170.566 298.8 171.046 297.876 170.651C296.115 169.896 294.733 167.539 293.5 166.159Z" fill="#EA1D25"/>
<path d="M334.884 114.308C334.379 114.158 333.882 113.98 333.396 113.777C332.088 113.384 330.358 114.345 330.533 115.698C330.648 116.597 331.486 117.203 331.948 117.983C332.634 119.139 332.451 120.606 332.091 121.901C332.002 122.302 331.834 122.681 331.596 123.016C331.263 123.369 330.865 123.655 330.424 123.858C328.658 124.848 327.101 126.17 325.838 127.751C325.701 127.897 325.605 128.077 325.561 128.273C325.499 128.729 325.958 129.062 326.218 129.443C326.795 130.29 326.378 131.429 326.435 132.451C326.426 132.596 326.455 132.74 326.518 132.871C326.58 133.001 326.675 133.114 326.794 133.197C327.142 133.374 327.554 133.074 327.743 132.733C328.368 131.6 327.897 129.782 329.071 129.236C329.293 129.132 329.562 129.089 329.71 128.894C329.945 128.585 329.718 128.127 329.838 127.757C330.016 127.202 330.776 127.177 331.359 127.202C332.363 127.244 333.367 127.111 334.325 126.808C334.7 126.718 335.042 126.521 335.306 126.239C335.657 125.802 335.626 125.18 335.556 124.623C335.205 121.85 334.326 119.169 332.966 116.726C333.997 116.857 335.119 116.971 336.009 116.435C336.507 116.134 337.104 115.235 336.857 114.623C336.466 113.655 335.76 114.47 334.884 114.308Z" fill="#EA1D25"/>
<path d="M202.691 129.562C202.814 130.223 202.935 130.919 202.718 131.556C202.502 132.193 201.819 132.725 201.175 132.53C200.675 132.379 200.386 131.876 200.031 131.493C198.057 129.363 193.602 130.596 192.382 127.961C191.884 126.886 192.222 125.598 191.883 124.462C191.669 123.806 191.242 123.24 190.671 122.852C190.1 122.464 189.416 122.277 188.726 122.32C188.097 122.41 187.485 122.593 186.91 122.861C183.053 124.405 179.004 125.417 174.875 125.869C174.09 125.917 173.314 126.058 172.562 126.289C170.867 126.904 169.708 128.474 168.883 130.077C168.059 131.68 167.45 133.415 166.345 134.839C165.183 136.336 163.555 137.384 162.036 138.518C161.451 138.894 160.964 139.404 160.615 140.006C160.286 140.681 160.304 141.467 160.33 142.218L160.64 151.336C160.68 152.509 160.73 153.724 161.256 154.773C161.912 156.084 163.208 156.942 164.107 158.1C165.024 159.29 165.502 160.76 165.46 162.261C165.441 162.865 165.381 163.579 165.851 163.958C166.137 164.143 166.472 164.24 166.813 164.234L179.158 165.244C181.329 165.422 183.736 165.714 185.154 167.367C185.823 168.147 186.36 169.269 187.385 169.352C187.825 169.388 188.252 169.208 188.692 169.173C189.801 169.085 190.776 169.927 191.391 170.853C192.322 172.266 192.744 173.952 192.589 175.636C192.488 176.693 192.16 177.721 192.09 178.78C191.821 182.811 195.241 186.314 195.307 190.354C195.346 192.73 194.217 194.95 193.116 197.057C194.893 199.746 193.438 203.326 194.145 206.47C194.816 209.452 197.305 211.787 197.925 214.78C198.209 216.15 198.226 217.836 199.435 218.542C199.965 218.801 200.554 218.918 201.143 218.884C204.698 218.926 208.212 218.127 211.398 216.551C212.893 215.81 214.443 214.703 214.704 213.055C214.915 211.727 214.241 210.241 214.927 209.084C215.736 207.72 217.807 207.828 218.997 206.779C220.928 205.078 219.423 201.833 220.205 199.383C220.908 197.181 223.328 196.01 224.528 194.034C225 193.184 225.339 192.266 225.532 191.313C226.082 189.036 226.424 186.714 226.554 184.375C226.586 182.954 226.691 181.535 226.869 180.125C228.162 172.096 236.106 166.719 238.686 159.005C238.932 158.269 239.048 157.288 238.392 156.871C238.003 156.685 237.562 156.639 237.143 156.74L231.452 157.457C230.745 157.546 229.996 157.629 229.347 157.336C228.698 157.043 228.233 156.222 228.577 155.599C229.544 153.85 227.555 151.639 226.672 149.846C224.294 145.019 221.461 140.429 218.212 136.138C218.005 135.917 217.874 135.635 217.842 135.333L219.457 135.387C218.911 133.432 218.012 131.293 216.111 130.578C215.04 130.176 213.854 130.315 212.712 130.377C209.439 130.556 205.93 130.062 202.691 129.562Z" fill="#EA1D25"/>
<path d="M212.714 85.5132C213.571 86.4219 214.53 87.3854 215.769 87.5438C217.958 87.8236 219.532 85.5621 220.534 83.5978C220.571 84.0986 220.802 84.5652 221.178 84.8983C221.554 85.2314 222.045 85.4048 222.547 85.3816C223.088 85.2908 223.603 85.0893 224.062 84.79C228.398 82.4221 233.255 81.1675 238.197 81.1389C238.15 80.7648 238.242 80.3865 238.458 80.0769C238.673 79.7672 238.995 79.5482 239.363 79.4621C240.367 79.2631 241.273 80.131 241.757 81.0326C242.242 81.9342 242.544 82.9793 243.314 83.6541C244.084 84.329 245.575 84.2996 245.879 83.3223C246.171 82.3841 245.193 81.584 244.38 81.0308C243.568 80.4777 242.711 79.4539 243.258 78.6376C247.41 77.7192 251.588 76.7974 255.837 76.6149C256.56 76.6401 257.281 76.516 257.954 76.2504C258.602 75.9328 259.117 75.2116 258.943 74.5118C258.016 74.7295 257.044 74.6665 256.153 74.3306C255.262 73.9948 254.491 73.4013 253.939 72.626C259.834 72.1399 266.105 71.7256 271.329 74.4973C271.956 75.8421 268.761 76.961 269.616 78.1739C269.888 78.5608 270.435 78.6061 270.908 78.6149C274.539 78.6823 278.19 78.7483 281.78 78.2006C283.092 78.0005 284.417 77.7179 285.734 77.8802C287.927 78.1506 289.804 79.613 291.962 80.0899C292.84 80.2839 293.825 80.2905 294.566 79.78C295.306 79.2696 295.624 78.1072 295.018 77.4436C297.05 75.4537 300.422 75.9468 303.103 76.8995C305.783 77.8522 308.323 79.3885 311.16 79.6009C313.195 79.7531 315.258 79.2063 317.268 79.5539C318.531 79.7723 319.707 80.3339 320.942 80.6789C323.277 81.3314 325.748 81.1937 328.172 81.2251C334.359 81.3083 340.478 82.5232 346.226 84.8096C346.974 85.0528 347.659 85.4573 348.233 85.9944C348.768 86.5667 349.041 87.456 348.681 88.1518L342.741 87.2846C343.301 88.3855 344.749 88.5731 345.925 88.9528C347.101 89.3326 348.32 90.63 347.613 91.643C346.339 91.2377 345.185 92.5104 344.541 93.6814C343.897 94.8524 343.113 96.2548 341.778 96.3262C340.582 96.3901 339.137 95.3729 338.357 96.2811C339.434 97.6382 340.356 99.1109 341.106 100.672C341.876 102.275 342.424 104.294 341.384 105.736C341.22 105.993 340.972 106.186 340.681 106.28C339.831 106.495 339.279 105.456 338.67 104.827C337.902 104.033 336.74 103.809 335.7 103.436C334.66 103.064 333.565 102.332 333.483 101.231C333.433 100.547 333.794 99.9099 334.061 99.2769C334.509 98.2099 334.705 97.0541 334.634 95.8992C334.575 94.9701 334.315 94.0036 333.647 93.3544C332.979 92.7053 331.826 92.4993 331.109 93.0939C330.775 93.3713 330.506 93.8151 330.072 93.8317C329.304 93.861 328.715 92.5239 328.098 92.9803C328.17 93.4667 328.069 93.963 327.812 94.3825C325.97 95.9839 323.139 95.3064 320.763 95.8721C319.633 96.1952 318.552 96.6671 317.547 97.2756C317.171 97.4362 316.851 97.7045 316.627 98.0466C316.331 98.6224 316.658 99.3599 317.181 99.7427C317.735 100.082 318.358 100.295 319.004 100.365C321.901 100.913 324.839 101.761 327.126 103.62C329.412 105.479 330.912 108.551 330.188 111.407L324.477 105.954C324.694 108.243 324.817 110.539 324.846 112.841C324.883 113.291 324.821 113.743 324.665 114.166C324.258 115.065 323.154 115.367 322.187 115.566C321.918 115.617 321.663 115.724 321.439 115.881C321.214 116.037 321.025 116.24 320.884 116.474C320.744 116.709 320.654 116.971 320.622 117.242C320.59 117.514 320.615 117.789 320.697 118.05C321.041 119.169 321.897 120.042 322.682 120.911C323.466 121.781 324.238 122.769 324.341 123.935C324.444 125.101 323.563 126.415 322.395 126.334C321.509 126.272 320.851 125.48 320.474 124.677C320.096 123.874 319.871 122.979 319.303 122.297C317.585 120.232 313.725 121.117 312.185 118.915C311.793 119.36 311.521 119.898 311.395 120.477C311.269 121.056 311.293 121.658 311.465 122.226C312.181 121.778 313.162 122.194 313.7 122.845C314.238 123.496 314.492 124.33 314.914 125.061C315.485 126.048 316.392 126.923 316.472 128.059C316.451 128.489 316.458 128.919 316.494 129.348C316.635 130.037 317.217 130.531 317.621 131.107C318.561 132.446 318.515 134.286 317.909 135.806C317.303 137.325 316.215 138.595 315.137 139.826C313.255 141.976 311.333 144.114 309.102 145.899C308.465 146.409 307.785 146.91 307.388 147.622C306.992 148.334 306.971 149.334 307.581 149.876C307.145 149.898 306.363 150.112 305.927 150.134C305.773 148.386 305.74 146.63 305.827 144.877C304.106 144.051 302.253 146.262 302.475 148.157C302.697 150.052 304.068 151.572 305.045 153.212C305.759 154.41 306.29 155.808 306.051 157.183C305.813 158.557 304.585 159.825 303.194 159.704C300.982 159.511 300.056 156.338 297.865 155.975C297.672 155.929 297.469 155.949 297.289 156.032C296.964 156.21 296.907 156.645 296.889 157.015C296.799 158.832 296.722 160.721 297.431 162.397C298.47 164.847 301.153 166.906 300.59 169.507C297.558 168.099 295.982 164.702 295.266 161.439C294.551 158.176 294.431 154.75 293.148 151.665C292.174 152.913 290.127 151.882 289.237 150.573C288.393 149.332 287.873 147.897 287.055 146.639C286.236 145.382 284.982 144.255 283.482 144.186C281.909 144.114 280.546 145.192 279.346 146.211C278.36 147.049 277.348 147.919 276.771 149.077C275.932 150.762 276.152 152.749 276.111 154.631C276.068 156.665 275.636 158.811 274.249 160.3C272.861 161.789 270.3 162.308 268.769 160.966C267.97 160.265 267.583 159.218 267.239 158.214C265.578 153.37 264.194 148.435 263.095 143.434C262.838 144.575 261.835 146.046 260.877 145.374C260.662 145.193 260.487 144.969 260.366 144.716C258.578 141.689 255.267 139.873 251.923 138.784C248.578 137.695 245.059 137.187 241.751 135.991C239.897 135.32 238.127 134.439 236.474 133.365C236.053 133.983 235.807 134.704 235.762 135.451C235.718 136.197 235.876 136.942 236.221 137.606C236.954 138.904 238.615 139.655 240.036 139.202C240.771 138.967 241.391 138.458 242.12 138.206C242.848 137.955 243.826 138.078 244.145 138.78C244.45 139.451 243.989 140.263 244.218 140.965C244.566 142.032 246.178 142.115 246.742 143.086C247.161 143.809 246.816 144.77 246.217 145.353C245.618 145.936 244.819 146.256 244.089 146.662C241.717 147.98 240.03 150.23 237.958 151.98C235.885 153.73 232.961 155.008 230.491 153.885C231.079 150.906 227.528 148.719 226.875 145.753C226.659 144.777 226.771 143.74 226.464 142.789C226.019 141.412 224.797 140.465 223.793 139.421C222.577 138.142 221.629 136.631 221.005 134.98C220.382 133.328 220.096 131.569 220.165 129.805C220.219 128.579 220.445 127.333 220.165 126.139C219.886 124.944 218.896 123.788 217.669 123.842C214.867 123.966 211.338 124.174 209.868 121.788C209.343 120.936 209.115 119.689 209.874 119.036C210.409 118.576 211.199 118.619 211.901 118.688L218.214 119.309C219.69 119.454 221.286 119.573 222.553 118.802C223.82 118.031 224.369 115.984 223.196 115.077C222.339 114.414 220.803 114.45 220.554 113.396C220.346 112.518 221.319 111.522 220.793 110.788C220.417 110.262 219.57 110.408 219.057 110.802C218.544 111.197 218.172 111.773 217.598 112.072C216.59 112.596 215.387 112.097 214.303 111.758C213.219 111.42 211.767 111.391 211.241 112.396C210.653 113.521 211.762 114.995 211.179 116.122C210.408 117.612 207.795 116.764 206.712 118.046C205.469 119.516 207.558 121.71 207.139 123.588C206.604 123.853 206.009 123.975 205.412 123.941C204.816 123.908 204.239 123.721 203.737 123.397C203.243 123.062 202.849 122.599 202.598 122.057C202.346 121.516 202.246 120.917 202.309 120.323C202.412 119.478 202.853 118.615 202.558 117.816C202.319 117.171 201.67 116.786 201.067 116.453L194.933 113.066C194.363 114.122 195.083 115.43 195.984 116.223C196.884 117.016 198.012 117.613 198.603 118.657C198.978 119.38 199.062 120.218 198.838 121.001C198.614 121.784 198.1 122.451 197.401 122.868C197.313 122.929 197.213 122.969 197.108 122.988C197.003 123.006 196.895 123.001 196.792 122.974C196.695 122.917 196.609 122.84 196.542 122.749C196.474 122.658 196.425 122.554 196.398 122.444C195.316 119.677 193.691 116.948 191.093 115.502C188.495 114.057 184.762 114.354 183.058 116.789C182.653 117.368 182.382 118.027 182.029 118.639C180.156 121.888 176.141 123.426 172.39 123.326C172.023 123.346 171.658 123.261 171.338 123.079C170.732 122.661 170.76 121.773 170.852 121.043L171.246 117.943C171.325 117.321 171.44 116.633 171.933 116.244C172.628 115.697 173.63 116.042 174.515 116.03C175.186 115.998 175.83 115.762 176.362 115.352C176.893 114.942 177.285 114.379 177.486 113.739C177.665 113.093 177.663 112.41 177.482 111.764C177.302 111.118 176.948 110.534 176.459 110.074C176.053 109.693 175.509 109.215 175.723 108.702C175.809 108.56 175.924 108.439 176.062 108.346C176.199 108.254 176.355 108.192 176.519 108.166C178.109 107.705 179.789 107.584 181.352 107.04C182.915 106.496 184.431 105.382 184.801 103.77C184.914 103.276 184.966 102.678 185.41 102.433C185.633 102.339 185.872 102.29 186.114 102.289C186.962 102.168 187.733 101.735 188.277 101.075C188.821 100.414 189.098 99.5745 189.053 98.7203C189.802 98.1973 190.852 98.582 191.577 99.1384C192.301 99.6947 192.941 100.43 193.823 100.669C195.466 101.116 197.055 99.6625 198.758 99.6558C199.474 99.6529 200.215 99.906 200.889 99.6633C201.572 99.4174 201.98 98.7379 202.505 98.236C203.029 97.734 203.949 97.4279 204.433 97.9686L204.021 94.9176C204.851 95.1271 205.716 95.1568 206.559 95.0046C207.402 94.8524 208.202 94.5218 208.906 94.0351L203.578 92.2363C203.393 92.1901 203.222 92.0986 203.08 91.9702C202.693 91.5534 203.077 90.904 203.392 90.4302C204.146 89.2969 204.272 87.43 203.033 86.8658C202.187 86.4807 201.217 86.943 200.405 87.3953L196.516 89.5617C196.393 90.3003 197.296 90.7189 197.857 91.2164C198.195 91.5173 198.435 91.9137 198.545 92.3534C198.654 92.7931 198.628 93.2555 198.469 93.68C198.311 94.1044 198.027 94.471 197.656 94.7317C197.285 94.9923 196.844 95.1347 196.391 95.1403C196.647 95.4729 196.825 95.8589 196.912 96.2695C196.998 96.6802 196.991 97.105 196.891 97.5126L194.275 97.7006C193.981 97.7597 193.676 97.7002 193.426 97.5351C193.146 97.2868 193.184 96.8517 193.119 96.4834C192.963 95.5944 192.092 94.9714 191.203 94.8117C190.314 94.6519 189.404 94.8567 188.524 95.0589C188.15 95.1933 187.739 95.1838 187.372 95.0323C187.162 94.8956 187.002 94.6938 186.917 94.4578C186.531 93.5227 186.891 92.4236 187.511 91.624C188.131 90.8243 188.98 90.2398 189.742 89.5741C191.564 87.9763 192.903 85.9011 193.608 83.5829C195.048 82.9799 196.539 82.1606 197.979 81.5576C200.2 80.4343 202.69 79.9522 205.17 80.1656L210.048 80.2587C211.492 80.2863 212.975 80.3216 214.311 80.8717C215.646 81.4218 216.819 82.6116 216.912 84.0519C216.939 84.215 216.925 84.3824 216.871 84.5385C216.816 84.6946 216.722 84.8343 216.599 84.9444C216.41 85.0472 216.197 85.0953 215.982 85.0833C214.635 85.1306 214.061 85.4659 212.714 85.5132Z" fill="#EA1D25"/>
<path d="M173.835 100.788C174.026 100.608 174.163 100.378 174.231 100.125C174.3 99.8722 174.298 99.6052 174.224 99.3534C173.761 99.1746 173.256 99.1287 172.768 99.2209C172.279 99.313 171.826 99.5396 171.46 99.875C171.171 100.167 170.922 100.496 170.719 100.853C170.078 101.898 169.511 103.146 169.883 104.314C169.913 104.442 169.968 104.562 170.046 104.667C170.123 104.773 170.221 104.862 170.333 104.93C170.5 104.996 170.679 105.025 170.858 105.012C171.564 105.011 172.269 104.968 172.97 104.882C173.401 104.829 173.901 104.708 174.067 104.308C174.286 103.782 173.756 103.187 173.911 102.638C174.012 102.393 174.166 102.173 174.361 101.993C174.458 101.903 174.533 101.791 174.579 101.667C174.625 101.543 174.642 101.409 174.627 101.278C174.565 101.02 174.171 100.874 174.029 101.098" fill="#EA1D25"/>
<path d="M177.497 96.0447C176.869 95.9008 176.223 95.8602 175.582 95.9246C175.441 95.9204 175.3 95.9523 175.174 96.0172C175.052 96.1071 174.964 96.2351 174.923 96.3809C174.788 96.8147 174.821 97.2834 175.016 97.6937C175.211 98.1041 175.554 98.4259 175.976 98.5952C176.206 98.648 176.426 98.7365 176.629 98.8573C177.17 99.277 176.825 100.135 176.928 100.812C177.043 101.572 177.779 102.21 177.644 102.967C177.538 103.563 176.9 104.036 177.003 104.633C177.11 105.258 177.904 105.446 178.537 105.496C178.904 105.56 179.282 105.517 179.625 105.371C179.968 105.136 180.212 104.783 180.31 104.379C180.57 103.608 180.678 102.795 180.631 101.983C180.628 101.614 180.536 101.251 180.361 100.926C180.17 100.668 179.959 100.427 179.729 100.203C178.516 98.7938 179.793 96.6915 177.497 96.0447Z" fill="#EA1D25"/>
<path opacity="0.8" d="M336.959 206.453C336.959 206.453 244.081 153.184 204.096 163.277C204.096 163.277 119.356 172.389 109.535 192.435C109.535 192.435 82.5975 108.325 72.7766 105.521" stroke="#CBCBCB" stroke-width="2" stroke-miterlimit="10"/>
<path opacity="0.8" d="M109.535 192.435C125.108 150.941 265.407 104.96 265.407 104.96C245.484 110.007 204.096 163.277 204.096 163.277C204.096 163.277 116.55 99.6334 72.7766 105.521C72.7766 105.521 265.547 111.829 336.959 206.453" stroke="#CBCBCB" stroke-width="2" stroke-miterlimit="10"/>
<path d="M72.7766 109.587C75.0237 109.587 76.8453 107.766 76.8453 105.521C76.8453 103.276 75.0237 101.456 72.7766 101.456C70.5296 101.456 68.7079 103.276 68.7079 105.521C68.7079 107.766 70.5296 109.587 72.7766 109.587Z" fill="#F2F2F2"/>
<path d="M109.535 196.5C111.782 196.5 113.604 194.68 113.604 192.435C113.604 190.19 111.782 188.37 109.535 188.37C107.288 188.37 105.466 190.19 105.466 192.435C105.466 194.68 107.288 196.5 109.535 196.5Z" fill="#F2F2F2"/>
<path d="M265.407 109.026C267.654 109.026 269.475 107.206 269.475 104.96C269.475 102.715 267.654 100.895 265.407 100.895C263.16 100.895 261.338 102.715 261.338 104.96C261.338 107.206 263.16 109.026 265.407 109.026Z" fill="#F2F2F2"/>
<path d="M336.959 210.519C339.206 210.519 341.028 208.699 341.028 206.453C341.028 204.208 339.206 202.388 336.959 202.388C334.712 202.388 332.891 204.208 332.891 206.453C332.891 208.699 334.712 210.519 336.959 210.519Z" fill="#F2F2F2"/>
<path d="M204.096 167.342C206.343 167.342 208.165 165.522 208.165 163.277C208.165 161.032 206.343 159.212 204.096 159.212C201.849 159.212 200.028 161.032 200.028 163.277C200.028 165.522 201.849 167.342 204.096 167.342Z" fill="#F2F2F2"/>
</svg>
