<svg width="30" height="31" viewBox="0 0 30 31" fill="none" xmlns="http://www.w3.org/2000/svg">
<path d="M29.6634 13.8427C29.4687 13.4532 29.1824 13.1168 28.8292 12.8622L26.8828 11.3988C26.7816 11.3289 26.7089 11.2251 26.678 11.1061C26.6343 10.988 26.6343 10.8583 26.678 10.7402L27.4828 8.35482C27.612 7.9282 27.6421 7.47772 27.5707 7.03773C27.5031 6.58963 27.3217 6.16636 27.0438 5.80845C26.7761 5.45045 26.4242 5.16395 26.0194 4.97429C25.6322 4.78836 25.2044 4.70281 24.7755 4.72551H22.5803C22.4505 4.72393 22.3247 4.68029 22.2218 4.60112C22.1189 4.52196 22.0444 4.41155 22.0096 4.28648L21.3803 2.09133C21.2589 1.64599 21.0274 1.23835 20.7072 0.905948C20.3876 0.581361 19.9968 0.335822 19.5657 0.188866C19.1299 0.0551453 18.6688 0.0250779 18.2193 0.10106C17.7735 0.188125 17.3562 0.384205 17.0047 0.671799L15.3364 1.98889C15.2439 2.07223 15.1242 2.11905 14.9998 2.1206C14.8874 2.13133 14.7745 2.10568 14.6778 2.04743L13.0241 0.730336C12.6847 0.452911 12.2829 0.262075 11.8534 0.174232C11.4302 0.0717882 10.9887 0.0717882 10.5656 0.174232C10.1412 0.292124 9.75032 0.507621 9.42409 0.803508C9.09032 1.12685 8.83501 1.52233 8.67774 1.95962L8.04847 4.1694C8.01652 4.29968 7.93856 4.41403 7.82895 4.49136C7.71326 4.57063 7.57346 4.60688 7.43382 4.5938H5.35575C4.90678 4.5762 4.46014 4.66653 4.0533 4.85722C3.64049 5.04049 3.28243 5.32794 3.01426 5.69137C2.74489 6.04879 2.56432 6.46512 2.48742 6.90602C2.41425 7.33481 2.44352 7.77676 2.57523 8.19384L3.29231 10.6656C3.33004 10.7831 3.33061 10.9094 3.29394 11.0272C3.25728 11.1451 3.18516 11.2488 3.08743 11.3241L1.14106 12.7876C0.786914 13.051 0.497155 13.3905 0.292274 13.7827C0.100012 14.1718 0 14.5999 0 15.0339C0 15.4679 0.100012 15.8961 0.292274 16.2852C0.496516 16.6767 0.786691 17.0169 1.14106 17.2803L3.08743 18.7437C3.18516 18.8191 3.25728 18.9228 3.29394 19.0406C3.33061 19.1585 3.33004 19.2848 3.29231 19.4023L2.48742 21.7877C2.35109 22.2177 2.31603 22.6735 2.38498 23.1194C2.45815 23.5555 2.63962 23.9682 2.91182 24.3194C3.17963 24.6853 3.53817 24.9779 3.95085 25.1682C4.33866 25.3526 4.76599 25.4375 5.19477 25.417H7.37529C7.50727 25.4113 7.63697 25.4528 7.74114 25.5341C7.84634 25.6064 7.91969 25.7164 7.94602 25.8414L8.5753 28.0512C8.70536 28.4885 8.93589 28.8895 9.24848 29.2219C9.72573 29.7189 10.3713 30.0199 11.0589 30.066C11.7464 30.112 12.4264 29.8997 12.9656 29.4707L14.6485 28.139C14.7501 28.057 14.8766 28.0123 15.0071 28.0123C15.1376 28.0123 15.2641 28.057 15.3656 28.139L17.0193 29.4561C17.3705 29.7517 17.7949 29.9492 18.2486 30.0268C18.414 30.0414 18.5808 30.0414 18.7462 30.0268C19.0342 30.0271 19.3205 29.9827 19.5949 29.8951C20.0293 29.7584 20.4228 29.5155 20.7396 29.1884C21.0565 28.8613 21.2868 28.4604 21.4096 28.0219L22.0535 25.7975C22.0798 25.6725 22.1532 25.5625 22.2584 25.4901C22.3716 25.4045 22.512 25.3629 22.6535 25.3731H24.7462C25.1937 25.3909 25.6393 25.3058 26.0487 25.1243C26.4522 24.9317 26.8037 24.6451 27.0736 24.2886C27.3435 23.9321 27.524 23.5161 27.5999 23.0755C27.6757 22.625 27.6406 22.1629 27.4975 21.7291L26.7072 19.3584C26.6635 19.2403 26.6635 19.1105 26.7072 18.9925C26.7382 18.8735 26.8109 18.7696 26.9121 18.6998L28.8585 17.2364C29.2123 16.9764 29.4984 16.6351 29.6926 16.2413C29.8971 15.8534 30.0027 15.4211 29.9999 14.9827C29.9723 14.5822 29.8574 14.1941 29.6634 13.8427ZM21.7023 12.729L15.2339 19.1974C14.9833 19.4424 14.6909 19.6406 14.3705 19.7828C14.0456 19.9145 13.6973 19.9847 13.3461 19.9876C12.988 19.9896 12.6337 19.9148 12.3071 19.7681C11.979 19.6321 11.6808 19.4332 11.429 19.1828L8.23871 15.9778C7.99896 15.6979 7.87368 15.3378 7.88791 14.9695C7.90214 14.6011 8.05482 14.2518 8.31545 13.9911C8.57608 13.7305 8.92546 13.5778 9.29377 13.5636C9.66208 13.5494 10.0222 13.6747 10.3022 13.9144L13.3461 16.9583L19.6388 10.6509C19.913 10.3784 20.284 10.2254 20.6706 10.2254C21.0572 10.2254 21.4281 10.3784 21.7023 10.6509C21.8489 10.7876 21.9658 10.953 22.0457 11.1368C22.1257 11.3206 22.1669 11.5188 22.1669 11.7193C22.1669 11.9197 22.1257 12.1179 22.0457 12.3017C21.9658 12.4855 21.8489 12.6509 21.7023 12.7876V12.729Z" fill="#CBCBCB"/>
</svg>
