<svg width="35" height="40" viewBox="0 0 35 40" fill="none" xmlns="http://www.w3.org/2000/svg">
<path fill-rule="evenodd" clip-rule="evenodd" d="M13.4015 6.67192C14.623 6.67192 15.8444 6.69079 17.0643 6.65892C17.3878 6.65046 17.9683 6.9181 17.9423 6.24558C17.9225 5.69827 17.4148 5.89632 17.1072 5.89144C15.7293 5.86965 14.3469 5.81729 12.9745 5.90347C11.9979 5.96428 11.7101 5.59355 11.8327 4.69795C11.875 4.389 11.8343 4.069 11.8409 3.75421C11.8838 1.65795 12.3904 0.944456 14.4236 0.427384C16.6636 -0.141721 18.956 -0.122859 21.1898 0.367546C23.1979 0.808521 24.032 2.37079 23.9306 3.816C23.807 5.57957 23.9026 7.35843 23.901 9.13078C23.8981 11.3594 22.7465 12.5422 20.4997 12.5731C18.6493 12.5984 16.7966 12.6186 14.9472 12.5672C12.743 12.5054 11.1261 14.3363 11.115 16.4111C11.115 16.5685 11.142 16.7311 11.1108 16.883C10.9521 17.6449 11.5862 18.8765 10.7784 19.1028C9.54915 19.4482 8.1098 19.4482 7.02558 18.3513C6.6581 17.9805 6.34851 17.5652 6.18525 17.0852C5.31404 14.5275 5.17648 11.9373 5.99664 9.33956C6.50785 7.7181 7.89842 6.70965 9.62102 6.68071C10.8809 6.65957 12.141 6.67648 13.4009 6.67648L13.4015 6.67192ZM15.646 3.05567C15.5934 2.43681 15.2607 1.9851 14.5742 1.96624C13.8233 1.94673 13.4353 2.40071 13.4343 3.13957C13.4337 3.82445 13.8067 4.26315 14.4883 4.28299C15.2373 4.30477 15.5999 3.84071 15.646 3.05567Z" fill="black"/>
<path fill-rule="evenodd" clip-rule="evenodd" d="M22.8291 19.2101C21.4502 19.2101 20.0707 19.1981 18.6919 19.2199C18.3813 19.2238 17.8603 19.0273 17.8441 19.5584C17.8259 20.1607 18.3849 20.0039 18.74 20.0075C20.1189 20.0247 21.499 20.0394 22.8776 20.001C23.5858 19.9815 23.875 20.1171 23.928 20.9522C24.1676 24.7327 22.527 25.0595 19.501 25.7473C17.765 26.1418 15.9039 25.9327 14.192 25.1659C12.7764 24.5327 11.9078 23.6202 12.0174 21.9116C12.126 20.2251 12.1442 18.5168 12.0145 16.8319C11.8584 14.7984 13.1234 13.3028 15.5836 13.3021C17.2389 13.3018 18.9052 13.1756 20.5462 13.3265C22.8925 13.5418 24.7322 11.508 24.8128 9.14313C24.8161 9.06476 24.7959 8.98053 24.8161 8.90768C25.0229 8.18086 24.2873 7.10053 25.2714 6.73338C26.7585 6.17891 28.4356 6.76167 29.1953 7.89012C30.153 9.31094 30.2824 10.9828 30.4372 12.6153C30.6047 14.375 30.111 16.0316 29.3719 17.6189C28.8697 18.6953 28.0255 19.2156 26.8493 19.2173C25.5094 19.2182 24.1699 19.2173 22.8297 19.2173L22.8291 19.2101ZM22.4701 22.7223C22.3228 22.0504 22.0197 21.5919 21.2392 21.5727C20.4275 21.5532 20.218 22.1603 20.2223 22.7025C20.2268 23.2787 20.3875 23.9877 21.2662 23.9213C21.9966 23.8654 22.3527 23.413 22.4701 22.7223Z" fill="black"/>
<path fill-rule="evenodd" clip-rule="evenodd" d="M1.13981 36.5359C1.13981 37.3756 1.17786 38.1619 1.12192 38.9415C1.09786 39.2777 1.46859 39.9106 0.763224 39.9099C0.141436 39.9099 -0.018238 39.4149 0.00159932 38.8169C0.039648 37.6754 0.0126563 36.5317 0.0126563 35.3893V32.7883C0.0126563 31.2208 0.433143 30.6901 1.93233 30.3655C3.32615 30.0624 4.42143 30.5317 4.98468 31.7519C5.54793 32.9724 5.59151 34.2299 5.02793 35.4715C4.47249 36.6949 3.4494 37.1515 2.13883 36.7889C1.8403 36.7076 1.53883 36.6371 1.13981 36.5359ZM1.13981 33.4634C1.13981 33.8959 1.19835 34.3369 1.12778 34.7577C0.964524 35.7304 1.58566 35.9701 2.31802 36.1431C3.04224 36.3141 3.53883 36.0062 3.82923 35.3681C4.31736 34.2982 4.39931 33.1948 4.02858 32.0634C3.69948 31.0579 2.93948 30.9402 2.05233 31.065C1.17623 31.1896 1.05753 31.7854 1.13396 32.5219C1.16648 32.8325 1.13981 33.1496 1.13981 33.4634ZM10.5665 36.4839C9.96646 36.64 9.44548 36.8065 8.91215 36.9067C7.74467 37.1249 6.88029 36.4839 6.57622 35.3151C6.19899 33.8686 6.51833 32.4276 6.52809 30.9844C6.53232 30.3265 7.1411 30.5831 7.56223 30.2306C7.56223 31.7753 7.56809 33.1086 7.56028 34.441C7.55606 35.1102 7.72906 35.6605 8.36191 36.0133C9.06044 36.4029 9.63345 36.0319 10.2416 35.7818C10.6774 35.6026 10.623 35.2367 10.6237 34.8888C10.6269 33.6296 10.6234 32.3717 10.6276 31.1125C10.6282 30.802 10.5961 30.4224 11.0546 30.4377C11.4634 30.4511 11.6413 30.694 11.6344 31.1395C11.6048 33.2231 11.6637 35.3096 11.5791 37.3902C11.5151 38.9636 10.4052 39.9245 8.80841 39.9951C8.56939 40.0052 8.31898 40.0273 8.22955 39.7307C8.09329 39.2741 8.46305 39.3603 8.70597 39.2826C10.4624 38.7239 10.692 38.3902 10.5665 36.4839ZM17.9889 31.0774C18.4536 30.8579 18.7206 30.6569 19.0142 30.6026C20.6621 30.2979 21.9248 30.414 21.9216 32.6335C21.9193 33.7766 21.9222 34.92 21.9193 36.0628C21.9186 36.3828 21.9391 36.6943 21.462 36.7219C20.959 36.7519 20.8484 36.4641 20.8507 36.0696C20.8565 34.9681 20.8864 33.8667 20.8855 32.7655C20.8848 31.9102 20.7102 31.1532 19.6224 31.1558C18.6682 31.1574 17.9925 31.8696 17.9876 32.8524C17.9821 33.9162 17.9824 34.9801 17.9886 36.0439C17.9895 36.4218 17.9977 36.7532 17.4513 36.7219C16.9593 36.6927 17.0198 36.361 17.0198 36.0556C17.0165 33.2589 17.0302 30.4592 17.0064 27.6605C17.0022 27.1701 17.1957 26.8657 17.6308 26.8449C18.2448 26.8166 17.9635 27.3535 17.9726 27.6228C18.0126 28.719 17.9889 29.8179 17.9889 31.0774ZM23.1889 33.585C23.1268 31.4013 24.1625 30.2354 26.0376 30.3031C26.9788 30.3376 27.6848 30.7551 28.1404 31.5681C28.9453 33.0062 28.8363 34.4449 27.9654 35.7915C27.3671 36.7164 26.4468 37.1525 25.3248 36.9145C24.2185 36.6803 23.3521 35.6842 23.1954 34.5232C23.1537 34.2159 23.1889 33.8976 23.1889 33.585ZM27.5206 33.6361C27.4711 33.255 27.4799 32.7236 27.3212 32.2494C27.1043 31.599 26.7089 31.0754 25.902 31.0397C25.0881 31.0046 24.6819 31.4803 24.4103 32.1389C23.984 33.1727 24.0116 34.2107 24.4734 35.226C24.77 35.88 25.2279 36.3587 26.0214 36.226C26.8028 36.0956 27.264 35.5834 27.4237 34.8234C27.4962 34.479 27.4845 34.118 27.5206 33.6361ZM29.7993 33.9272C29.7993 33.533 29.7918 33.1395 29.8006 32.7473C29.8188 31.9912 29.5778 31.1535 30.5973 30.7672C31.7648 30.3262 32.9219 29.9958 34.0971 30.6784C34.5368 30.934 34.6988 31.3984 34.7033 31.8914C34.7154 33.2673 34.6971 34.6439 34.7157 36.0198C34.7222 36.4998 34.596 36.7398 34.0565 36.7268C33.4653 36.7128 33.5898 36.3096 33.5937 35.9876C33.6077 34.8884 33.6841 33.7902 33.6633 32.6927C33.636 31.3106 32.8776 30.747 31.5856 31.0862C31.0497 31.2273 30.7147 31.4875 30.7411 32.1509C30.7934 33.4458 30.7531 34.7454 30.758 36.0426C30.7593 36.4185 30.7648 36.7515 30.2224 36.72C29.7254 36.6914 29.8067 36.3476 29.8028 36.0494C29.7937 35.3418 29.8002 34.6338 29.7993 33.9272ZM15.6308 30.8624C15.5495 30.9587 15.4812 31.1096 15.4097 31.1109C14.1206 31.1288 14.4783 32.0911 14.4451 32.8049C14.4136 33.4699 14.4452 34.1382 14.4357 34.8052C14.426 35.468 14.4835 36.0839 15.29 36.2598C15.5212 36.3099 15.6266 36.4432 15.5785 36.6741C15.5255 36.9291 15.3222 36.919 15.1209 36.9164C14.1941 36.9002 13.5069 36.2449 13.4796 35.2855C13.4517 34.3054 13.4897 33.3229 13.4666 32.3437C13.4546 31.8787 13.6962 31.2852 12.9463 31.1008C12.864 31.081 12.8347 30.8478 12.7811 30.7148C13.7814 30.401 13.3665 29.5382 13.5037 28.8836C13.5687 28.5737 13.863 28.4888 14.1411 28.4624C14.4224 28.4358 14.4247 28.6634 14.4338 28.8537C14.4708 29.6081 14.0803 30.6179 15.4692 30.5629C15.5157 30.5613 15.57 30.746 15.6308 30.8624Z" fill="black"/>
</svg>
