<svg width="51" height="50" viewBox="0 0 51 50" fill="none" xmlns="http://www.w3.org/2000/svg">
<g clip-path="url(#clip0_33_443)">
<path d="M24.3679 43.1041C24.1804 42.875 23.9116 42.725 23.6845 42.5729C23.4929 42.4583 23.4179 42.3437 23.4554 42.0771C23.8366 39.8333 24.1783 37.5896 24.5199 35.3062C24.7491 33.7854 24.9783 32.2646 25.2429 30.6666C25.5866 30.8958 25.9283 31.125 26.2324 31.3521C26.3074 31.4271 26.2699 31.5416 26.2699 31.6187C26.1949 32.15 26.1179 32.7229 26.0033 33.2541L25.4345 36.9416L24.8637 40.5937C24.8241 40.8979 24.7866 41.2396 24.7116 41.5458C24.8637 41.5833 24.9408 41.4687 25.0533 41.4312C27.9429 39.9104 30.8345 38.4271 33.7262 36.9041L33.9554 36.7916C34.0304 36.7521 34.1054 36.7146 34.1824 36.7916C34.4866 36.9791 34.7908 37.2083 35.1324 37.4375C34.9804 37.5125 34.9033 37.5896 34.7908 37.6271C31.4429 39.3771 28.1345 41.1271 24.7866 42.8771C24.672 42.9146 24.5574 42.9521 24.5199 43.0666L24.3679 43.1041ZM14.2137 22.5666C14.1366 23.175 14.0241 23.7062 13.947 24.2396C13.6804 25.9896 13.3762 27.7 13.1095 29.45C12.9574 30.4771 12.7679 31.5041 12.6158 32.5312C12.5783 32.7208 12.5012 32.7979 12.3491 32.8354C12.0449 32.9104 11.7033 33.025 11.3991 33.1396C11.3616 33.0625 11.3991 32.9875 11.3991 32.9104C11.7033 31.0104 12.0074 29.1458 12.3116 27.2437C12.6158 25.4187 12.8824 23.5562 13.1866 21.7291C13.2241 21.5771 13.2616 21.4625 13.4533 21.425C13.7179 21.3479 13.947 21.2729 14.2137 21.1958C14.3658 21.1208 14.4804 21.1583 14.6304 21.2729L16.572 23.2104C18.6262 25.2666 20.7179 27.3208 22.772 29.3354C22.8095 29.375 22.847 29.45 22.9241 29.4875C22.5429 29.6396 22.1616 29.7166 21.8199 29.8687C21.7054 29.9062 21.6304 29.7916 21.5908 29.7541C21.097 29.2604 20.6033 28.7646 20.0699 28.2708C18.1841 26.4164 16.3077 24.5525 14.4408 22.6791C14.3658 22.6791 14.3304 22.6416 14.2137 22.5666ZM24.1033 28.4625C23.8149 28.2056 23.5356 27.9388 23.2658 27.6625C23.1887 27.5854 23.2283 27.4729 23.2658 27.3958C23.4949 26.7125 23.722 26.0271 23.9887 25.3416L26.4991 18.1541C26.5437 18.072 26.5694 17.9809 26.5741 17.8875C26.422 17.85 26.3074 17.925 26.1949 17.9625C23.0762 18.9521 19.9949 19.9041 16.8762 20.8916C16.3804 21.0437 16.5324 21.0833 16.1908 20.7396L15.6199 20.1687C15.697 20.0562 15.8491 20.0562 15.9637 20.0166C19.5762 18.8771 23.1887 17.7354 26.7658 16.5937C27.0304 16.5187 27.1824 16.5562 27.3741 16.7458C27.4866 16.8979 27.6783 17.05 27.8304 17.2041C27.9824 17.3166 27.9824 17.4687 27.9429 17.6208C27.5262 18.7625 27.1449 19.9041 26.7262 21.0437C25.8908 23.4396 25.0533 25.8354 24.2158 28.1958C24.1993 28.2915 24.1608 28.3842 24.1033 28.4625ZM23.4574 30.8562C23.3864 31.2213 23.3349 31.5898 23.3033 31.9604C23.3033 32.1125 23.1887 32.1125 23.0741 32.15C22.2387 32.4166 21.4408 32.6833 20.6408 32.9104C18.2824 33.6729 15.8866 34.3937 13.5283 35.1562C13.4533 35.1937 13.3387 35.2312 13.2241 35.2687C13.2992 35.3749 13.4055 35.455 13.5283 35.4979C16.1908 37.3229 18.8533 39.1854 21.5158 41.0125C21.7449 41.1646 21.897 41.3166 21.7824 41.6208C21.7054 41.8875 21.7054 42.1541 21.6304 42.4208C21.5158 42.4208 21.4408 42.3437 21.3637 42.3062C18.2449 40.175 15.1283 38.0083 12.0074 35.875C11.8179 35.7229 11.7408 35.6104 11.7783 35.3437C11.8179 35.1146 11.8929 34.925 11.8929 34.6979C11.8929 34.5062 12.0074 34.4312 12.1595 34.3916C15.847 33.2125 19.5762 32.0729 23.2637 30.8916C23.3054 30.8916 23.3804 30.8916 23.4554 30.8562M15.0116 7.54164C14.9741 7.92289 14.897 8.30206 14.8595 8.64581C14.8595 8.79789 14.7074 8.79789 14.5929 8.79789C13.9095 9.02706 13.1866 9.21456 12.5012 9.44372C9.99078 10.2041 7.51994 10.9646 5.00953 11.725C4.93244 11.7646 4.81786 11.7646 4.74286 11.8771C4.85744 11.9541 4.93244 12.0291 5.04703 12.1062C7.70953 13.9708 10.3345 15.8708 12.997 17.7354C13.1845 17.8875 13.2616 18.0021 13.2262 18.2687C13.1541 18.5564 13.1026 18.8488 13.072 19.1437C12.9574 19.1041 12.8824 19.0291 12.7679 18.9896L3.52619 12.4875C3.29703 12.3333 3.22203 12.1812 3.29703 11.9541C3.33453 11.725 3.37411 11.5375 3.41161 11.3083C3.41161 11.1562 3.48661 11.0791 3.67828 11.0021L6.30328 10.2041C9.11578 9.36664 11.8929 8.49372 14.7074 7.65622C14.7845 7.57914 14.897 7.57914 15.0116 7.54164ZM26.422 15.3021C26.1179 15.4146 25.8137 15.4896 25.5095 15.6062C25.3199 15.6812 25.1679 15.6437 25.0158 15.4916C23.9887 14.4271 22.9241 13.4 21.8574 12.3333C20.5989 11.0696 19.3315 9.81472 18.0554 8.56872C17.9783 8.49372 17.9408 8.37914 17.7887 8.33956C17.7067 8.72937 17.6435 9.12287 17.5991 9.51872C17.2949 11.3083 17.0283 13.0958 16.7241 14.8437C16.5324 15.9854 16.3429 17.0896 16.1908 18.2291C16.1533 18.4208 16.1158 18.4958 15.9241 18.5333C15.6199 18.6104 15.2783 18.725 14.9741 18.8375C14.9366 18.6083 15.0116 18.4208 15.0491 18.2687L16.1908 11.1937C16.3804 9.93747 16.6095 8.68331 16.7991 7.42706C16.8387 7.27497 16.8762 7.19789 17.0283 7.16247C17.2949 7.08539 17.522 7.01039 17.7887 6.93331C17.9783 6.85622 18.0929 6.89581 18.2449 7.04789L21.2866 10.0896C22.9241 11.725 24.597 13.3604 26.2324 14.9958C26.2699 15.0729 26.3845 15.1479 26.422 15.3021ZM27.822 31.4583C27.6769 30.9414 27.5861 30.4107 27.5512 29.875C27.3116 27.8771 27.522 25.9479 28.3012 24.0958C29.4929 21.2041 31.5512 19.0604 34.3512 17.6937C35.748 17.0216 37.2317 16.5475 38.7595 16.2854C38.8637 16.4083 38.8158 16.5562 38.8074 16.6708L38.8741 17.3625C38.9012 17.5166 38.8199 17.5875 38.6658 17.6125C37.6574 17.8479 36.6449 18.1583 35.7012 18.5896C33.1429 19.7062 31.1929 21.4375 29.9512 23.9437C29.1206 25.5813 28.7423 27.411 28.8554 29.2437C28.897 29.7437 28.9387 30.2396 29.0179 30.7416C29.0449 30.8958 29.0366 31.0104 28.8408 31.0729C28.4932 31.179 28.1528 31.3078 27.822 31.4583ZM33.0929 35.1458C33.1199 34.7646 33.1054 34.4208 33.1345 34.0416C33.1429 33.8896 33.1866 33.8166 33.3783 33.7916C34.3804 33.6333 35.3512 33.3958 36.2574 32.9646C39.6033 31.4812 41.7991 28.9646 42.6949 25.4062C43.0637 23.9833 43.1262 22.5396 42.9991 21.0812C43.0033 21.0062 42.9741 20.8896 42.9783 20.8125C42.9908 20.6625 42.8533 20.4604 42.9741 20.3541C43.0574 20.2458 43.247 20.2604 43.4012 20.2333C43.672 20.175 43.9054 20.1146 44.1783 20.0208C44.297 20.525 44.3345 21.0625 44.3387 21.5562C44.4163 22.6349 44.3785 23.7188 44.2262 24.7896C43.8869 27.1957 42.8113 29.4378 41.147 31.2083C39.3345 33.1416 37.0783 34.3166 34.5241 34.8625C34.0607 35.0157 33.5798 35.1102 33.0929 35.1437M44.2241 13.3896C44.3366 13.3979 44.3804 13.3229 44.4595 13.2916C46.0114 12.3853 47.5848 11.5163 49.1783 10.6854C49.2595 10.6146 49.3762 10.5854 49.4845 10.6687C49.8116 10.8812 50.1783 11.0979 50.5449 11.3146C50.4598 11.3835 50.3659 11.4409 50.2658 11.4854C48.2866 12.5291 46.272 13.5333 44.2929 14.575C44.1427 14.6749 44.0061 14.794 43.8866 14.9291C43.1595 16.0604 42.3908 17.2271 41.6637 18.3583C41.5345 18.5771 41.5345 18.5771 41.3158 18.4479C41.0949 18.3166 40.9137 18.1896 40.6929 18.0604C40.472 17.9312 40.4741 17.9312 40.6012 17.7479L42.0116 15.5604C42.3095 15.1229 42.5699 14.6854 42.8658 14.2479C42.9528 14.1279 43.0035 13.9855 43.0116 13.8375C43.1374 11.5466 43.2839 9.25693 43.4512 6.96872C43.747 7.10206 43.9991 7.31039 44.2949 7.44789C44.6283 7.62081 44.6908 7.81664 44.6616 8.19789C44.5315 9.61161 44.4203 11.027 44.3283 12.4437C44.3074 12.7458 44.247 13.0479 44.2241 13.3896ZM36.1366 22.6979C36.0991 23.2291 35.4783 23.9479 34.9387 24.025C34.7622 24.0668 34.5775 24.0576 34.406 23.9986C34.2346 23.9396 34.0833 23.8332 33.9699 23.6916C33.8526 23.5637 33.775 23.4044 33.7465 23.2332C33.718 23.0619 33.7399 22.8861 33.8095 22.7271C33.9712 22.2876 34.2967 21.9277 34.7179 21.7229C34.8725 21.6411 35.0469 21.6042 35.2214 21.6163C35.3959 21.6285 35.5636 21.6892 35.7054 21.7916C36.0304 22.0416 36.2012 22.3229 36.1366 22.6979ZM40.0033 25.2187C39.9658 25.75 39.3429 26.4687 38.8012 26.5833C38.4137 26.6708 38.1179 26.5354 37.8345 26.25C37.7165 26.1303 37.6374 25.9777 37.6076 25.8122C37.5779 25.6468 37.5989 25.4762 37.6679 25.3229C37.8554 24.8396 38.147 24.4791 38.6199 24.2812C39.2908 23.9479 40.0533 24.4979 40.0033 25.2187ZM2.38453 13.4C2.72619 13.5896 2.99286 13.8166 3.33453 14.0458C3.44911 14.1229 3.41161 14.2354 3.37411 14.35L3.03036 16.5166C2.61369 19.1041 2.19494 21.6521 1.77619 24.2396C1.77619 24.3146 1.69911 24.4291 1.77619 24.5437C1.89078 24.4666 2.00536 24.4291 2.11786 24.3541L10.6762 19.675C10.9054 19.5604 11.0554 19.5604 11.247 19.7125C11.4762 19.9041 11.7033 20.0562 11.9699 20.2458C11.8929 20.3604 11.7783 20.3979 11.7033 20.4354C8.39286 22.2625 5.08453 24.05 1.81369 25.8729C1.58453 25.9896 1.43244 26.0271 1.24286 25.8375C1.09078 25.6854 0.901193 25.5708 0.71161 25.4562C0.559526 25.3812 0.519943 25.2666 0.559526 25.1146C0.71161 24.2021 0.863693 23.3271 0.976193 22.4146C1.43453 19.5229 1.92828 16.6312 2.38453 13.7416C2.34611 13.631 2.34611 13.5106 2.38453 13.4Z" fill="black"/>
</g>
<defs>
<clipPath id="clip0_33_443">
<rect width="50" height="50" fill="white" transform="translate(0.544922)"/>
</clipPath>
</defs>
</svg>
